<svg width="24" height="24" fill="none"><defs/><path fill="#fff" d="M21.14.875H2.86a2.11 2.11 0 00-2.11 2.11v16.874a2.11 2.11 0 002.11 2.11h.703v.703a.703.703 0 001.406 0v-.703H19.03v.703a.703.703 0 001.407 0v-.703h.703a2.11 2.11 0 002.109-2.11V2.984A2.11 2.11 0 0021.14.875zm.704 18.984a.703.703 0 01-.703.703H2.859a.703.703 0 01-.703-.703V2.984a.703.703 0 01.703-.703h18.282a.703.703 0 01.703.703V19.86z"/><path fill="#fff" d="M18.328 3.688H7.078a2.11 2.11 0 00-2.11 2.109v2.11h-.702a.703.703 0 000 1.405h.703v4.22h-.703a.703.703 0 000 1.405h.703v2.11a2.11 2.11 0 002.11 2.11h11.25a2.11 2.11 0 002.108-2.11V5.797a2.11 2.11 0 00-2.109-2.11zm.703 13.359a.703.703 0 01-.703.703H7.078a.703.703 0 01-.703-.703v-2.11h.703a.703.703 0 000-1.406h-.703V9.312h.703a.703.703 0 100-1.406h-.703v-2.11a.703.703 0 01.703-.702h11.25a.703.703 0 01.703.703v11.25z"/><path fill="#fff" d="M16.922 10.719h-1.063a3.252 3.252 0 00-.59-1.26l.522-.523a.704.704 0 00-.979-.996l-.607.613a3.098 3.098 0 00-.782-.287V7.203a.703.703 0 00-1.406 0v1.063c-.272.061-.535.158-.782.287l-.607-.613a.705.705 0 00-.996.996l.523.523a3.25 3.25 0 00-.59 1.26h-1.08a.703.703 0 100 1.406h1.063c.103.458.305.887.59 1.26l-.523.523a.703.703 0 00.996.996l.607-.613c.247.13.51.226.782.287v1.063a.703.703 0 001.406 0v-1.063c.272-.061.535-.158.782-.287l.624.613a.703.703 0 00.996-.996l-.523-.523c.28-.374.475-.804.574-1.26h1.063a.703.703 0 000-1.406zm-4.219 2.531a1.828 1.828 0 110-3.656 1.828 1.828 0 010 3.656z"/></svg>