<svg width="1390" height="1171" viewBox="0 0 1390 1171" fill="none" xmlns="http://www.w3.org/2000/svg">
<path d="M756.64 87.11C756.64 91.35 754.91 95.22 752.09 98.02C749.31 100.84 745.44 102.57 741.2 102.57H410.77C402.28 102.57 395.33 95.62 395.33 87.11C395.33 82.87 397.06 79 399.88 76.2C402.66 73.38 406.53 71.65 410.77 71.65H426.39C432.56 57.32 446.8 47.3 463.38 47.3C474.54 47.3 484.63 51.85 491.94 59.17C501.67 42.66 519.63 31.57 540.18 31.57C545.83 31.57 551.27 32.43 556.4 33.98C567.15 13.76 588.4 0 612.9 0C642.32 0 667.06 19.86 674.53 46.89C679.95 44.18 686.06 42.63 692.55 42.63C710.9 42.63 726.37 54.88 731.24 71.65H741.19C749.68 71.65 756.63 78.6 756.63 87.11H756.64Z" fill="#CAE6FE"/>
<path d="M1147.49 152.82C1147.49 155.94 1146.22 158.79 1144.15 160.84C1142.1 162.91 1139.26 164.18 1136.14 164.18H893.14C886.9 164.18 881.79 159.07 881.79 152.81C881.79 149.69 883.06 146.84 885.13 144.79C887.17 142.72 890.02 141.45 893.14 141.45H904.63C909.17 130.91 919.64 123.54 931.84 123.54C940.05 123.54 947.47 126.88 952.84 132.27C960 120.13 973.2 111.97 988.32 111.97C992.48 111.97 996.48 112.6 1000.25 113.74C1008.16 98.87 1023.78 88.75 1041.8 88.75C1063.43 88.75 1081.63 103.36 1087.13 123.23C1091.12 121.24 1095.61 120.1 1100.38 120.1C1113.87 120.1 1125.25 129.11 1128.83 141.44H1136.15C1142.39 141.44 1147.5 146.55 1147.5 152.81L1147.49 152.82Z" fill="#CAE6FE"/>
<path fill-rule="evenodd" clip-rule="evenodd" d="M1315.72 597L1336.34 598.08L1335.33 617.4C1340.17 618.63 1344.81 620.67 1349.1 623.45L1363.1 610.84L1376.92 626.18L1363.52 638.25C1366.82 643.67 1368.93 649.6 1369.81 655.67L1389.13 656.67L1388.05 677.29L1368.14 676.25C1366.9 680.23 1365.13 684.05 1362.81 687.62L1375.43 701.62L1360.09 715.44L1348.02 702.04C1342.6 705.34 1336.67 707.45 1330.6 708.33L1329.72 725.22L1309.1 724.15L1310.01 706.67C1304.94 705.09 1300.1 702.66 1295.73 699.33L1282.33 711.41L1268.51 696.07L1282.51 683.45C1279.81 678.14 1278.21 672.46 1277.68 666.68L1258.24 665.67L1259.32 645.05L1280.39 646.14C1281.95 641.94 1284.13 637.94 1286.94 634.26L1274.86 620.86L1290.2 607.04L1302.81 621.04C1306.61 619.11 1310.59 617.74 1314.68 616.92L1315.71 597.01L1315.72 597ZM1311.21 648.33C1303.46 655.32 1302.83 667.3 1309.82 675.06C1316.81 682.81 1328.79 683.44 1336.55 676.45C1344.3 669.46 1344.93 657.48 1337.94 649.72C1330.95 641.97 1318.97 641.34 1311.21 648.33Z" fill="#CAE6FE"/>
<path fill-rule="evenodd" clip-rule="evenodd" d="M144.05 255.9L164.67 256.98L163.66 276.3C168.5 277.53 173.14 279.57 177.43 282.35L191.43 269.74L205.25 285.08L191.85 297.15C195.15 302.57 197.26 308.5 198.14 314.57L217.46 315.57L216.38 336.19L196.47 335.15C195.23 339.13 193.46 342.95 191.14 346.52L203.76 360.52L188.42 374.34L176.35 360.94C170.93 364.24 165 366.35 158.93 367.23L158.05 384.12L137.43 383.05L138.34 365.57C133.27 363.99 128.43 361.56 124.06 358.23L110.66 370.31L96.84 354.97L110.84 342.35C108.14 337.04 106.54 331.36 106.01 325.58L86.5699 324.57L87.6499 303.95L108.72 305.04C110.28 300.84 112.46 296.84 115.27 293.16L103.19 279.76L118.53 265.94L131.14 279.94C134.94 278.01 138.92 276.64 143.01 275.82L144.04 255.91L144.05 255.9ZM139.54 307.23C131.79 314.22 131.16 326.2 138.15 333.96C145.14 341.71 157.12 342.34 164.88 335.35C172.63 328.36 173.26 316.38 166.27 308.62C159.28 300.87 147.29 300.24 139.54 307.23Z" fill="#CAE6FE"/>
<path fill-rule="evenodd" clip-rule="evenodd" d="M1293.05 497.51L1304.32 498.1L1303.77 508.66C1306.41 509.33 1308.95 510.45 1311.3 511.96L1318.95 505.07L1326.5 513.45L1319.18 520.05C1320.99 523.01 1322.13 526.25 1322.62 529.57L1333.18 530.12L1332.59 541.39L1321.71 540.82C1321.03 542.99 1320.06 545.08 1318.8 547.04L1325.7 554.69L1317.32 562.24L1310.72 554.92C1307.76 556.73 1304.52 557.87 1301.2 558.36L1300.72 567.59L1289.45 567.01L1289.95 557.46C1287.18 556.6 1284.53 555.27 1282.15 553.45L1274.83 560.05L1267.28 551.67L1274.93 544.77C1273.45 541.87 1272.58 538.76 1272.29 535.6L1261.67 535.05L1262.26 523.78L1273.78 524.38C1274.63 522.08 1275.83 519.9 1277.36 517.89L1270.76 510.57L1279.14 503.02L1286.03 510.67C1288.1 509.61 1290.28 508.87 1292.51 508.42L1293.07 497.54L1293.05 497.51ZM1290.58 525.56C1286.34 529.38 1286 535.93 1289.82 540.17C1293.64 544.41 1300.19 544.75 1304.43 540.93C1308.67 537.11 1309.01 530.56 1305.19 526.32C1301.37 522.08 1294.82 521.74 1290.58 525.56Z" fill="#CAE6FE"/>
<path fill-rule="evenodd" clip-rule="evenodd" d="M65.22 400.56L76.49 401.15L75.94 411.71C78.58 412.38 81.12 413.5 83.47 415.01L91.12 408.12L98.67 416.5L91.35 423.1C93.16 426.06 94.3 429.3 94.79 432.62L105.35 433.17L104.76 444.44L93.88 443.87C93.2 446.04 92.23 448.13 90.97 450.09L97.87 457.74L89.49 465.29L82.89 457.97C79.93 459.78 76.69 460.92 73.37 461.41L72.89 470.64L61.62 470.06L62.12 460.51C59.35 459.65 56.7 458.32 54.32 456.5L47 463.1L39.45 454.72L47.1 447.82C45.62 444.92 44.75 441.81 44.46 438.65L33.84 438.1L34.43 426.83L45.95 427.43C46.8 425.13 48 422.95 49.53 420.94L42.93 413.62L51.31 406.07L58.2 413.72C60.27 412.66 62.45 411.92 64.68 411.47L65.24 400.59L65.22 400.56ZM62.75 428.61C58.51 432.43 58.17 438.98 61.99 443.22C65.81 447.46 72.36 447.8 76.6 443.98C80.84 440.16 81.18 433.61 77.36 429.37C73.54 425.13 66.99 424.79 62.75 428.61V428.61Z" fill="#CAE6FE"/>
<path d="M1316.28 1122.07C1316.28 1149.01 1021.62 1170.86 658.14 1170.86C294.66 1170.86 0 1149.02 0 1122.07C0 1095.13 294.66 1073.28 658.14 1073.28C1021.62 1073.28 1316.28 1095.12 1316.28 1122.07Z" fill="#CAE6FE"/>
<path fill-rule="evenodd" clip-rule="evenodd" d="M1296.23 386.81C1306.02 386.81 1313.99 394.78 1313.99 404.57C1313.99 414.36 1306.02 422.33 1296.23 422.33C1286.44 422.33 1278.47 414.36 1278.47 404.57C1278.47 394.78 1286.44 386.81 1296.23 386.81ZM1296.23 416.76C1302.95 416.76 1308.42 411.29 1308.42 404.57C1308.42 397.85 1302.95 392.38 1296.23 392.38C1289.51 392.38 1284.04 397.85 1284.04 404.57C1284.04 411.29 1289.51 416.76 1296.23 416.76Z" fill="#61B3FF"/>
<path fill-rule="evenodd" clip-rule="evenodd" d="M1218 334.95C1227.79 334.95 1235.76 342.92 1235.76 352.71C1235.76 362.5 1227.79 370.47 1218 370.47C1208.21 370.47 1200.24 362.5 1200.24 352.71C1200.24 342.92 1208.21 334.95 1218 334.95ZM1218 364.9C1224.72 364.9 1230.19 359.43 1230.19 352.71C1230.19 345.99 1224.72 340.52 1218 340.52C1211.28 340.52 1205.81 345.99 1205.81 352.71C1205.81 359.43 1211.28 364.9 1218 364.9Z" fill="#007CE6"/>
<path d="M1210.15 285.7C1211.69 285.7 1212.94 286.95 1212.94 288.49V300.78C1212.94 302.32 1211.69 303.57 1210.15 303.57C1208.61 303.57 1207.36 302.32 1207.36 300.78V288.49C1207.36 286.95 1208.61 285.7 1210.15 285.7Z" fill="#61B3FF"/>
<path d="M1210.15 264.2C1211.69 264.2 1212.94 265.45 1212.94 266.99V279.27C1212.94 280.81 1211.69 282.06 1210.15 282.06C1208.61 282.06 1207.36 280.81 1207.36 279.27V266.99C1207.36 265.45 1208.61 264.2 1210.15 264.2Z" fill="#61B3FF"/>
<path d="M1192.91 281.09H1203.95C1205.49 281.09 1206.74 282.34 1206.74 283.88C1206.74 285.42 1205.49 286.67 1203.95 286.67H1192.91C1191.37 286.67 1190.12 285.42 1190.12 283.88C1190.12 282.34 1191.37 281.09 1192.91 281.09Z" fill="#61B3FF"/>
<path d="M1216.36 281.09H1227.4C1228.94 281.09 1230.19 282.34 1230.19 283.88C1230.19 285.42 1228.94 286.67 1227.4 286.67H1216.36C1214.82 286.67 1213.57 285.42 1213.57 283.88C1213.57 282.34 1214.82 281.09 1216.36 281.09Z" fill="#61B3FF"/>
<path d="M1306.36 332.07C1307.9 332.07 1309.15 333.32 1309.15 334.86V347.15C1309.15 348.69 1307.9 349.94 1306.36 349.94C1304.82 349.94 1303.57 348.69 1303.57 347.15V334.86C1303.57 333.32 1304.82 332.07 1306.36 332.07Z" fill="#61B3FF"/>
<path d="M1306.36 310.57C1307.9 310.57 1309.15 311.82 1309.15 313.36V325.64C1309.15 327.18 1307.9 328.43 1306.36 328.43C1304.82 328.43 1303.57 327.18 1303.57 325.64V313.36C1303.57 311.82 1304.82 310.57 1306.36 310.57Z" fill="#61B3FF"/>
<path d="M1289.11 327.46H1300.15C1301.69 327.46 1302.94 328.71 1302.94 330.25C1302.94 331.79 1301.69 333.04 1300.15 333.04H1289.11C1287.57 333.04 1286.32 331.79 1286.32 330.25C1286.32 328.71 1287.57 327.46 1289.11 327.46V327.46Z" fill="#61B3FF"/>
<path d="M1312.56 327.46H1323.6C1325.14 327.46 1326.39 328.71 1326.39 330.25C1326.39 331.79 1325.14 333.04 1323.6 333.04H1312.56C1311.02 333.04 1309.77 331.79 1309.77 330.25C1309.77 328.71 1311.02 327.46 1312.56 327.46V327.46Z" fill="#61B3FF"/>
<path fill-rule="evenodd" clip-rule="evenodd" d="M240.12 142.55C230.33 142.55 222.36 134.58 222.36 124.79C222.36 115 230.33 107.03 240.12 107.03C249.91 107.03 257.88 115 257.88 124.79C257.88 134.58 249.91 142.55 240.12 142.55ZM240.12 136.98C246.84 136.98 252.31 131.51 252.31 124.79C252.31 118.07 246.84 112.6 240.12 112.6C233.4 112.6 227.93 118.07 227.93 124.79C227.93 131.51 233.4 136.98 240.12 136.98Z" fill="#61B3FF"/>
<path fill-rule="evenodd" clip-rule="evenodd" d="M294.92 195.06C285.13 195.06 277.16 187.09 277.16 177.3C277.16 167.51 285.13 159.54 294.92 159.54C304.71 159.54 312.68 167.51 312.68 177.3C312.68 187.09 304.71 195.06 294.92 195.06ZM294.92 189.49C301.64 189.49 307.11 184.02 307.11 177.3C307.11 170.58 301.64 165.11 294.92 165.11C288.2 165.11 282.73 170.58 282.73 177.3C282.73 184.02 288.2 189.49 294.92 189.49Z" fill="#007CE6"/>
<path d="M347.98 129.26H335.69C334.15 129.26 332.9 128.01 332.9 126.47C332.9 124.93 334.15 123.68 335.69 123.68H347.98C349.52 123.68 350.77 124.93 350.77 126.47C350.77 128.01 349.52 129.26 347.98 129.26Z" fill="#61B3FF"/>
<path d="M369.48 129.26H357.2C355.66 129.26 354.41 128.01 354.41 126.47C354.41 124.93 355.66 123.68 357.2 123.68H369.48C371.02 123.68 372.27 124.93 372.27 126.47C372.27 128.01 371.02 129.26 369.48 129.26Z" fill="#61B3FF"/>
<path d="M352.59 146.5C351.05 146.5 349.8 145.25 349.8 143.71V132.67C349.8 131.13 351.05 129.88 352.59 129.88C354.13 129.88 355.38 131.13 355.38 132.67V143.71C355.38 145.25 354.13 146.5 352.59 146.5Z" fill="#61B3FF"/>
<path d="M352.59 123.05C351.05 123.05 349.8 121.8 349.8 120.26V109.22C349.8 107.68 351.05 106.43 352.59 106.43C354.13 106.43 355.38 107.68 355.38 109.22V120.26C355.38 121.8 354.13 123.05 352.59 123.05Z" fill="#61B3FF"/>
<path d="M195.99 193.79H183.7C182.16 193.79 180.91 192.54 180.91 191C180.91 189.46 182.16 188.21 183.7 188.21H195.99C197.53 188.21 198.78 189.46 198.78 191C198.78 192.54 197.53 193.79 195.99 193.79Z" fill="#61B3FF"/>
<path d="M217.49 193.79H205.21C203.67 193.79 202.42 192.54 202.42 191C202.42 189.46 203.67 188.21 205.21 188.21H217.49C219.03 188.21 220.28 189.46 220.28 191C220.28 192.54 219.03 193.79 217.49 193.79Z" fill="#61B3FF"/>
<path d="M200.6 211.03C199.06 211.03 197.81 209.78 197.81 208.24V197.2C197.81 195.66 199.06 194.41 200.6 194.41C202.14 194.41 203.39 195.66 203.39 197.2V208.24C203.39 209.78 202.14 211.03 200.6 211.03Z" fill="#61B3FF"/>
<path d="M200.6 187.58C199.06 187.58 197.81 186.33 197.81 184.79V173.75C197.81 172.21 199.06 170.96 200.6 170.96C202.14 170.96 203.39 172.21 203.39 173.75V184.79C203.39 186.33 202.14 187.58 200.6 187.58Z" fill="#61B3FF"/>
<path d="M754.37 1055.41C877.9 961.78 944.92 884.26 948.27 831.04C948.4 829.02 950.14 827.49 952.15 827.62C954.17 827.75 955.7 829.49 955.58 831.51C953.66 861.96 932.77 899.28 893.48 942.44C863.4 975.48 812.82 1019.41 762.18 1058.61L754.38 1055.42L754.37 1055.41Z" fill="#ABD3F2"/>
<path d="M925.29 901.04C938.86 916.28 958.57 911.46 984.44 886.56C957.06 869.12 937.34 873.94 925.29 901.04V901.04Z" fill="#CAE6FE"/>
<path d="M906.28 921.33C922.26 908.63 918.53 888.68 895.11 861.46C876.17 887.83 879.89 907.79 906.28 921.33Z" fill="#CAE6FE"/>
<path d="M947.22 853.72C966.51 847.08 969.66 827.02 956.65 793.55C930 812.1 926.86 832.15 947.22 853.72Z" fill="#CAE6FE"/>
<path d="M869.3 963.33C876.91 982.26 897.1 984.39 929.87 969.71C910 944.03 889.81 941.91 869.3 963.33Z" fill="#CAE6FE"/>
<path d="M846.8 981.06C864.73 971.32 864.51 951.02 846.15 920.16C822.93 942.86 823.15 963.16 846.8 981.06Z" fill="#CAE6FE"/>
<path d="M818.42 1008.41C825.67 1027.49 845.81 1029.99 878.85 1015.94C859.47 989.89 839.33 987.38 818.42 1008.41Z" fill="#CAE6FE"/>
<path d="M265.24 723.57C228.81 670.91 193.86 613.74 175.17 573.16C150.75 520.15 142.11 478.25 149.49 448.65C149.98 446.69 151.97 445.49 153.93 445.98C155.89 446.47 157.09 448.46 156.6 450.42C143.71 502.17 184.17 596.31 273.64 722.89L265.24 723.57V723.57Z" fill="#ABD3F2"/>
<path d="M157.35 524.08C139.81 534.51 122.47 523.95 105.34 492.4C136.72 484.04 154.05 494.6 157.35 524.08Z" fill="#CAE6FE"/>
<path d="M169.34 549.17C157.95 532.24 167.53 514.34 198.08 495.47C208.17 526.33 198.59 544.23 169.34 549.17Z" fill="#CAE6FE"/>
<path d="M150.75 472.36C134.36 460.2 137.43 440.13 159.94 412.16C179.74 437.89 176.68 457.96 150.75 472.36Z" fill="#CAE6FE"/>
<path d="M191.91 600.38C178.93 616.13 159.05 612.06 132.25 588.16C158.95 569.68 178.84 573.76 191.91 600.38Z" fill="#CAE6FE"/>
<path d="M207.99 624.09C193.84 609.38 200.18 590.1 227.01 566.23C242.28 594.88 235.94 614.17 207.99 624.09Z" fill="#CAE6FE"/>
<path d="M226.79 658.73C214.12 674.72 194.15 671.03 166.91 647.65C193.25 628.67 213.22 632.37 226.79 658.73Z" fill="#CAE6FE"/>
<path d="M952.6 272.6C926.28 288.1 943.15 323.59 910.26 347.99C881.71 369.18 840.59 337.53 839.27 388.13C838.85 404.29 829.84 415.75 817.77 423.87C787.94 443.92 747.64 437.56 724.58 410C724.22 409.58 723.87 409.15 723.52 408.72C721.98 406.88 720.42 405.02 718.86 403.15C713.13 396.3 707.29 389.3 701.91 382.83C680.27 356.84 711.53 318.89 750.37 316.37C789.21 313.84 789.86 290.14 793.16 258.18C796.47 226.23 829.77 212.96 864.1 225.03C898.43 237.11 910.85 194.08 957.59 195.16C1004.33 196.24 989.22 251.04 952.62 272.61L952.6 272.6Z" fill="#ABD3F2"/>
<path d="M926.44 244.96C927.68 246.54 927.4 248.82 925.82 250.06L723.51 408.72C721.97 406.88 720.41 405.02 718.85 403.15L921.34 244.35C922.92 243.11 925.2 243.39 926.44 244.97V244.96Z" fill="#90C3EF"/>
<path d="M837.88 174.67C822.9 201.29 855.31 223.51 839.12 261.13C825.07 293.79 773.62 287.06 797.88 331.49C805.64 345.68 803.59 360.11 797.23 373.2C781.5 405.52 743.46 420.25 709.67 407.99C709.15 407.81 708.63 407.61 708.11 407.42C705.86 406.6 703.57 405.77 701.28 404.94C692.88 401.89 684.32 398.77 676.41 395.88C644.65 384.27 652.62 335.76 684.95 314.07C717.27 292.38 705.93 271.55 692.73 242.26C679.55 212.97 701.68 184.77 737.43 177.98C773.19 171.19 762.32 127.74 803.28 105.2C844.24 82.66 858.69 137.64 837.87 174.68L837.88 174.67Z" fill="#CAE6FE"/>
<path d="M801.38 163.91C803.24 164.65 804.15 166.77 803.4 168.63L708.11 407.42C705.86 406.6 703.57 405.77 701.28 404.94L796.66 165.93C797.4 164.07 799.52 163.16 801.38 163.9V163.91Z" fill="#ABD3F2"/>
<path d="M192.85 729.16C235.88 747.45 229.45 791.77 265.71 794.92C301.96 798.07 326.83 823.89 316.67 854.36C306.5 884.84 297.32 906.7 331.66 925.02C366.01 943.33 378.84 990.79 348.41 1005.55C340.84 1009.23 332.63 1013.2 324.59 1017.08C322.39 1018.14 320.2 1019.2 318.04 1020.24C317.54 1020.48 317.04 1020.73 316.54 1020.96C284.17 1036.57 244.83 1025.75 225.92 995.18C218.27 982.81 214.78 968.65 221.06 953.75C240.72 907.1 190.21 918.99 172.93 887.91C153.02 852.12 183.02 826.74 165.43 801.77C140.98 767.03 149.8 710.87 192.83 729.16H192.85Z" fill="#ABD3F2"/>
<path d="M205.58 788.92L324.6 1017.08C322.4 1018.14 320.21 1019.2 318.05 1020.24L199.14 792.29C198.21 790.51 198.9 788.32 200.68 787.39C202.46 786.46 204.65 787.15 205.58 788.93V788.92Z" fill="#90C3EF"/>
<path d="M86.58 833.9C133.31 835.59 143.15 879.28 178.14 869.25C213.12 859.23 245.58 874.45 246.99 906.54C248.39 938.64 247.63 962.34 286.26 967.16C324.88 971.98 353.84 1011.71 330.7 1036.37C324.95 1042.52 318.7 1049.15 312.57 1055.66C310.9 1057.43 309.23 1059.21 307.59 1060.95C307.21 1061.36 306.83 1061.76 306.45 1062.16C281.8 1088.32 241.19 1092.28 212.6 1070.49C201.03 1061.67 192.71 1049.69 193.25 1033.54C194.93 982.94 152.01 1012.11 124.76 989.27C93.37 962.96 112.31 928.54 86.95 911.51C51.69 887.81 39.85 832.21 86.57 833.9H86.58Z" fill="#CAE6FE"/>
<path d="M119.84 885.15L312.58 1055.66C310.91 1057.43 309.24 1059.21 307.6 1060.95L115.04 890.59C113.54 889.26 113.39 886.96 114.72 885.46C116.05 883.96 118.35 883.81 119.85 885.14L119.84 885.15Z" fill="#ABD3F2"/>
<path d="M1063.02 1116.29C1050.65 1090.9 1079.95 1058.6 1115.68 1056.28C1154.52 1053.75 1155.17 1030.05 1158.47 998.09C1161.78 966.14 1195.08 952.87 1229.41 964.94C1263.74 977.02 1276.16 933.99 1322.9 935.07C1369.64 936.15 1354.53 990.95 1317.93 1012.52C1291.61 1028.02 1308.48 1063.51 1275.59 1087.91C1249.61 1107.19 1213.23 1082.73 1205.89 1116.29H1063.03H1063.02Z" fill="#ABD3F2"/>
<path d="M1118.32 1116.29L1286.67 984.26C1288.25 983.02 1290.53 983.3 1291.77 984.88C1293.01 986.46 1292.73 988.74 1291.15 989.98L1130.09 1116.29H1118.32V1116.29Z" fill="#90C3EF"/>
<path d="M1023.22 1116.29C1017.26 1096.72 1027.96 1068.96 1050.28 1053.98C1082.6 1032.29 1071.26 1011.46 1058.06 982.17C1044.88 952.88 1067.01 924.68 1102.76 917.89C1138.52 911.1 1127.65 867.65 1168.61 845.11C1209.57 822.57 1224.02 877.55 1203.2 914.59C1188.22 941.21 1220.63 963.43 1204.44 1001.05C1190.39 1033.71 1138.94 1026.98 1163.2 1071.41C1170.96 1085.6 1168.91 1100.03 1162.55 1113.12C1162.02 1114.2 1161.47 1115.26 1160.9 1116.3H1023.22V1116.29Z" fill="#CAE6FE"/>
<path d="M1078.01 1116.29L1161.99 905.85C1162.73 903.99 1164.85 903.08 1166.71 903.82C1168.57 904.56 1169.48 906.68 1168.73 908.54L1085.83 1116.28H1078.01V1116.29Z" fill="#ABD3F2"/>
<path d="M793.89 1121.38H271.7C260.96 1121.38 252.25 1112.67 252.25 1101.93V339.83C252.25 329.09 260.96 320.38 271.7 320.38H793.89C804.63 320.38 813.34 329.09 813.34 339.83V1101.93C813.34 1112.67 804.63 1121.38 793.89 1121.38Z" fill="#18184B"/>
<path d="M753.74 1074.93H311.84C301.1 1074.93 292.39 1066.22 292.39 1055.48V271C292.39 260.26 301.1 251.55 311.84 251.55H753.74C764.48 251.55 773.19 260.26 773.19 271V1055.48C773.19 1066.22 764.48 1074.93 753.74 1074.93Z" fill="#304E7E"/>
<path d="M366.35 239.69H699.24C705.79 239.69 711.09 245 711.09 251.55H354.49C354.49 245 359.8 239.69 366.34 239.69H366.35Z" fill="#18184B"/>
<path d="M694.21 1042.05H371.37C369.35 1042.05 367.71 1040.41 367.71 1038.39V1034.16C367.71 1032.14 369.35 1030.5 371.37 1030.5H694.21C696.23 1030.5 697.87 1032.14 697.87 1034.16V1038.39C697.87 1040.41 696.23 1042.05 694.21 1042.05Z" fill="#18184B"/>
<path d="M724.13 336.19V540.27C724.13 549.22 716.88 556.46 707.93 556.46H357.65C355.88 556.46 354.18 556.18 352.59 555.66C346.12 553.53 341.46 547.44 341.46 540.27V336.19C341.46 327.26 348.71 320.01 357.65 320.01H707.93C716.88 320.01 724.13 327.26 724.13 336.19V336.19Z" fill="#CAE6FE"/>
<path opacity="0.4" d="M691.14 320.01L454.69 556.47H357.65C355.88 556.47 354.18 556.19 352.59 555.67L588.23 320.02H691.13L691.14 320.01Z" fill="white"/>
<path opacity="0.4" d="M489.89 320.01L341.46 468.43V434.58L456.03 320.01H489.89V320.01Z" fill="white"/>
<path opacity="0.4" d="M724.13 408.32V442.17L609.84 556.46H575.99L724.13 408.32Z" fill="white"/>
<path d="M432.75 612.56H355.48C347.31 612.56 340.69 605.94 340.69 597.77C340.69 589.6 347.31 582.98 355.48 582.98H432.75C440.92 582.98 447.54 589.6 447.54 597.77C447.54 605.94 440.92 612.56 432.75 612.56Z" fill="#CAE6FE"/>
<path d="M571.43 612.56H494.16C485.99 612.56 479.37 605.94 479.37 597.77C479.37 589.6 485.99 582.98 494.16 582.98H571.43C579.6 582.98 586.22 589.6 586.22 597.77C586.22 605.94 579.6 612.56 571.43 612.56Z" fill="#CAE6FE"/>
<path d="M710.1 612.56H632.83C624.66 612.56 618.04 605.94 618.04 597.77C618.04 589.6 624.66 582.98 632.83 582.98H710.1C718.27 582.98 724.89 589.6 724.89 597.77C724.89 605.94 718.27 612.56 710.1 612.56Z" fill="#CAE6FE"/>
<path d="M438.32 706.29H345.46C340.88 706.29 337.17 702.19 337.17 697.12V652.48C337.17 647.42 340.88 643.31 345.46 643.31H438.32C442.9 643.31 446.61 647.41 446.61 652.48V697.12C446.61 702.18 442.9 706.29 438.32 706.29Z" fill="#CAE6FE"/>
<path d="M579.22 706.29H486.36C481.78 706.29 478.07 702.19 478.07 697.12V652.48C478.07 647.42 481.78 643.31 486.36 643.31H579.22C583.8 643.31 587.51 647.41 587.51 652.48V697.12C587.51 702.18 583.8 706.29 579.22 706.29Z" fill="#CAE6FE"/>
<path d="M720.13 706.29H627.27C622.69 706.29 618.98 702.19 618.98 697.12V652.48C618.98 647.42 622.69 643.31 627.27 643.31H720.13C724.71 643.31 728.42 647.41 728.42 652.48V697.12C728.42 702.18 724.71 706.29 720.13 706.29Z" fill="#CAE6FE"/>
<path d="M438.32 805.27H345.46C340.88 805.27 337.17 801.17 337.17 796.1V751.46C337.17 746.4 340.88 742.29 345.46 742.29H438.32C442.9 742.29 446.61 746.39 446.61 751.46V796.1C446.61 801.16 442.9 805.27 438.32 805.27Z" fill="#CAE6FE"/>
<path d="M579.22 805.27H486.36C481.78 805.27 478.07 801.17 478.07 796.1V751.46C478.07 746.4 481.78 742.29 486.36 742.29H579.22C583.8 742.29 587.51 746.39 587.51 751.46V796.1C587.51 801.16 583.8 805.27 579.22 805.27Z" fill="#CAE6FE"/>
<path d="M720.13 805.27H627.27C622.69 805.27 618.98 801.17 618.98 796.1V751.46C618.98 746.4 622.69 742.29 627.27 742.29H720.13C724.71 742.29 728.42 746.39 728.42 751.46V796.1C728.42 801.16 724.71 805.27 720.13 805.27Z" fill="#CAE6FE"/>
<path d="M438.32 904.25H345.46C340.88 904.25 337.17 900.15 337.17 895.08V850.44C337.17 845.38 340.88 841.27 345.46 841.27H438.32C442.9 841.27 446.61 845.37 446.61 850.44V895.08C446.61 900.14 442.9 904.25 438.32 904.25Z" fill="#CAE6FE"/>
<path d="M579.22 904.25H486.36C481.78 904.25 478.07 900.15 478.07 895.08V850.44C478.07 845.38 481.78 841.27 486.36 841.27H579.22C583.8 841.27 587.51 845.37 587.51 850.44V895.08C587.51 900.14 583.8 904.25 579.22 904.25Z" fill="#CAE6FE"/>
<path d="M720.13 904.25H627.27C622.69 904.25 618.98 900.15 618.98 895.08V850.44C618.98 845.38 622.69 841.27 627.27 841.27H720.13C724.71 841.27 728.42 845.37 728.42 850.44V895.08C728.42 900.14 724.71 904.25 720.13 904.25Z" fill="#CAE6FE"/>
<path d="M438.32 1001.29H345.46C340.88 1001.29 337.17 997.19 337.17 992.12V947.48C337.17 942.42 340.88 938.31 345.46 938.31H438.32C442.9 938.31 446.61 942.41 446.61 947.48V992.12C446.61 997.18 442.9 1001.29 438.32 1001.29Z" fill="#007CE6"/>
<path d="M579.22 1001.29H486.36C481.78 1001.29 478.07 997.19 478.07 992.12V947.48C478.07 942.42 481.78 938.31 486.36 938.31H579.22C583.8 938.31 587.51 942.41 587.51 947.48V992.12C587.51 997.18 583.8 1001.29 579.22 1001.29Z" fill="#61B3FF"/>
<path d="M720.13 1001.29H627.27C622.69 1001.29 618.98 997.19 618.98 992.12V947.48C618.98 942.42 622.69 938.31 627.27 938.31H720.13C724.71 938.31 728.42 942.41 728.42 947.48V992.12C728.42 997.18 724.71 1001.29 720.13 1001.29Z" fill="#009EF3"/>
<path d="M1199.45 1018.88L1219.28 1045.62C1216.61 1053.39 1210.17 1060.18 1199.94 1065.98L1176.2 1035.19L1199.45 1018.87V1018.88Z" fill="#FDA893"/>
<path d="M1224.32 1042.16C1229.64 1045.16 1237.71 1054.2 1248.53 1069.29C1202.39 1111.62 1177.76 1132.11 1174.63 1130.76C1169.95 1128.74 1162.33 1123.53 1170.23 1114.25C1178.13 1104.97 1187.32 1061.93 1190.67 1058.83C1192.9 1056.76 1197.18 1056.46 1203.53 1057.93C1212.2 1053.55 1216.36 1037.66 1224.33 1042.16H1224.32Z" fill="#007CE6"/>
<path d="M1200.12 1081.83C1200.06 1081.81 1193.82 1079.49 1189.35 1080.41C1184.16 1081.49 1182.94 1085.57 1182.89 1085.74C1182.66 1086.62 1181.72 1087.15 1180.81 1086.92C1179.9 1086.69 1179.35 1085.8 1179.58 1084.92C1179.65 1084.67 1181.32 1078.71 1188.62 1077.21C1194.1 1076.07 1201.07 1078.67 1201.36 1078.78C1202.24 1079.11 1202.67 1080.06 1202.33 1080.91C1202.15 1081.34 1201.8 1081.67 1201.39 1081.83C1201 1081.98 1200.55 1082 1200.12 1081.84V1081.83Z" fill="white"/>
<path d="M1201.06 1075.16C1201 1075.14 1194.78 1072.82 1190.29 1073.74C1185.1 1074.82 1183.88 1078.9 1183.83 1079.07C1183.6 1079.95 1182.66 1080.48 1181.75 1080.25C1180.84 1080.02 1180.29 1079.13 1180.52 1078.25C1180.59 1078 1182.25 1072.04 1189.56 1070.54C1195.04 1069.41 1202.01 1072 1202.3 1072.11C1203.18 1072.44 1203.61 1073.39 1203.27 1074.24C1203.09 1074.67 1202.74 1075 1202.33 1075.16C1201.94 1075.31 1201.49 1075.33 1201.06 1075.17V1075.16Z" fill="white"/>
<path d="M1197.21 1088.91C1197.15 1088.89 1190.93 1086.57 1186.44 1087.49C1181.25 1088.57 1180.03 1092.65 1179.98 1092.82C1179.75 1093.7 1178.81 1094.23 1177.9 1094C1176.99 1093.77 1176.44 1092.88 1176.67 1092C1176.74 1091.75 1178.4 1085.79 1185.71 1084.28C1191.19 1083.15 1198.16 1085.74 1198.45 1085.85C1199.33 1086.18 1199.76 1087.14 1199.42 1087.98C1199.24 1088.41 1198.89 1088.74 1198.48 1088.9C1198.09 1089.05 1197.64 1089.07 1197.21 1088.91Z" fill="white"/>
<path d="M1078.53 659.16L1092.96 834.74C1108.64 854.33 1122.12 874.97 1133.39 896.67C1142.85 914.88 1167.87 956.62 1208.43 1021.89L1177.69 1045.87L1024.37 865.65L994.36 655.45L1078.52 659.17L1078.53 659.16Z" fill="#16162F"/>
<path d="M1038.79 1063.54L1036.38 1097.58C1029.17 1102.12 1019.7 1103.47 1007.96 1101.62L1010.03 1061.84L1038.79 1063.53V1063.54Z" fill="#FDA893"/>
<path d="M1041.73 1097.32C1043.94 1103.36 1044.04 1117.09 1042.04 1138.51C975.88 1141.71 942 1141.71 940.42 1138.51C938.05 1133.71 935.51 1124.3 948.29 1121.77C961.07 1119.24 998.24 1089.32 1003.08 1088.94C1006.31 1088.69 1009.97 1091.28 1014.07 1096.71C1024.09 1098.8 1038.43 1088.25 1041.74 1097.31L1041.73 1097.32Z" fill="#007CE6"/>
<path d="M994.14 1113.74C994.11 1113.68 991.01 1107.75 987.02 1105.53C982.38 1102.94 978.65 1105.33 978.51 1105.42C977.73 1105.95 976.67 1105.75 976.14 1104.97C975.61 1104.19 975.81 1103.13 976.59 1102.6C976.81 1102.45 982.17 1098.9 988.69 1102.55C993.59 1105.28 997.04 1111.9 997.18 1112.18C997.61 1113.02 997.28 1114.05 996.44 1114.48C996.01 1114.7 995.53 1114.72 995.1 1114.57C994.7 1114.43 994.35 1114.15 994.14 1113.74V1113.74Z" fill="white"/>
<path d="M999.43 1109.15C999.4 1109.09 996.32 1103.17 992.31 1100.94C987.67 1098.35 983.94 1100.74 983.8 1100.84C983.02 1101.37 981.96 1101.17 981.43 1100.39C980.9 1099.61 981.1 1098.55 981.88 1098.02C982.11 1097.87 987.45 1094.32 993.98 1097.97C998.88 1100.7 1002.33 1107.32 1002.47 1107.6C1002.9 1108.44 1002.57 1109.47 1001.73 1109.9C1001.3 1110.12 1000.81 1110.14 1000.39 1110C999.99 1109.86 999.64 1109.57 999.43 1109.17V1109.15Z" fill="white"/>
<path d="M987.08 1117.35C987.05 1117.29 983.97 1111.37 979.96 1109.14C975.32 1106.55 971.59 1108.94 971.45 1109.04C970.67 1109.57 969.61 1109.37 969.08 1108.59C968.55 1107.81 968.75 1106.75 969.53 1106.22C969.76 1106.07 975.1 1102.52 981.63 1106.17C986.53 1108.9 989.98 1115.52 990.12 1115.8C990.55 1116.64 990.22 1117.67 989.38 1118.1C988.95 1118.32 988.47 1118.34 988.04 1118.2C987.64 1118.06 987.29 1117.77 987.08 1117.37V1117.35Z" fill="white"/>
<path d="M1174.24 666.42C1147.71 753.1 1117.95 819.61 1084.96 865.94C1079.14 911.63 1071.89 946.57 1063.2 970.77C1059.38 981.36 1052.22 1018.32 1041.72 1081.67L1035.85 1080.69L1032.37 1080.08L1006.34 1075.71L1023.28 849.07L1084.91 671.2L1159.3 667.19L1163.25 667L1174.23 666.41L1174.24 666.42Z" fill="#2A3554"/>
<path d="M1163.26 667.01L1077.24 865.86C1077.2 866.11 1063.83 920.32 1056.11 958.47C1049.2 992.41 1038.92 1051.56 1035.85 1080.69L1032.37 1080.08C1035.48 1050.67 1045.56 992.51 1052.63 957.76C1060.38 919.57 1073.79 865.29 1073.91 864.73L1159.3 667.2L1163.25 667.01H1163.26Z" fill="#16162F"/>
<path d="M979.93 444.22L937.82 447.88L977.64 369.24C981.84 387.5 982.6 412.49 979.92 444.22H979.93Z" fill="#009EF3"/>
<path d="M1178.01 670.91C1157.04 678.59 1135.89 684.23 1114.56 687.83C1113.57 687.98 1112.61 688.16 1111.65 688.31C1111.14 688.4 1110.6 688.46 1110.09 688.55C1108.95 688.73 1107.78 688.91 1106.67 689.06C1105.38 689.24 1104.12 689.42 1102.83 689.6C1088.28 691.55 1073.64 692.54 1058.91 692.63C1055.91 692.63 1052.97 692.6 1049.97 692.54H1049.4C1048.65 692.51 1047.9 692.51 1047.12 692.48C1046.67 692.45 1046.22 692.45 1045.77 692.42C1028.58 691.88 1011.27 690.02 993.87 686.93C993.48 683.09 992.97 677.39 992.34 670.22C992.22 668.87 992.1 667.49 992.01 666.05C991.11 655.79 990.06 642.98 988.92 628.52C988.83 627.29 988.74 626.03 988.62 624.77C987.87 615.14 987.06 604.85 986.28 594.08C986.19 592.82 986.07 591.59 985.98 590.33C985.17 579.29 984.33 567.83 983.52 556.19C983.01 549.08 982.53 541.91 982.05 534.74C981.57 527.45 981.09 520.16 980.64 512.93C980.55 511.34 980.43 509.78 980.34 508.19C976.08 439.7 973.5 376.64 977.64 369.23C980.52 364.1 987.6 357.74 996 351.23C997.05 350.42 998.07 349.64 999.15 348.83C1002.75 346.13 1032.78 332.93 1036.53 330.26L1069.05 325.13C1069.26 325.25 1101.45 333.08 1101.69 333.17C1103.1 333.83 1104.51 334.46 1105.92 335.15C1118.1 340.82 1130.13 346.85 1137.27 352.37C1138.29 353.15 1139.22 353.93 1140.03 354.71C1140.69 355.34 1141.26 355.94 1141.74 356.54C1142.16 357.08 1142.64 358.01 1143.12 359.33C1148.34 373.37 1155.33 429.71 1161.72 491.15C1161.87 492.62 1161.99 494.09 1162.17 495.56C1162.32 497.03 1162.47 498.5 1162.62 499.97C1162.77 501.47 1162.92 502.94 1163.07 504.41C1163.25 506.36 1163.46 508.31 1163.67 510.29C1163.79 511.61 1163.94 512.99 1164.06 514.31C1164.12 515 1164.18 515.66 1164.27 516.32C1164.33 516.8 1164.36 517.31 1164.42 517.79C1164.69 520.64 1164.96 523.49 1165.23 526.34C1165.5 528.8 1165.74 531.23 1165.98 533.69C1168.29 557.84 1170.45 581.45 1172.28 602.3C1172.82 608.21 1173.33 613.88 1173.78 619.28C1173.87 620.51 1173.99 621.77 1174.08 622.97C1175.97 645.2 1177.38 662.45 1178.01 670.91V670.91Z" fill="#61B3FF"/>
<path d="M1172.28 602.3C1154.14 628.5 1133.68 651 1110.9 669.8L1103.02 613.33C1114.02 591.11 1139.56 542.9 1162.17 495.56C1162.32 497.03 1162.47 498.5 1162.62 499.97C1162.77 501.47 1162.92 502.94 1163.07 504.41C1163.25 506.36 1163.46 508.31 1163.67 510.29C1163.79 511.61 1163.94 512.99 1164.06 514.31C1164.12 515 1164.18 515.66 1164.27 516.32C1164.33 516.8 1164.36 517.31 1164.42 517.79C1164.69 520.64 1164.96 523.49 1165.23 526.34C1165.5 528.8 1165.74 531.23 1165.98 533.69C1168.29 557.84 1170.45 581.45 1172.28 602.3Z" fill="#009EF3"/>
<path d="M1016.51 470.41C1003.29 472.5 995.83 458.34 994.13 427.93L1031.8 426.85C1034.82 453.8 1029.73 468.33 1016.51 470.41Z" fill="#009EF3"/>
<path d="M1134.18 620.71H1134.17C1098.81 623.63 1067.25 610.16 1046.99 598.36C1025.09 585.59 1011.3 571.92 1011.16 571.79C1010.49 571.12 1010.49 570.04 1011.16 569.38C1011.83 568.71 1012.91 568.71 1013.57 569.38C1013.7 569.51 1027.24 582.92 1048.79 595.47C1068.6 607.01 1099.45 620.16 1133.88 617.32C1134.82 617.24 1135.64 617.94 1135.72 618.88C1135.8 619.82 1135.1 620.64 1134.17 620.72L1134.18 620.71Z" fill="#009EF3"/>
<path d="M1098.39 635.92C1067.72 638.59 1035.62 623.77 1034.16 623.08C1033.31 622.68 1032.94 621.66 1033.34 620.81C1033.74 619.96 1034.76 619.59 1035.61 619.99C1035.99 620.17 1073.76 637.59 1105.38 631.52C1106.32 631.33 1107.2 631.95 1107.38 632.87C1107.56 633.8 1106.95 634.69 1106.03 634.87C1103.51 635.35 1100.96 635.7 1098.4 635.92H1098.39Z" fill="#009EF3"/>
<path d="M1050.44 394.88L1050.79 384.91L1059.63 385.38L1060.47 392.68L1082.71 586.5L1064.12 632.94L1043.69 584.64L1050.43 394.88H1050.44Z" fill="white"/>
<path d="M1050.8 384.91L1059.64 385.38L1060.48 392.68L1055.1 399.74L1050.44 394.88L1050.79 384.91H1050.8Z" fill="#EDEDED"/>
<path d="M1069.94 374.08L1054.27 392.33L1041.39 372.59L1050.83 352.73L1069.94 374.08V374.08Z" fill="white"/>
<path d="M1073.76 322.89L1078.99 325.97C1080.43 326.82 1081.84 327.71 1083.18 328.71C1087.22 331.7 1088.75 333.87 1088.28 339.81C1088.21 340.72 1088.08 341.53 1087.91 342.16L1082.46 388.07L1050.83 352.73C1064.12 346.66 1071.76 336.71 1073.76 322.89V322.89Z" fill="#009EF3"/>
<path d="M1050.83 352.73L1037.79 380.17L1029.7 355.75C1026.3 346.18 1028.58 336.92 1036.53 327.96C1038.36 340.67 1043.13 348.93 1050.83 352.73V352.73Z" fill="#009EF3"/>
<path d="M1095.75 238.44C1098.22 266.85 1082.43 287.96 1054.01 290.42C1025.6 292.89 1003.96 273.56 1001.49 245.14C999.02 216.73 1013.98 193.74 1042.39 191.27C1076.47 188.31 1093.27 210.02 1095.74 238.43L1095.75 238.44Z" fill="#1D3062"/>
<path d="M1009.95 218.29C1006.51 215.73 996.23 191.19 1007.6 181.66C1015.18 175.31 1032.32 175.85 1059.02 183.29C1063.96 179.47 1068.28 177.81 1071.98 178.3C1075.68 178.79 1075.96 182.02 1072.82 187.99C1076.89 184.92 1081.54 184.52 1086.75 186.78C1091.96 189.04 1092.28 194.98 1087.69 204.6C1092.31 207.86 1095.45 215.86 1097.1 228.59C1098.75 241.33 1097.71 250.37 1093.99 255.71L1009.95 218.29V218.29Z" fill="#1D3062"/>
<path d="M1090.43 251.23C1095.08 243.76 1099.62 242.75 1104.04 248.21C1110.67 256.4 1104.6 282.83 1089.68 277.81L1090.43 251.23V251.23Z" fill="#FB876B"/>
<path d="M1091.8 269.57C1091.14 269.45 1090.7 268.81 1090.83 268.15C1092.6 258.79 1101.36 254.48 1101.73 254.3C1102.33 254.01 1103.06 254.26 1103.35 254.87C1103.64 255.48 1103.39 256.2 1102.78 256.5C1102.7 256.54 1094.76 260.47 1093.22 268.6C1093.12 269.15 1092.66 269.54 1092.13 269.59C1092.02 269.6 1091.91 269.59 1091.8 269.57V269.57Z" fill="#D45C48"/>
<path d="M1099.01 264.4C1099 264.38 1097.71 262.78 1095.26 261.93C1094.62 261.71 1094.29 261.01 1094.51 260.38C1094.73 259.74 1095.43 259.41 1096.06 259.63C1099.22 260.73 1100.87 262.82 1100.94 262.91C1101.35 263.44 1101.25 264.21 1100.72 264.62C1100.53 264.77 1100.31 264.85 1100.08 264.87C1099.68 264.9 1099.27 264.74 1099.01 264.4V264.4Z" fill="#D45C48"/>
<path d="M1014.4 284.35C1000.57 291.87 990.04 266.89 995.15 257.67C998.56 251.53 1003.2 251.74 1009.07 258.3L1014.39 284.35H1014.4Z" fill="#FB876B"/>
<path d="M1010.57 276.68C1010.04 276.73 1009.52 276.42 1009.32 275.89C1006.4 268.15 997.9 265.64 997.82 265.62C997.17 265.44 996.8 264.76 996.98 264.11C997.16 263.46 997.84 263.09 998.48 263.27C998.88 263.38 1008.24 266.11 1011.6 275.03C1011.84 275.66 1011.52 276.36 1010.89 276.6C1010.78 276.64 1010.67 276.66 1010.57 276.67V276.68Z" fill="#D45C48"/>
<path d="M1001.92 273.4C1001.69 273.42 1001.46 273.38 1001.25 273.26C1000.65 272.95 1000.43 272.21 1000.74 271.61C1000.79 271.51 1002.05 269.17 1004.98 267.54C1005.56 267.21 1006.31 267.42 1006.64 268.01C1006.97 268.6 1006.76 269.34 1006.17 269.67C1003.91 270.93 1002.91 272.73 1002.9 272.75C1002.7 273.13 1002.33 273.36 1001.93 273.4H1001.92Z" fill="#D45C48"/>
<path d="M1072.04 303.12L1074.34 329.58C1068.2 344.23 1061.69 351.88 1054.8 352.53C1041.84 353.75 1035.81 346.29 1036.72 330.14L1034.5 304.57L1072.04 303.12Z" fill="#FBA691"/>
<path d="M1072.04 303.12L1073.47 319.58C1055.52 323.84 1043.07 322.99 1035.48 315.92L1034.49 304.58L1072.03 303.13L1072.04 303.12Z" fill="#FB876B"/>
<path d="M1016.61 213.68C1031.54 206.4 1054.6 199.66 1077.93 210.33C1086.54 214.27 1092.44 222.44 1093.45 231.86C1094.42 241.09 1095.19 254.05 1093.97 267.06C1092.17 286.21 1086.07 305.41 1069.95 312.8C1033.45 329.53 1017.18 298.39 1010.16 280.02C1009.38 277.98 1008.65 275.7 1007.96 273.26C1005.2 263.49 1003.17 251.15 1001.84 241.25C1000.3 229.84 1006.25 218.72 1016.61 213.67V213.68Z" fill="#FBA691"/>
<path d="M1066.47 249.85C1068.21 249.7 1069.8 251.79 1070.04 254.52C1070.28 257.25 1069.06 259.58 1067.33 259.73C1065.59 259.88 1064 257.79 1063.76 255.06C1063.52 252.33 1064.74 250 1066.47 249.85Z" fill="#1D3062"/>
<path d="M1030.02 253.01C1031.75 252.86 1033.35 254.95 1033.59 257.68C1033.83 260.41 1032.61 262.74 1030.88 262.89C1029.15 263.04 1027.55 260.95 1027.31 258.22C1027.07 255.49 1028.29 253.16 1030.02 253.01Z" fill="#1D3062"/>
<path d="M1020.44 241.74C1026.82 238.55 1032.65 237.84 1037.93 239.6L1037.53 243.91C1030.01 243.93 1024.43 244.86 1020.8 246.71C1020.15 245.12 1019.94 243.48 1020.43 241.74H1020.44Z" fill="#1D3062"/>
<path d="M1078.68 241.68C1074.78 240.48 1069.13 240.52 1061.72 241.8L1060.59 237.62C1065.49 234.98 1071.35 234.68 1078.19 236.72C1078.98 238.34 1079.05 240 1078.69 241.68H1078.68Z" fill="#1D3062"/>
<path d="M1047.88 277.07C1047.18 276.62 1046.33 275.72 1046.21 274.03C1045.9 269.54 1047.54 255.54 1047.61 254.95C1047.69 254.28 1048.29 253.8 1048.96 253.88C1049.63 253.96 1050.11 254.56 1050.03 255.23C1050.01 255.37 1048.35 269.59 1048.64 273.86C1048.69 274.6 1048.98 274.87 1049.2 275.02C1050.32 275.75 1052.99 275.14 1054.1 274.73C1054.73 274.5 1055.43 274.82 1055.66 275.45C1055.89 276.08 1055.57 276.78 1054.94 277.01C1054.62 277.13 1052.55 277.86 1050.5 277.78C1049.57 277.75 1048.64 277.55 1047.87 277.06L1047.88 277.07Z" fill="#FB876B"/>
<path d="M1067.75 283.64C1067.19 288.72 1064.69 298.2 1053.58 299.16C1042.44 300.13 1038.58 292 1037.01 286.31L1067.75 283.64V283.64Z" fill="white"/>
<path d="M1055.16 306.61C1052.02 306.88 1049.21 305.52 1049.1 305.47C1048.5 305.17 1048.25 304.44 1048.55 303.84C1048.85 303.24 1049.58 302.99 1050.18 303.28C1050.2 303.29 1052.51 304.4 1054.96 304.18C1057.21 303.98 1059.25 302.51 1059.27 302.49C1059.81 302.09 1060.57 302.2 1060.98 302.74C1061.38 303.28 1061.27 304.04 1060.73 304.45C1060.63 304.53 1058.14 306.35 1055.18 306.61H1055.16Z" fill="#FB876B"/>
<path d="M1001.84 241.26C1000.3 229.85 1006.25 218.73 1016.61 213.68C1031.54 206.4 1054.6 199.66 1077.93 210.33C1086.54 214.27 1092.44 222.44 1093.45 231.86C1094.02 237.24 1094.51 243.89 1094.59 251.08L1090 251.48C1090.03 248.75 1089.89 246.24 1089.4 244.59C1087.71 238.83 1080.14 233.17 1081.27 227.37C1082.39 221.56 1084.17 214.03 1079.68 213.4C1075.19 212.76 1057.06 214.18 1045.82 215.52C1034.65 216.86 1018.34 216.09 1012.31 221.71C1006.28 227.32 1014.67 231.08 1011.78 241.5C1010.51 246.09 1009.08 252.95 1010.17 258.42L1004.67 258.9C1003.52 252.83 1002.58 246.68 1001.84 241.26V241.26Z" fill="#1D3062"/>
<path fill-rule="evenodd" clip-rule="evenodd" d="M1031.63 275.36C1023.84 276.04 1016.96 270.25 1016.28 262.46C1015.6 254.67 1021.39 247.79 1029.18 247.11C1036.97 246.43 1043.86 252.22 1044.53 260.01C1045.21 267.8 1039.42 274.68 1031.63 275.36ZM1029.37 249.31C1022.8 249.88 1017.91 255.69 1018.48 262.27C1019.05 268.84 1024.86 273.73 1031.44 273.16C1038.01 272.59 1042.9 266.78 1042.33 260.2C1041.76 253.63 1035.95 248.74 1029.37 249.31Z" fill="white"/>
<path fill-rule="evenodd" clip-rule="evenodd" d="M1070.24 272C1062.45 272.68 1055.56 266.89 1054.89 259.1C1054.21 251.31 1060 244.43 1067.79 243.75C1075.58 243.07 1082.46 248.86 1083.14 256.65C1083.82 264.44 1078.03 271.32 1070.24 272ZM1067.98 245.95C1061.41 246.52 1056.52 252.33 1057.09 258.91C1057.66 265.48 1063.47 270.37 1070.05 269.8C1076.62 269.23 1081.51 263.42 1080.94 256.84C1080.37 250.27 1074.56 245.38 1067.98 245.95Z" fill="white"/>
<path d="M1018.27 257.7C1017.99 257.72 1017.7 257.64 1017.47 257.45C1017.4 257.39 1010.44 251.73 1002.2 254.42C1001.62 254.61 1001 254.29 1000.81 253.71C1000.62 253.13 1000.94 252.51 1001.52 252.32C1010.95 249.24 1018.57 255.49 1018.9 255.75C1019.37 256.14 1019.43 256.84 1019.04 257.31C1018.84 257.54 1018.57 257.68 1018.29 257.7H1018.27Z" fill="white"/>
<path d="M1080.61 252.29C1080.25 252.32 1079.88 252.18 1079.64 251.87C1079.26 251.39 1079.35 250.7 1079.83 250.32C1080.23 250.01 1089.66 242.69 1098.29 243.35C1098.9 243.4 1099.35 243.93 1099.31 244.54C1099.26 245.15 1098.74 245.6 1098.12 245.56C1090.36 244.96 1081.29 251.99 1081.2 252.06C1081.03 252.2 1080.82 252.27 1080.62 252.29H1080.61Z" fill="white"/>
<path d="M1055.39 255.87C1055.36 255.84 1052.44 252.53 1049 252.83C1045.6 253.13 1043.54 256.86 1043.52 256.9L1041.57 255.86C1041.68 255.66 1044.2 251.03 1048.81 250.63C1053.39 250.23 1056.92 254.26 1057.07 254.43L1055.4 255.87H1055.39Z" fill="white"/>
<path d="M1141.54 438.28L1125.61 656C1124.89 665.79 1116.37 673.15 1106.58 672.43L736.84 645.38C732.43 645.06 728.51 643.14 725.6 640.26C722.06 636.73 720.01 631.73 720.41 626.36L736.34 408.64C737.06 398.85 745.57 391.49 755.36 392.21L1125.1 419.26C1134.89 419.98 1142.25 428.49 1141.54 438.28Z" fill="#007CE6"/>
<path d="M1139.56 465.32L1136.03 513.58L730.83 483.94L734.36 435.68L1139.56 465.32Z" fill="#1D3062"/>
<path d="M1097.43 638.88L1002.12 631.91L1004.56 598.52L1099.87 605.49L1097.43 638.88Z" fill="#61B3FF"/>
<path d="M778.99 545.01L752.28 543.06C751.11 542.97 750.22 541.95 750.31 540.78L751.33 526.82C751.42 525.65 752.44 524.76 753.61 524.85L780.32 526.8C781.49 526.89 782.38 527.91 782.29 529.08L781.27 543.04C781.18 544.21 780.16 545.1 778.99 545.01Z" fill="#61B3FF"/>
<path d="M833.53 549L806.82 547.05C805.65 546.96 804.77 545.94 804.85 544.77L805.87 530.81C805.96 529.64 806.98 528.75 808.15 528.84L834.86 530.79C836.03 530.88 836.92 531.9 836.83 533.07L835.81 547.03C835.72 548.2 834.7 549.09 833.53 549Z" fill="#61B3FF"/>
<path d="M888.06 552.99L861.35 551.04C860.18 550.95 859.29 549.93 859.38 548.76L860.4 534.8C860.49 533.63 861.51 532.74 862.68 532.83L889.39 534.78C890.56 534.87 891.44 535.89 891.36 537.06L890.34 551.02C890.25 552.19 889.23 553.08 888.06 552.99Z" fill="#61B3FF"/>
<path d="M942.6 556.97L915.89 555.02C914.72 554.93 913.83 553.91 913.92 552.74L914.94 538.78C915.03 537.61 916.05 536.72 917.22 536.81L943.93 538.76C945.1 538.85 945.99 539.87 945.9 541.04L944.88 555C944.79 556.17 943.77 557.06 942.6 556.97Z" fill="#61B3FF"/>
<path d="M997.13 560.96L970.42 559.01C969.25 558.92 968.36 557.9 968.45 556.73L969.47 542.77C969.56 541.6 970.58 540.71 971.75 540.8L998.46 542.75C999.63 542.84 1000.51 543.86 1000.43 545.03L999.41 558.99C999.32 560.16 998.3 561.05 997.13 560.96Z" fill="#61B3FF"/>
<path d="M1051.67 564.95L1024.96 563C1023.79 562.91 1022.9 561.89 1022.99 560.72L1024.01 546.76C1024.1 545.59 1025.12 544.7 1026.29 544.79L1053 546.74C1054.17 546.83 1055.06 547.85 1054.97 549.02L1053.95 562.98C1053.86 564.15 1052.84 565.04 1051.67 564.95Z" fill="#61B3FF"/>
<path d="M1106.2 568.94L1079.49 566.99C1078.32 566.9 1077.43 565.88 1077.52 564.71L1078.54 550.75C1078.63 549.58 1079.65 548.69 1080.82 548.78L1107.53 550.73C1108.7 550.82 1109.58 551.84 1109.5 553.01L1108.48 566.97C1108.39 568.14 1107.37 569.03 1106.2 568.94Z" fill="#61B3FF"/>
<path d="M1141.43 439.75L1140.75 449L735.55 419.36L736.23 410.11L1141.43 439.75V439.75Z" fill="#61B3FF"/>
<path d="M792.29 621.34L751.59 618.36C747.77 618.08 744.9 614.76 745.18 610.94L748.16 570.24C748.44 566.42 751.76 563.55 755.58 563.83L796.28 566.81C800.1 567.09 802.97 570.41 802.69 574.23L799.71 614.93C799.43 618.75 796.11 621.62 792.29 621.34Z" fill="#61B3FF"/>
<path d="M984.87 621.41L818.15 609.21C815.44 609.01 813.4 606.65 813.6 603.94L813.98 598.74C814.18 596.03 816.54 593.99 819.25 594.19L985.97 606.39C988.68 606.59 990.72 608.95 990.52 611.66L990.14 616.86C989.94 619.57 987.58 621.61 984.87 621.41V621.41Z" fill="#61B3FF"/>
<path opacity="0.2" d="M992.71 409.57L725.61 640.26C722.07 636.73 720.02 631.73 720.42 626.36L726.01 549.98L896.71 402.55L992.72 409.57H992.71Z" fill="white"/>
<path opacity="0.2" d="M1124.35 419.2L852.66 653.85L805.69 650.41L1077.38 415.76L1124.35 419.2Z" fill="white"/>
<path d="M874.03 646.72L869.23 652.29C860.06 651.62 855.05 649.37 854.18 645.53C853.71 643.42 854.21 641.12 855.91 640.16L874.02 646.72H874.03Z" fill="#FB876B"/>
<path d="M878.93 677.64C872.18 678.5 865.43 675.2 862.37 669.12C860.74 665.89 860.04 661.75 861.59 656.61C866.24 641.18 874.87 630.32 880.83 633.53C883.07 634.74 882.63 643.86 879.57 650.45C882.5 645.7 884.67 640.57 886.09 635.07C888.21 626.82 898.43 630.82 895.83 641.21C894.1 648.14 892.85 652.11 892.1 653.12C895.27 647.86 897.07 643.52 897.51 640.09C898.17 634.95 906.24 636.37 904.48 646.4C903.93 649.5 903.33 652.82 902.68 656.37C904.24 651.96 905.43 648.61 906.26 646.33C907.5 642.9 912.23 640.77 912.91 648.28C913.45 654.19 913.8 670.27 905.85 672.91C900.44 674.71 886.99 676.6 878.94 677.62L878.93 677.64Z" fill="#FBA691"/>
<path d="M1016.64 667.35C1016.29 661.97 1027.96 662.31 1033.69 659.13C1039.41 655.94 1052.75 645.36 1050.23 642.64C1047.71 639.92 1043.86 637.91 1041.3 636.2C1038.74 634.49 1036.82 629.52 1039.62 628.94C1042.43 628.37 1051.43 632.38 1055.11 635.22C1056.41 636.24 1058.83 639.58 1060.41 641.32C1062.89 644.08 1065.94 645.86 1069.28 646.21C1072.37 643.02 1075.7 639.41 1077.86 637.69C1082.64 637.98 1098.89 649.32 1095.15 658.74C1092.37 662.56 1088.88 666.65 1084.68 671.01C1062.14 691.49 1048.91 690.49 1043.47 690.37C1039.84 690.3 1037.67 688.32 1036.96 684.43C1033.63 683.63 1031.95 681.63 1031.93 678.42C1026.76 677.11 1024.55 674.72 1025.28 671.24C1019.76 672.22 1016.88 670.92 1016.65 667.34L1016.64 667.35Z" fill="#FBA691"/>
<path d="M1183.02 564.14C1169.86 604.1 1141.69 635.87 1098.51 659.45L1076.1 639.65C1106.38 615.77 1128.46 586.06 1142.34 550.52C1142.49 550.13 1142.67 549.71 1142.82 549.29L1142.55 547.46L1119.57 398.09C1120.95 386.65 1128.42 372.85 1141.98 356.69C1175.36 409.97 1189.04 479.12 1183.02 564.14Z" fill="#61B3FF"/>
<path d="M1161.03 556.58C1160.76 557.06 1160.25 557.3 1159.74 557.3C1159.47 557.3 1159.23 557.24 1158.99 557.12C1154.52 554.54 1147.23 552.05 1142.34 550.52C1142.49 550.13 1142.67 549.71 1142.82 549.29L1142.55 547.46C1147.56 548.96 1155.54 551.63 1160.49 554.51C1161.21 554.93 1161.45 555.86 1161.03 556.58Z" fill="#009EF3"/>
</svg>
