<svg xmlns="http://www.w3.org/2000/svg" xmlns:xlink="http://www.w3.org/1999/xlink" width="453.899" height="345.523" viewBox="0 0 453.899 345.523">
  <defs>
    <linearGradient id="linear-gradient" x1="0.589" y1="0.368" x2="-1.028" y2="2.35" gradientUnits="objectBoundingBox">
      <stop offset="0" stop-color="#136acd"/>
      <stop offset="0.872" stop-color="#0a3568"/>
      <stop offset="1" stop-color="#0a3567"/>
    </linearGradient>
    <linearGradient id="linear-gradient-2" x1="0.5" x2="0.5" y2="1" gradientUnits="objectBoundingBox">
      <stop offset="0" stop-color="#136acd"/>
      <stop offset="1" stop-color="#0a3567"/>
    </linearGradient>
  </defs>
  <g id="Group_3739" data-name="Group 3739" transform="translate(-47 -3441.761)">
    <path id="Path_3068" data-name="Path 3068" d="M14358.509,11623.761s55.664,133.592-51.952,148.436-132.355,64.323-143.488,112.564-76.691,105.143-197.914-21.028,54.426-239.972,54.426-239.972Z" transform="translate(-13872.001 -8182)" fill="url(#linear-gradient)"/>
    <g id="Group_3662" data-name="Group 3662" transform="translate(-202.667 2869.74)">
      <path id="Path_3012" data-name="Path 3012" d="M366,1404.031c1.6-4.34,6.933-2.879,9.71-1.492a28.293,28.293,0,0,0,12.473,2.378c-4.71,4.934-9.558,7.39-13.971,7.233-6.162-.218-9.6-4.333-8.211-8.119" transform="translate(-83.247 -541.455)" fill="#28c195" fill-rule="evenodd"/>
      <path id="Path_3013" data-name="Path 3013" d="M251.451,1299.767c2.669,3.257,8.875,2.9,14.284-2.432,5.494-5.417,11.9-6.92,22.095-7.2-8.549-7.012-22.466-9.022-31.288-4.239-6.609,3.584-8.767,9.392-5.09,13.875" transform="translate(0 -456.897)" fill="#28c195" fill-rule="evenodd"/>
      <path id="Path_3014" data-name="Path 3014" d="M312.2,1335.263a.788.788,0,1,1,.2-1.562c7.772,1.009,13.263-1.449,19.149-4.083,5.661-2.534,11.68-5.226,20.371-5.32-9.019-2.886-17.232-7.266-27.482-14.438-7.544-5.28-14.726-7.886-21.505-8.349a34.785,34.785,0,0,0-20.717,5.435.787.787,0,1,1-.818-1.345,36.326,36.326,0,0,1,21.641-5.664c7.055.482,14.506,3.179,22.3,8.636,13.408,9.382,23.3,13.92,36.257,16.6q.922.167,1.878.37c10.391,1.966,22.854,2.88,40.551,4.177,9.169.672,19.739,1.445,32.153,2.522a.787.787,0,0,1-.136,1.568c-12.395-1.074-22.964-1.849-32.131-2.52-19.028-1.394-32.053-2.347-42.959-4.631-13.614-2.377-21.49,1.146-28.761,4.4-6.095,2.728-11.781,5.272-20,4.206" transform="translate(-22.499 -468.79)" fill="#004b3c"/>
      <path id="Path_3015" data-name="Path 3015" d="M458.644,1055.648c-1.077,4.5,4.174,6.237,7.255,6.62a28.3,28.3,0,0,1,11.7,4.93c-1.186-6.716-3.858-11.445-7.619-13.759-5.251-3.233-10.4-1.714-11.337,2.209" transform="translate(-149.83 -290.733)" fill="#28c195" fill-rule="evenodd"/>
      <path id="Path_3016" data-name="Path 3016" d="M491.706,1072.83a.786.786,0,0,1,.987-1.223,57.809,57.809,0,0,1,12.258,13.637,77.277,77.277,0,0,1,7.691,15.735c7.952,21.794,20.771,36.368,33.3,50.614,6.774,7.7,13.464,15.306,19.283,23.921a.789.789,0,1,1-1.31.88c-5.763-8.533-12.422-16.1-19.161-23.763-12.624-14.353-25.538-29.034-33.593-51.109a75.692,75.692,0,0,0-7.538-15.418,56.263,56.263,0,0,0-11.92-13.274" transform="translate(-173.443 -304.904)" fill="#004b3c"/>
      <path id="Path_3017" data-name="Path 3017" d="M492.259,1230.048c-8.233,22.083-59.879,21.69-78.808,7.64-21.358-15.852-18.857-28.4-33.977-41.541-12.871-11.188-30.662-11.485-38.651-26.549-5.5-10.361-1.747-18.269,9.976-18.76,16.184-.677,33.617,14.139,49.317,18.125,16.955,4.3,30.493.49,47.005,6.262,19.013,6.645,53.531,32.309,45.139,54.823" transform="translate(-63.617 -361.858)" fill="#ff6e89" fill-rule="evenodd"/>
      <path id="Path_3018" data-name="Path 3018" d="M529.4,1243.127c-.042.111-.091.218-.135.329-.534-.165-8.228-2.551-20.569-7.137L477.887,1253.1l-.339-.621,30.268-16.49c-10.363-3.871-23.846-9.241-39.051-16.106l-28.647,12.847-.29-.648,28.077-12.59c-14.289-6.476-30.057-14.26-46.152-23.342l-18.81,1.656-.061-.7,17.786-1.567c-10.165-5.768-20.45-12.054-30.563-18.857l.394-.591c6.423,4.322,12.914,8.43,19.4,12.333l-8.646-19.081.646-.294,9.069,20.019c12.122,7.252,24.209,13.775,35.778,19.565l-9.53-20.378.642-.3,9.908,21.188c15.378,7.66,29.8,14.017,42.129,19.067l-16.7-36.519.643-.3,17.016,37.206c22.253,9.076,37.437,13.813,38.58,14.167l.093-.01c-.044.123-.081.247-.127.372" transform="translate(-100.758 -374.937)" fill="#884222" fill-rule="evenodd"/>
      <path id="Path_3019" data-name="Path 3019" d="M666.892,1149.012c16.813-31.078,3.527-56.168-17.611-69.83-22.105-14.288-56.847-18.923-66.307-42.138-12.982,59.607,22.932,122.751,83.918,111.968" transform="translate(-237.238 -280.231)" fill="#28c195" fill-rule="evenodd"/>
      <path id="Path_3020" data-name="Path 3020" d="M581.494,1071.02l13.5,6.77c7.621,14.98,17.986,27.816,28.494,38.314l-27.255.67q.311.5.628.984l27.612-.68a206.523,206.523,0,0,0,42.377,32.062c.271-.045.54-.081.812-.129.08-.147.154-.294.233-.441a183.221,183.221,0,0,1-22.714-14.941l14.4-46.96q-.4-.386-.815-.763l-14.432,47.077a191.628,191.628,0,0,1-33.268-32.236l11.15-34.9-.926-.389-10.97,34.341c-13.029-16.645-23.722-37.246-25.948-61.338-.217-.464-.428-.934-.624-1.414-.125.574-.237,1.15-.353,1.724a107.731,107.731,0,0,0,10.857,37.529l-12.844-6.441q.042.582.09,1.164" transform="translate(-238.009 -280.231)" fill="#669e78"/>
      <path id="Path_3021" data-name="Path 3021" d="M565.108,1360.782c-15.986-27.488-41.5-29.065-61.91-19.253-21.35,10.261-41.214,34.748-63.488,31.115,39.7,37.934,105.063,40,125.4-11.863" transform="translate(-136.348 -494.746)" fill="#248782" fill-rule="evenodd"/>
      <path id="Path_3022" data-name="Path 3022" d="M464.756,1394.625l11.536-7.183c15.085,1.181,29.81-.75,42.806-3.889l-12.275,21.231c.35-.005.7-.011,1.051-.02l12.435-21.509a185.924,185.924,0,0,0,44.518-17.479c.093-.23.191-.452.281-.684-.076-.131-.153-.257-.23-.386a164.851,164.851,0,0,1-22.136,10.421l-29.322-33.085q-.485.129-.969.267l29.395,33.167a172.491,172.491,0,0,1-40.376,10.405l-21.582-24.936-.734.528,21.235,24.535c-18.9,2.188-39.746.728-59.3-8.869-.458-.051-.918-.11-1.378-.185.383.365.772.721,1.158,1.079a97.057,97.057,0,0,0,33.927,9.279l-10.976,6.835q.467.24.937.477" transform="translate(-136.348 -499.056)" fill="#8cca9e"/>
      <path id="Path_3025" data-name="Path 3025" d="M737.848,658.921V906.535c0,5.877,6.2,9.077,15.54,8.524l80.661-4.776a11.415,11.415,0,0,0,10.644-11.3V679.365a13.339,13.339,0,0,0-9.785-12.625l-80.666-19.6c-12.721-3.091-16.394,4.924-16.394,11.78" transform="translate(-350.251)" fill="#263347" fill-rule="evenodd"/>
      <path id="Path_3026" data-name="Path 3026" d="M857.027,693.291l-80.665-19.225a4.754,4.754,0,0,0-6.093,4.873V920.6a6.056,6.056,0,0,0,6.094,6.108l80.663-3.874a6.482,6.482,0,0,0,6.093-6.349V701.069a8.388,8.388,0,0,0-6.092-7.778" transform="translate(-373.512 -19.69)" fill="#f7f7f7" fill-rule="evenodd"/>
      <path id="Path_3027" data-name="Path 3027" d="M929.333,831.214c3.42.58,6.848,1.141,10.272,1.733s6.853,1.2,10.284,1.778a2.505,2.505,0,0,1,2.017,2.391v4.608a1.7,1.7,0,0,1-2.017,1.733c-3.43-.546-6.864-1.087-10.284-1.646s-6.852-1.1-10.272-1.645a2.546,2.546,0,0,1-2.017-2.458v-4.739a1.691,1.691,0,0,1,2.017-1.755" transform="translate(-486.188 -132.536)" fill="#dbecff" fill-rule="evenodd"/>
      <path id="Path_3028" data-name="Path 3028" d="M929.333,780.107c5.908,1.106,11.832,2.183,17.743,3.291s11.839,2.207,17.756,3.334a2.538,2.538,0,0,1,2.017,2.369v4.541a1.658,1.658,0,0,1-2.017,1.668c-5.919-1.052-11.844-2.117-17.756-3.159s-11.836-2.064-17.743-3.116a2.581,2.581,0,0,1-2.017-2.457v-4.761a1.653,1.653,0,0,1,2.017-1.711" transform="translate(-486.188 -95.864)" fill="#a8d5ff" fill-rule="evenodd"/>
      <path id="Path_3029" data-name="Path 3029" d="M814.109,745.178c3.54.673,7.093,1.372,10.634,2.04s7.1,1.332,10.641,2.018A4.758,4.758,0,0,1,839,753.757v29.989a3.117,3.117,0,0,1-3.612,3.247c-3.545-.534-7.1-1.054-10.641-1.579s-7.1-1.046-10.634-1.58a4.6,4.6,0,0,1-3.6-4.5V748.4a3.032,3.032,0,0,1,3.6-3.225" transform="translate(-402.379 -70.786)" fill="#ff6e89" fill-rule="evenodd"/>
      <path id="Path_3030" data-name="Path 3030" d="M814.109,957.631c3.539.434,7.095.9,10.634,1.338s7.1.891,10.641,1.339A4.349,4.349,0,0,1,839,964.564v29.989a3.361,3.361,0,0,1-3.612,3.489c-3.545-.308-7.1-.614-10.641-.9s-7.1-.592-10.634-.9a4.211,4.211,0,0,1-3.6-4.234V961.053a3.235,3.235,0,0,1,3.6-3.422" transform="translate(-402.379 -223.237)" fill="#fc1e4f" fill-rule="evenodd"/>
      <path id="Path_3031" data-name="Path 3031" d="M814.109,1169.894c3.54.209,7.094.438,10.634.657s7.1.427,10.641.637a4.024,4.024,0,0,1,3.612,4.036v29.989a3.618,3.618,0,0,1-3.612,3.708c-3.545-.069-7.1-.132-10.641-.2s-7.094-.137-10.634-.22a3.883,3.883,0,0,1-3.6-3.992v-30.955a3.491,3.491,0,0,1,3.6-3.663" transform="translate(-402.379 -375.542)" fill="#28c195" fill-rule="evenodd"/>
      <path id="Path_3032" data-name="Path 3032" d="M814.109,1381.954c3.538-.014,7.094,0,10.634-.022s7.094-.03,10.641-.043a3.715,3.715,0,0,1,3.612,3.794v29.99a3.9,3.9,0,0,1-3.612,3.927c-3.547.167-7.1.319-10.641.482s-7.1.329-10.634.483a3.582,3.582,0,0,1-3.6-3.751v-30.933a3.8,3.8,0,0,1,3.6-3.927" transform="translate(-402.379 -527.645)" fill="#ff6e89" fill-rule="evenodd"/>
      <path id="Path_3033" data-name="Path 3033" d="M929.333,985.15q8.866,1.079,17.743,2.149c5.914.725,11.839,1.433,17.756,2.172a2.36,2.36,0,0,1,2.017,2.259v4.542a1.77,1.77,0,0,1-2.017,1.778q-8.877-1-17.756-2c-5.911-.669-11.833-1.311-17.743-1.976a2.362,2.362,0,0,1-2.017-2.324v-4.739a1.8,1.8,0,0,1,2.017-1.864" transform="translate(-486.188 -242.989)" fill="#a8d5ff" fill-rule="evenodd"/>
      <path id="Path_3034" data-name="Path 3034" d="M929.333,1190.245c5.909.312,11.83.668,17.743,1.008s11.838.678,17.756,1.01a2.156,2.156,0,0,1,2.017,2.128v4.52a1.931,1.931,0,0,1-2.017,1.952c-5.919-.276-11.845-.583-17.756-.856s-11.833-.535-17.743-.811a2.2,2.2,0,0,1-2.017-2.215v-4.739a1.937,1.937,0,0,1,2.017-2" transform="translate(-486.188 -390.145)" fill="#a8d5ff" fill-rule="evenodd"/>
      <path id="Path_3035" data-name="Path 3035" d="M929.333,1394.649q8.866-.08,17.743-.131c5.91-.043,11.838-.077,17.756-.132a1.976,1.976,0,0,1,2.017,1.976v4.519a2.089,2.089,0,0,1-2.017,2.084q-8.877.167-17.756.307t-17.743.307a2.034,2.034,0,0,1-2.017-2.085v-4.739a2.074,2.074,0,0,1,2.017-2.106" transform="translate(-486.188 -536.61)" fill="#a8d5ff" fill-rule="evenodd"/>
      <path id="Path_3036" data-name="Path 3036" d="M929.333,1036.329c3.423.346,6.849.714,10.272,1.075s6.854.749,10.284,1.1a2.305,2.305,0,0,1,2.017,2.259v4.608a1.836,1.836,0,0,1-2.017,1.865c-3.432-.314-6.862-.66-10.284-.988s-6.85-.657-10.272-.987a2.329,2.329,0,0,1-2.017-2.3v-4.739a1.822,1.822,0,0,1,2.017-1.886" transform="translate(-486.188 -279.711)" fill="#dbecff" fill-rule="evenodd"/>
      <path id="Path_3037" data-name="Path 3037" d="M929.333,1241.42c3.422.131,6.848.251,10.272.394s6.854.291,10.284.439a2.144,2.144,0,0,1,2.017,2.105v4.63a1.98,1.98,0,0,1-2.017,2c-3.43-.1-6.862-.221-10.284-.33s-6.85-.191-10.272-.307a2.149,2.149,0,0,1-2.017-2.172v-4.761a1.96,1.96,0,0,1,2.017-2" transform="translate(-486.188 -426.862)" fill="#dbecff" fill-rule="evenodd"/>
      <path id="Path_3038" data-name="Path 3038" d="M929.333,1445.205c3.423-.065,6.848-.186,10.272-.263s6.855-.175,10.284-.242a1.987,1.987,0,0,1,2.017,2v4.607a2.1,2.1,0,0,1-2.017,2.106c-3.43.1-6.862.242-10.284.35s-6.849.258-10.272.373a1.987,1.987,0,0,1-2.017-2.041v-4.739a2.12,2.12,0,0,1,2.017-2.149" transform="translate(-486.188 -572.709)" fill="#dbecff" fill-rule="evenodd"/>
      <path id="Path_3039" data-name="Path 3039" d="M781.193,664.287q8.707,2.64,17.438,5.145c7.45,7.176,14.861,14.216,22.381,20.946,7.418,6.64,14.974,12.972,22.49,19.158q-8.773-1.6-17.561-3.312c-7.492-6.5-15.019-13.127-22.435-20.074-7.5-7.029-14.887-14.376-22.314-21.863" transform="translate(-381.35 -12.792)" fill="#2f80ed" fill-rule="evenodd"/>
      <path id="Path_3040" data-name="Path 3040" d="M842.914,682.5q8.725,2.461,17.475,4.8c7.471,6.873,14.889,13.617,22.422,20.029,7.451,6.344,15.019,12.366,22.557,18.249q-8.791-1.429-17.583-2.98c-7.517-6.186-15.072-12.518-22.491-19.158-7.519-6.73-14.931-13.77-22.381-20.946" transform="translate(-425.632 -25.857)" fill="#5fa9ff" fill-rule="evenodd"/>
      <path id="Path_3041" data-name="Path 3041" d="M904.763,699.5q8.741,2.295,17.5,4.464c7.481,6.578,14.925,13.011,22.476,19.122,7.464,6.041,15.052,11.76,22.6,17.342q-8.809-1.266-17.591-2.649c-7.538-5.883-15.107-11.9-22.558-18.249-7.532-6.412-14.95-13.156-22.422-20.029" transform="translate(-470.007 -38.059)" fill="#2f80ed" fill-rule="evenodd"/>
      <path id="Path_3042" data-name="Path 3042" d="M966.686,715.3q8.76,2.129,17.506,4.14c7.5,6.269,14.967,12.4,22.529,18.206,7.485,5.743,15.1,11.147,22.654,16.425q-8.808-1.088-17.614-2.307c-7.547-5.582-15.135-11.3-22.6-17.342-7.551-6.112-14.995-12.544-22.476-19.122" transform="translate(-514.434 -49.393)" fill="#5fa9ff" fill-rule="evenodd"/>
      <path id="Path_3043" data-name="Path 3043" d="M1028.645,729.954q8.777,1.953,17.539,3.794c7.514,5.965,14.984,11.812,22.571,17.3,7.5,5.432,15.128,10.54,22.721,15.494q-8.824-.921-17.649-1.961c-7.558-5.278-15.169-10.682-22.655-16.425-7.562-5.8-15.026-11.938-22.529-18.206" transform="translate(-558.887 -59.905)" fill="#2f80ed" fill-rule="evenodd"/>
      <path id="Path_3044" data-name="Path 3044" d="M939.576,812.712l17.561,3.313c-2.639,12.3-15.884,8.4-17.561-3.313" transform="translate(-494.984 -119.281)" fill="#5fa9ff" fill-rule="evenodd"/>
      <path id="Path_3045" data-name="Path 3045" d="M1001.73,824.439l17.583,2.979c-2.639,12.3-15.906,8.733-17.583-2.979" transform="translate(-539.577 -127.695)" fill="#136acd" fill-rule="evenodd"/>
      <path id="Path_3046" data-name="Path 3046" d="M1063.961,834.983l17.591,2.649c-2.638,12.3-15.914,9.062-17.591-2.649" transform="translate(-584.225 -135.26)" fill="#5fa9ff" fill-rule="evenodd"/>
      <path id="Path_3047" data-name="Path 3047" d="M1126.223,844.357l17.614,2.308c-2.638,12.3-15.937,9.4-17.614-2.308" transform="translate(-628.896 -141.985)" fill="#136acd" fill-rule="evenodd"/>
      <path id="Path_3048" data-name="Path 3048" d="M1188.565,852.527l17.647,1.961c-2.638,12.3-15.971,9.751-17.647-1.961" transform="translate(-673.624 -147.847)" fill="#5fa9ff" fill-rule="evenodd"/>
      <path id="Path_3054" data-name="Path 3054" d="M1183.665,1212.407c-9.382,37.958-13.076,66.885-18.817,100.317l6.073.613c6.44-17.242,13.053-34.506,13.243-49.843,3.24-8.481,8.984-17.756,12.224-26.237,3.965,25.768,8.651,51.423,12.614,77.19l6.043-.933c-1.455-29.357,2.153-37.756-3.165-50.572,6.164-33.874,6.906-40.29,2.221-50.026-12.824.2-17.613-.714-30.436-.511" transform="translate(-656.608 -406.026)" fill="#136acd" fill-rule="evenodd"/>
      <path id="Path_3055" data-name="Path 3055" d="M1183.665,1212.406c-9.382,37.958-13.076,66.885-18.817,100.317l6.073.613c6.44-17.242,13.053-34.506,13.243-49.843,3.24-8.481,8.984-17.756,12.224-26.237l-4.536-24.832c-2.406-.051-5.056-.069-8.186-.019" transform="translate(-656.608 -406.026)" fill="#0d62c2" fill-rule="evenodd"/>
      <path id="Path_3056" data-name="Path 3056" d="M1088.733,1033.917c-12.952,11.758-19.359,17.558-22.138,18.51-2.9.993-11.639.385-28.657-4.252-3.392.06-6.006-.156-9.4-.1-1.488-.044-.06,1.772.774,1.97,1.708.408,3.508.886,5.127,1.4,1.442,3.194.539,2.16,4.072,1.306,28.838,9.545,28.434,12.548,48.565-6.168a75.557,75.557,0,0,0,1.654-12.669" transform="translate(-558.348 -277.988)" fill="#fce2b4" fill-rule="evenodd"/>
      <path id="Path_3057" data-name="Path 3057" d="M1225.238,1030.818c-6.8,8.985-7.651,16.356-6.823,18.9,1.489,4.577,7.841,8.117,3.5,31.576l30.474.481c-5.588-21.647,8.957-32.49,3.077-47.674a68,68,0,0,0-14.925-4.509c-7.157,4.084-11.633,3.8-10.9.722a38.315,38.315,0,0,0-4.4.5" transform="translate(-694.853 -274.888)" fill="#ff6e89" fill-rule="evenodd"/>
      <path id="Path_3058" data-name="Path 3058" d="M1329.847,1058.344c2.591,13.7,3.308,18.051,5.346,24.749,2.052,6.749,11.158,21.611,15.506,27.3.9,1.561,1.123,4.591,2.019,6.152.653,1.382.326-2.277.489-3.416,1.958,1.645,2.7,2.268,4.655,3.911.908.724.709-3.615.107-4.33-1.93-2.091-3.306-3.436-4.64-4.9a240.932,240.932,0,0,1-10.337-24.077c-2.409-6.336-4.247-37.677-7.778-38.318-3-.753-7.45,5.554-5.368,12.923" transform="translate(-774.604 -286.197)" fill="#fce2b4" fill-rule="evenodd"/>
      <path id="Path_3059" data-name="Path 3059" d="M1136.611,1575.638c2.723-1.66,5.508-4.268,8.231-5.928,1,4.44.45,5.509-.216,9.994l-1.528.061q.092-1.986.184-3.975c-1.856,1.285-4.232,3.865-6.487,3.852-3.143-.014-4.161,0-7.281,0-2.735-.085.208-2.422,7.1-4" transform="translate(-630.529 -662.399)" fill="#0a1d35" fill-rule="evenodd"/>
      <path id="Path_3060" data-name="Path 3060" d="M1159.322,1567.54l-2.112,6.541c2.723-1.66,5.508-4.268,8.231-5.928l-6.119-.613" transform="translate(-651.128 -660.842)" fill="#fce2b4" fill-rule="evenodd"/>
      <path id="Path_3061" data-name="Path 3061" d="M1292.782,1576.267c2.722-1.66,5.507-4.267,8.23-5.927,1,4.439.449,5.508-.215,9.994l-1.53.061q.092-1.987.184-3.975c-1.856,1.285-4.231,3.865-6.487,3.853-3.142-.015-4.16,0-7.28,0-2.735-.086.207-2.422,7.1-4.005" transform="translate(-742.576 -662.852)" fill="#0a1d35" fill-rule="evenodd"/>
      <path id="Path_3062" data-name="Path 3062" d="M1315.638,1571.273l-2.258,4.994c2.722-1.66,5.507-4.267,8.23-5.927l-5.973.933" transform="translate(-763.175 -662.852)" fill="#fce2b4" fill-rule="evenodd"/>
      <path id="Path_3063" data-name="Path 3063" d="M1250.974,968.179c.859,1.777,6.326.837,10.069-2.135.113-2.331-.108-4.99,1.112-6.244,2.859-2.937.807-4.938-1.759-2.947-.052-1.943-.576-4.044-1.327-4.31s-5.247-.825-6.888-2.529c-2.685,3.047-3.93,12.536-1.207,18.164" transform="translate(-717.306 -217.791)" fill="#fce2b4" fill-rule="evenodd"/>
      <path id="Path_3064" data-name="Path 3064" d="M1267.452,1007.027a20.913,20.913,0,0,0,2.049,6.376c-7.157,4.087-11.633,3.8-10.9.724.745-.293,1.052-2.67,1.174-4.147a13.972,13.972,0,0,0,7.677-2.953" transform="translate(-723.816 -258.695)" fill="#f1ce93" fill-rule="evenodd"/>
      <path id="Path_3065" data-name="Path 3065" d="M1245.123,950.9c-1.118-4.765-.847-11.007,2.042-15.283,3,5.153,4.942,5.759,9.081,6.882,1.994-.781,2.642.87.34,3.364-1.455,6.072-2.156,19.005-3.166,25.818,2.842-2.559,8.558-5.843,9.565-12.683a98.679,98.679,0,0,0,.836-20.576c-.783-11-17.228-10.917-19.824-3.619-1.1,3.108-2.9,13.468,1.125,16.1" transform="translate(-712.413 -203.205)" fill="#051527" fill-rule="evenodd"/>
      <path id="Path_3067" data-name="Path 3067" d="M1409.006,787.245a17.919,17.919,0,0,0,2.549.255c2.621.15,5.445.312,7.235,2.274,1.476,1.619,1.179,3.55.88,5.48a8.615,8.615,0,0,0-.2,1.889c.437.48,1.654.578,2.871.676,2.048.165,4.1.331,5.7,2.043,1.564,1.678,1.334,3.619,1.106,5.56a4.742,4.742,0,0,0-.036,2.072c.57.609,1.977.652,3.383.7a17.377,17.377,0,0,1,3.086.28l-.907,4.241a13.819,13.819,0,0,0-2.315-.194c-2.308-.072-4.618-.145-6.405-2.052-1.574-1.678-1.345-3.623-1.115-5.566a4.738,4.738,0,0,0,.034-2.076c-.444-.476-1.662-.575-2.877-.672-2.07-.167-4.14-.334-5.727-2.083-1.472-1.623-1.175-3.552-.878-5.479a8.242,8.242,0,0,0,.2-1.89c-.6-.656-2.51-.767-4.283-.869a20.95,20.95,0,0,1-3.222-.343Z" transform="translate(-831.115 -101.01)" fill="#ff6e89"/>
      <path id="Path_3023" data-name="Path 3023" d="M1417.184,1320.063h64.5l5.214,76.081H1411.97Z" transform="translate(-846.909 -483.287)" fill-rule="evenodd" fill="url(#linear-gradient-2)"/>
      <path id="Path_3024" data-name="Path 3024" d="M1481.5,1232.195a24.834,24.834,0,0,1,24.838,24.826h-2.666a22.172,22.172,0,0,0-44.345,0h-2.666a24.833,24.833,0,0,1,24.838-24.826" transform="translate(-878.971 -420.245)" fill="#136acd"/>
    </g>
  </g>
</svg>
