<svg xmlns="http://www.w3.org/2000/svg" width="14" height="18" viewBox="0 0 14 18"><defs><style>.a{fill:#e9615b;}.b{fill:#e14841;}.c{fill:#ffbd00;}.d{fill:#efb307;}.e{fill:#4198ff;}.f{fill:#3388ec;}</style></defs><g transform="translate(-61.02)"><path class="a" d="M158.216,335.967h-6.652a.533.533,0,0,0-.554.52v5.061a.525.525,0,0,0,.288.458.6.6,0,0,0,.577-.021l3.016-1.893,3.016,1.893a.6.6,0,0,0,.577.021.525.525,0,0,0,.288-.458v-5.061A.533.533,0,0,0,158.216,335.967Z" transform="translate(-86.87 -324.069)"/><path class="b" d="M259.64,336.487v5.061a.523.523,0,0,1-.811.437L256,340.092v-4.125h3.12A.515.515,0,0,1,259.64,336.487Z" transform="translate(-187.891 -324.069)"/><path class="c" d="M68.02,0a6.956,6.956,0,0,0-7,6.885,7,7,0,0,0,14,0A6.956,6.956,0,0,0,68.02,0Z" transform="translate(0 0)"/><path class="d" d="M262.759,6.759A6.772,6.772,0,0,1,256,13.518V0A6.772,6.772,0,0,1,262.759,6.759Z" transform="translate(-187.739)"/><path class="e" d="M144.82,78.516a.541.541,0,0,0-.451-.354l-2.376-.322-1.056-1.986a.6.6,0,0,0-.99,0L138.89,77.84l-2.376.322a.509.509,0,0,0-.3.894l1.705,1.539-.407,2.163a.518.518,0,0,0,.22.51.56.56,0,0,0,.583.042l2.123-1.03,2.123,1.029a.56.56,0,0,0,.583-.042.518.518,0,0,0,.22-.51l-.407-2.163,1.705-1.539A.535.535,0,0,0,144.82,78.516Z" transform="translate(-72.422 -72.973)"/><path class="f" d="M259.994,79.055l-1.612,1.539.385,2.163a.532.532,0,0,1-.208.51.505.505,0,0,1-.551.042L256,82.278V75.592a.515.515,0,0,1,.468.26l1,1.986,2.246.322a.517.517,0,0,1,.426.354A.557.557,0,0,1,259.994,79.055Z" transform="translate(-187.874 -72.972)"/></g></svg>