<svg viewBox="0 0 20 20" id="refresh" xmlns="http://www.w3.org/2000/svg"><path d="M5.346 7H7.5a1 1 0 1 1 0 2H3a1 1 0 0 1-1-1V3.5a1 1 0 1 1 2 0v1.989c.157-.191.389-.473.48-.581C6.137 2.933 7.741 2 10.5 2c3.03 0 5.507 1.524 7.348 4.47a1 1 0 1 1-1.696 1.06C14.66 5.142 12.803 4 10.5 4c-2.09 0-3.178.633-4.49 2.194-.12.143-.538.655-.62.752L5.347 7zm9.308 6H12.5a1 1 0 0 1 0-2H17a1 1 0 0 1 1 1v4.5a1 1 0 0 1-2 0v-1.989c-.157.192-.389.474-.48.581C13.863 17.068 12.259 18 9.5 18c-3.03 0-5.507-1.524-7.348-4.47a1 1 0 1 1 1.696-1.06C5.34 14.858 7.197 16 9.5 16c2.09 0 3.178-.633 4.49-2.194.12-.143.539-.655.62-.752l.044-.054z"></path></svg>