<svg viewBox="0 0 20 20" id="star" xmlns="http://www.w3.org/2000/svg"><path d="M10 3.636L8.206 7.229a.817.817 0 0 1-.616.442l-4.013.58 2.903 2.796a.803.803 0 0 1 .236.716L6.03 15.71l3.588-1.865a.827.827 0 0 1 .762 0l3.588 1.865-.685-3.948a.803.803 0 0 1 .236-.716l2.903-2.796-4.013-.58a.817.817 0 0 1-.616-.442L10 3.636zM6.929 6.132l2.337-4.681a.822.822 0 0 1 1.468 0l2.337 4.681 5.228.756c.671.096.938.911.453 1.379l-3.782 3.641.892 5.145c.115.66-.587 1.164-1.187.852L10 15.475l-4.675 2.43c-.6.312-1.302-.192-1.187-.852l.892-5.145-3.782-3.641a.806.806 0 0 1 .453-1.38l5.228-.755z"></path></svg>