<svg width="435" height="394" viewBox="0 0 435 394" fill="none" xmlns="http://www.w3.org/2000/svg">
<path d="M398.405 191.732C397.345 145.704 378.635 101.832 346.123 69.1406C313.611 36.4494 269.768 17.424 223.613 15.9777C177.458 14.5313 132.499 30.7738 97.9834 61.3646C63.4677 91.9554 42.0193 134.569 38.0496 180.44" stroke="black" stroke-width="15"/>
<path d="M38.9818 200.182L6.6098 153.428L74.1287 155.477L38.9818 200.182Z" fill="black"/>
<path d="M35.7316 213.556C38.187 259.531 58.2191 302.815 91.7077 334.506C125.196 366.196 169.595 383.883 215.773 383.929C261.951 383.975 306.397 366.376 339.969 334.753C373.541 303.129 393.687 259.885 396.264 213.915" stroke="black" stroke-width="15"/>
<path d="M395.258 204.045L429.033 249.795L361.483 249.795L395.258 204.045Z" fill="black"/>
<path d="M259.486 101.051L312.687 153.895C314.098 155.297 314.895 157.202 314.902 159.191L315.155 234.176C315.161 236.165 314.378 238.076 312.976 239.487L260.132 292.688C258.73 294.1 256.825 294.896 254.836 294.903L179.851 295.156C177.862 295.163 175.952 294.379 174.54 292.977L121.339 240.133C119.928 238.732 119.131 236.827 119.124 234.838L118.871 159.852C118.865 157.863 119.648 155.953 121.05 154.542L173.894 101.34C175.296 99.929 177.201 99.1324 179.19 99.1257L254.175 98.8727C256.164 98.866 258.074 99.6497 259.486 101.051Z" fill="black" stroke="black" stroke-width="15"/>
<path d="M171.587 190.096C171.445 188.664 170.836 187.551 169.758 186.758C168.681 185.965 167.219 185.569 165.373 185.569C164.118 185.569 163.059 185.746 162.195 186.101C161.33 186.445 160.668 186.924 160.206 187.54C159.756 188.155 159.531 188.854 159.531 189.635C159.507 190.286 159.644 190.854 159.94 191.339C160.247 191.825 160.668 192.245 161.2 192.6C161.733 192.943 162.348 193.245 163.047 193.506C163.745 193.754 164.491 193.967 165.284 194.145L168.551 194.926C170.137 195.281 171.593 195.755 172.919 196.346C174.245 196.938 175.393 197.666 176.364 198.53C177.334 199.394 178.086 200.412 178.619 201.584C179.163 202.756 179.441 204.1 179.453 205.615C179.441 207.84 178.873 209.77 177.748 211.403C176.636 213.025 175.026 214.286 172.919 215.185C170.824 216.073 168.297 216.517 165.337 216.517C162.402 216.517 159.845 216.067 157.667 215.167C155.501 214.268 153.808 212.936 152.589 211.172C151.381 209.397 150.748 207.201 150.689 204.585H158.128C158.211 205.804 158.561 206.822 159.176 207.639C159.803 208.444 160.638 209.054 161.68 209.468C162.733 209.87 163.923 210.072 165.248 210.072C166.551 210.072 167.681 209.882 168.64 209.503C169.61 209.125 170.362 208.598 170.895 207.923C171.427 207.248 171.694 206.473 171.694 205.597C171.694 204.78 171.451 204.094 170.966 203.537C170.492 202.981 169.794 202.508 168.871 202.117C167.959 201.726 166.841 201.371 165.515 201.052L161.555 200.057C158.489 199.312 156.069 198.146 154.293 196.559C152.518 194.973 151.636 192.837 151.648 190.15C151.636 187.948 152.222 186.024 153.405 184.379C154.601 182.734 156.24 181.449 158.324 180.526C160.407 179.603 162.775 179.141 165.426 179.141C168.125 179.141 170.48 179.603 172.493 180.526C174.517 181.449 176.091 182.734 177.216 184.379C178.34 186.024 178.92 187.93 178.956 190.096H171.587ZM183.239 185.977V179.638H213.104V185.977H201.972V216.002H194.372V185.977H183.239ZM249.779 197.82C249.779 201.786 249.027 205.159 247.524 207.941C246.032 210.723 243.996 212.847 241.416 214.315C238.847 215.771 235.959 216.499 232.751 216.499C229.52 216.499 226.62 215.765 224.051 214.297C221.482 212.83 219.452 210.705 217.961 207.923C216.469 205.141 215.723 201.774 215.723 197.82C215.723 193.855 216.469 190.481 217.961 187.699C219.452 184.918 221.482 182.799 224.051 181.343C226.62 179.875 229.52 179.141 232.751 179.141C235.959 179.141 238.847 179.875 241.416 181.343C243.996 182.799 246.032 184.918 247.524 187.699C249.027 190.481 249.779 193.855 249.779 197.82ZM241.984 197.82C241.984 195.251 241.599 193.085 240.83 191.322C240.072 189.558 239.001 188.22 237.616 187.309C236.231 186.397 234.61 185.942 232.751 185.942C230.893 185.942 229.271 186.397 227.886 187.309C226.501 188.22 225.424 189.558 224.655 191.322C223.897 193.085 223.518 195.251 223.518 197.82C223.518 200.389 223.897 202.555 224.655 204.319C225.424 206.082 226.501 207.42 227.886 208.331C229.271 209.243 230.893 209.699 232.751 209.699C234.61 209.699 236.231 209.243 237.616 208.331C239.001 207.42 240.072 206.082 240.83 204.319C241.599 202.555 241.984 200.389 241.984 197.82ZM255.474 216.002V179.638H269.821C272.579 179.638 274.928 180.165 276.87 181.219C278.811 182.26 280.291 183.71 281.309 185.569C282.338 187.415 282.853 189.546 282.853 191.961C282.853 194.376 282.332 196.506 281.291 198.353C280.249 200.199 278.74 201.638 276.763 202.667C274.798 203.697 272.419 204.212 269.625 204.212H260.481V198.051H268.382C269.862 198.051 271.081 197.796 272.04 197.287C273.011 196.767 273.733 196.05 274.206 195.139C274.692 194.216 274.934 193.156 274.934 191.961C274.934 190.753 274.692 189.7 274.206 188.8C273.733 187.889 273.011 187.184 272.04 186.687C271.069 186.178 269.838 185.924 268.347 185.924H263.162V216.002H255.474Z" fill="white"/>
</svg>
