<svg width="20" height="20" viewBox="0 0 20 20" fill="none" xmlns="http://www.w3.org/2000/svg">
<rect width="20" height="20" fill="#E5E5E5"/>
<g id="Icons">
<rect x="-396" y="-49" width="816" height="1000" fill="white"/>
<g id="account_balance_wallet">
<path id="icon/action/account_balance_wallet_24px" fill-rule="evenodd" clip-rule="evenodd" d="M17.0833 4.16667V6.06667C17.5749 6.35833 17.9166 6.88333 17.9166 7.5V12.5C17.9166 13.1167 17.5749 13.6417 17.0833 13.9333V15.8333C17.0833 16.75 16.3333 17.5 15.4166 17.5H3.74992C2.82492 17.5 2.08325 16.75 2.08325 15.8333V4.16667C2.08325 3.25 2.82492 2.5 3.74992 2.5H15.4166C16.3333 2.5 17.0833 3.25 17.0833 4.16667ZM10.4166 12.5H16.2499V7.5H10.4166V12.5ZM3.74993 15.8333V4.16666H15.4166V5.83333H10.4166C9.49993 5.83333 8.74993 6.58333 8.74993 7.5V12.5C8.74993 13.4167 9.49993 14.1667 10.4166 14.1667H15.4166V15.8333H3.74993ZM11.6666 10C11.6666 9.30964 12.2262 8.75 12.9166 8.75C13.6069 8.75 14.1666 9.30964 14.1666 10C14.1666 10.6904 13.6069 11.25 12.9166 11.25C12.2262 11.25 11.6666 10.6904 11.6666 10Z" fill="black"/>
</g>
</g>
</svg>
