<svg width="20" height="20" viewBox="0 0 20 20" fill="none" xmlns="http://www.w3.org/2000/svg">
<rect width="20" height="20" fill="#E5E5E5"/>
<g id="Icons">
<rect x="-500" y="-109" width="816" height="1000" fill="white"/>
<g id="add_circle_outline">
<path id="icon/content/add_circle_outline_24px" fill-rule="evenodd" clip-rule="evenodd" d="M10.0001 1.66666C5.40008 1.66666 1.66675 5.39999 1.66675 9.99999C1.66675 14.6 5.40008 18.3333 10.0001 18.3333C14.6001 18.3333 18.3334 14.6 18.3334 9.99999C18.3334 5.39999 14.6001 1.66666 10.0001 1.66666ZM10.8334 5.83332H9.16676V9.16665H5.83343V10.8333H9.16676V14.1667H10.8334V10.8333H14.1668V9.16665H10.8334V5.83332ZM3.33343 9.99999C3.33343 13.675 6.3251 16.6667 10.0001 16.6667C13.6751 16.6667 16.6668 13.675 16.6668 9.99999C16.6668 6.32499 13.6751 3.33332 10.0001 3.33332C6.3251 3.33332 3.33343 6.32499 3.33343 9.99999Z" fill="black"/>
</g>
</g>
</svg>
