<svg width="20" height="20" viewBox="0 0 20 20" fill="none" xmlns="http://www.w3.org/2000/svg">
<rect width="20" height="20" fill="#E5E5E5"/>
<g id="Icons">
<rect x="-240" y="-109" width="816" height="1000" fill="white"/>
<g id="attachment">
<path id="icon/file/attachment_24px" d="M14.9999 13.3333H5.41658C3.57492 13.3333 2.08325 11.8417 2.08325 9.99999C2.08325 8.15832 3.57492 6.66666 5.41658 6.66666H15.8333C16.9832 6.66666 17.9166 7.59999 17.9166 8.74999C17.9166 9.89999 16.9832 10.8333 15.8333 10.8333H7.08325C6.62492 10.8333 6.24992 10.4583 6.24992 9.99999C6.24992 9.54166 6.62492 9.16666 7.08325 9.16666H14.9999V7.91666H7.08325C5.93325 7.91666 4.99992 8.84999 4.99992 9.99999C4.99992 11.15 5.93325 12.0833 7.08325 12.0833H15.8333C17.6749 12.0833 19.1666 10.5917 19.1666 8.74999C19.1666 6.90832 17.6749 5.41666 15.8333 5.41666H5.41658C2.88325 5.41666 0.833252 7.46666 0.833252 9.99999C0.833252 12.5333 2.88325 14.5833 5.41658 14.5833H14.9999V13.3333Z" fill="black"/>
</g>
</g>
</svg>
