<svg width="64" height="64" viewBox="0 0 64 64" xmlns="http://www.w3.org/2000/svg" style="background:#fff"><title>bank-of-america</title><g fill="none" fill-rule="evenodd"><path d="M22.814 22.493c-2.285.993-12.25 5.559-15.974 7.794-1.608-.64-2.973-1.107-4.84-1.824 7.738-4.638 16.15-7.27 16.296-7.463 1.576.425 2.917 1.093 4.518 1.493M30.204 26.21c-2.283.992-12.318 5.966-16.041 8.201C12.426 33.52 10.73 32.626 9 31.91c7.738-4.637 15.767-7.717 15.912-7.909 1.489.595 3.722 1.614 5.292 2.21" fill="#1B4F90"/><path d="M54.699 23.963c-2.284.993-18.014 6.224-32.91 16.404-1.887-1.188-4.93-2.996-6.789-3.618C22.739 32.112 32.991 25.122 48.62 21c2.356 1.062 3.97 1.986 6.079 2.963M61.728 29.017c-2.284.993-21.375 10.37-30.636 18.656-1.695-1.02-5.375-3.867-7.092-4.81C31.423 37.942 40.85 30.803 56.312 26c2.357 1.062 3.515 1.87 5.416 3.017M22.566 18c4.074 1.366 10.028 3.491 13.915 5.53-1.233.692-2.9 1.16-4.388 1.797-9.894-4.261-13.906-5.514-14.093-5.663.885-.391 3.803-1.402 4.566-1.664M30.293 16c4.075 1.366 10.295 3.187 14.181 5.227-1.322.34-3.233.742-4.75 1.392C29.83 18.357 26.186 17.25 26 17.1c.885-.391 3.53-.84 4.293-1.101" fill="#C0242B"/></g></svg>