<svg width="66" height="33" viewBox="0 0 66 33" fill="none" xmlns="http://www.w3.org/2000/svg">
<path fill-rule="evenodd" clip-rule="evenodd" d="M24.5393 7.89926C26.4226 8.63182 28.3059 9.41703 30.1374 10.306C24.2719 12.6588 18.6034 15.4756 13.1858 18.7296C11.3543 17.7872 9.47095 16.8463 7.58761 16.0084C13.0285 12.8699 18.6794 10.1496 24.5393 7.89926V7.89926ZM17.5278 5.44065C11.4635 7.37911 5.59501 9.88387 0 12.9218C1.7788 13.6025 3.5576 14.2824 5.28452 15.0149C10.6812 11.819 16.3762 9.15576 22.2888 7.06296C20.7191 6.48682 19.1502 5.91147 17.5278 5.44065Z" fill="#2267AD"/>
<path fill-rule="evenodd" clip-rule="evenodd" d="M61.6339 16.9509C61.7384 17.2645 62.001 17.369 62.2619 17.369C62.4183 17.369 62.5763 17.369 62.6809 17.2645C62.7463 17.1928 62.7834 17.0998 62.7854 17.0028C62.7854 16.7937 62.629 16.6891 62.4183 16.6891L62.0528 16.5846C61.9483 16.5319 61.7903 16.5319 61.6858 16.4274C61.5812 16.3229 61.5293 16.1664 61.5293 16.0092C61.5293 15.5911 61.8964 15.4347 62.2619 15.4347C62.5763 15.4347 62.89 15.5911 62.9945 15.9574L62.7335 16.0092C62.7335 15.7994 62.471 15.643 62.21 15.643C62.0536 15.643 61.7911 15.7475 61.7911 15.9566C61.7911 16.2183 61.9491 16.2702 62.1582 16.3229L62.471 16.3747C62.629 16.4266 62.7854 16.4793 62.89 16.5312C62.9945 16.6884 63.0464 16.7937 63.0464 17.0028C63.0464 17.1592 62.9945 17.369 62.8373 17.4736C62.6809 17.5789 62.4702 17.6308 62.2619 17.6308C61.843 17.6308 61.582 17.4209 61.4256 17.0028L61.6339 16.9509V16.9509ZM63.6744 17.5789H63.4661V15.4866H63.8308L64.5131 17.16L65.0869 15.4866H65.5059V17.5789H65.2449V15.7475L64.5634 17.5789H64.3543L63.6744 15.7475V17.5789ZM37.2534 7.63832C32.4487 5.34247 27.4823 3.40136 22.3942 1.83055C20.5627 2.35325 18.7839 2.9286 17.057 3.50474C22.2945 5.07838 27.4025 7.05479 32.3352 9.41626C33.9576 8.78824 35.5784 8.21368 37.2534 7.63832ZM45.0493 5.33612C40.183 3.19112 35.1075 1.4124 29.9275 -4.57764e-05C28.2533 0.313569 26.6317 0.679848 25.0101 1.098C30.1374 2.61577 35.1594 4.49903 39.9739 6.80123C41.6473 6.27775 43.3743 5.75506 45.0493 5.33612ZM57.6054 9.52159C45.3095 13.6552 33.7988 19.5667 23.3877 26.9441C26.0037 28.5656 28.515 30.2398 30.9738 32.0704C40.8798 24.221 51.8113 17.7609 63.4653 12.8692C61.5529 11.6832 59.5984 10.5666 57.6054 9.52159V9.52159ZM49.1296 5.5452C36.3628 8.89357 24.3821 14.3351 13.5513 21.5545C15.9581 22.7579 18.365 24.0139 20.7191 25.3737C31.3408 18.0489 43.1133 12.2938 55.6694 8.5265C53.5251 7.48112 51.3793 6.43495 49.1296 5.5452V5.5452Z" fill="#CD2E29"/>
</svg>
