<svg width="59" height="21" viewBox="0 0 59 21" fill="none" xmlns="http://www.w3.org/2000/svg">
<g clip-path="url(#clip0)">
<path d="M38.5368 14.7624C36.1664 16.4416 33.3662 18.1991 30.3576 20.0478L30.2403 20.1128C30.2013 20.1389 30.1884 20.1911 30.2143 20.243C30.2403 20.2821 30.2926 20.295 30.3445 20.2691L30.4489 20.217C33.0015 18.8891 35.945 17.3009 38.8885 15.6737C38.9015 15.6605 38.9145 15.6605 38.9404 15.6476C38.7712 15.3743 38.628 15.0749 38.5368 14.7624ZM54.0617 2.19999C50.3368 -1.91372 26.3591 1.78341 16.1611 4.0095L15.9267 4.06157C15.8746 4.07459 15.8484 4.11364 15.8484 4.16571C15.8615 4.21779 15.9005 4.24382 15.9526 4.24382L16.1871 4.19175C24.6269 2.69467 42.1966 0.611782 45.9867 4.36098C47.1457 5.50657 46.8592 6.97762 45.5308 8.70902C46.2472 9.17767 46.7681 9.90668 47.0026 10.8179C52.2123 7.34212 55.7157 4.03553 54.0617 2.19999Z" fill="#D22F2F"/>
<path d="M40.0475 13.682C40.0996 15.127 41.0113 16.3115 42.2096 16.3115C44.528 16.3115 45.5048 13.4736 45.4397 11.573C45.3876 10.128 44.4497 8.9434 43.2646 8.9434C41.2586 8.9434 39.9824 11.7683 40.0475 13.682ZM38.8232 13.6039C38.732 11.1304 40.6725 8.61795 43.4859 8.61795C45.3612 8.61795 46.5986 9.86768 46.6637 11.7813C46.7548 14.385 44.9445 16.7673 42.001 16.7673C40.1256 16.7673 38.8883 15.5175 38.8232 13.6039ZM12.2146 12.953C12.1103 12.992 11.98 13.0312 11.8239 13.0571C11.6676 13.0963 11.368 13.1482 10.9512 13.2133C10.6647 13.2654 10.4563 13.3175 10.3391 13.4086C10.2219 13.4868 10.1568 13.5908 10.1437 13.708C10.1177 13.8382 10.1568 13.9425 10.274 14.0204C10.3912 14.0984 10.5735 14.1376 10.834 14.1376C11.0294 14.1376 11.2248 14.1116 11.4201 14.0465C11.6155 13.9814 11.7718 13.9032 11.902 13.7991C11.9932 13.721 12.0583 13.617 12.1104 13.4997C12.1234 13.4086 12.1625 13.2263 12.2146 12.953V12.953ZM14.6632 11.4298C14.65 11.6512 14.6111 11.8596 14.559 12.1979L14.1422 14.5151C14.1031 14.7236 14.1813 14.8796 14.3766 14.9968L14.3636 15.0879H11.9932L11.9671 14.5021C11.6285 14.7104 11.2117 14.8795 10.834 14.9838C10.4565 15.0748 10.1568 15.127 9.70092 15.127C8.93262 15.127 8.50282 15.0489 8.20313 14.7885C7.89055 14.5151 7.74728 14.3329 7.7603 13.9554C7.77333 13.734 7.87739 13.4607 8.04684 13.2654C8.21615 13.0701 8.43756 12.9399 8.672 12.8228C8.91933 12.7058 9.206 12.6275 9.62277 12.5624C10.0396 12.4973 10.6256 12.4322 11.4071 12.3672C11.8109 12.3281 12.0713 12.237 12.1886 12.1979C12.3579 12.1328 12.41 12.0677 12.4359 11.9376C12.4751 11.7031 12.41 11.56 12.0844 11.4949C11.2378 11.3257 9.6358 11.5991 8.81527 11.8074L9.25809 10.5966C10.3391 10.4405 11.368 10.3362 12.4359 10.3362C14.1292 10.3233 14.6762 10.805 14.6632 11.4298ZM21.5139 15.0879L22.3345 10.4535H24.6007L23.7802 15.0879H21.5139ZM22.4647 9.38601C22.5298 9.00849 23.1291 8.69606 23.8063 8.69606C24.4835 8.69606 24.9654 9.00849 24.9002 9.38601C24.8351 9.76354 24.223 10.076 23.5587 10.076C22.8815 10.076 22.3866 9.76354 22.4647 9.38601V9.38601ZM32.6497 12.966C32.5455 13.005 32.4152 13.0441 32.259 13.0701C32.1027 13.1092 31.8031 13.1613 31.3733 13.2263C31.0868 13.2783 30.8784 13.3305 30.7612 13.4216C30.657 13.4997 30.5919 13.6037 30.5658 13.721C30.5398 13.8512 30.5919 13.9554 30.696 14.0333C30.8133 14.1116 30.9956 14.1505 31.2691 14.1505C31.4645 14.1505 31.6598 14.1245 31.8552 14.0594C32.0506 13.9943 32.2069 13.9162 32.3371 13.8122C32.4281 13.7339 32.4933 13.6299 32.5325 13.5126C32.5585 13.4216 32.5976 13.2394 32.6497 12.966ZM35.0852 11.4429C35.0722 11.6642 35.0331 11.8725 34.968 12.2108L34.5643 14.5281C34.5252 14.7364 34.6033 14.8927 34.7987 15.0097L34.7857 15.0879H32.4152L32.4022 14.5021C32.0506 14.7104 31.6338 14.8795 31.2691 14.9838C30.8914 15.0879 30.5919 15.127 30.136 15.127C29.3676 15.127 28.9378 15.0489 28.6382 14.7885C28.3256 14.515 28.1824 14.3329 28.1954 13.9554C28.2085 13.734 28.3126 13.4607 28.4819 13.2654C28.6512 13.0701 28.8726 12.9399 29.1071 12.8228C29.3545 12.7058 29.6412 12.6275 30.058 12.5494C30.4746 12.4843 31.0607 12.4192 31.8422 12.3541C32.2461 12.3151 32.4934 12.224 32.6106 12.1849C32.7799 12.1198 32.8451 12.0547 32.8711 11.9114C32.9102 11.6771 32.832 11.534 32.5194 11.4689C31.6598 11.2995 30.0709 11.573 29.2504 11.7812L29.693 10.5705C30.7871 10.4143 31.7901 10.3102 32.871 10.3102C34.5512 10.3363 35.0982 10.818 35.0852 11.4429V11.4429ZM7.44772 13.4216C6.70534 13.5648 6.30158 13.6299 5.57236 13.6299C4.49121 13.6299 3.63161 13.0962 3.67068 12.1068C3.70975 11.4559 4.47819 10.063 6.45788 10.063C7.08304 10.063 7.56494 10.1671 8.21615 10.5446L8.50269 8.9434C7.61704 8.60493 7.03094 8.55286 6.26251 8.56588C3.67068 8.59191 1.18305 9.76354 0.883487 12.1589C0.570904 14.5932 3.54044 15.2051 4.85589 15.1921C5.6113 15.1921 6.40565 15.153 7.14816 15.0879L7.44772 13.4216ZM25.851 10.4275L26.0073 9.49016L28.3777 8.96944L28.1303 10.4275H29.2894L29.068 11.3648H27.9479L27.2707 15.0881C27.2707 15.0881 24.9914 15.0749 24.9784 15.0881L25.6555 11.3779H24.7959L24.9652 10.4406H25.8509V10.4275H25.851ZM37.3905 15.0879H35.0722L36.2312 8.63097L38.4844 8.69606L37.3905 15.0879V15.0879ZM18.5184 11.547C18.2188 11.547 17.9583 11.6381 17.7108 11.8204C17.4764 12.0026 17.3201 12.263 17.2682 12.6146C17.203 13.0182 17.2421 13.3046 17.3984 13.4868C17.5547 13.669 17.7891 13.7602 18.1016 13.7602C18.3101 13.7602 18.5184 13.7212 18.6746 13.6431C18.87 13.5389 19.0002 13.4348 19.1175 13.2657C19.2477 13.0834 19.3259 12.8881 19.3648 12.6538C19.4299 12.2893 19.378 12.0159 19.2085 11.8337C19.0393 11.6381 18.8179 11.547 18.5184 11.547ZM14.3897 16.6891L15.4967 10.4795H17.4894L17.3331 11.2738C17.5025 11.0393 17.7758 10.844 18.1666 10.688C18.5443 10.5317 18.9872 10.4144 19.456 10.4144C19.9769 10.4144 20.2895 10.4405 20.6803 10.6488C21.071 10.8572 21.3315 11.1436 21.4876 11.5341C21.6312 11.9115 21.6702 12.3281 21.5921 12.7967C21.4618 13.5648 21.0841 14.1636 20.4719 14.6063C19.8596 15.0489 19.3128 15.166 18.5443 15.166C18.2708 15.166 18.0363 15.14 17.841 15.0879C17.6587 15.0359 17.5023 14.9838 17.3851 14.9057C17.2809 14.8276 17.1638 14.7364 17.0075 14.5672L16.6429 16.6891H14.3897V16.6891ZM55.5202 12.1198C55.5072 11.7423 55.3248 11.4948 54.9341 11.4948C54.0094 11.4948 53.0196 13.3173 52.8502 14.0465C54.3611 14.0465 55.5464 13.1352 55.5202 12.1198ZM55.7155 14.9708L55.8979 15.0879C55.442 16.0122 54.5173 16.7542 53.4363 16.7542C52.5506 16.7542 51.8214 16.1684 51.7823 15.0619C51.7172 13.0831 53.5665 11.2346 55.0904 11.2346C55.7416 11.2346 56.3537 11.521 56.3798 12.2241C56.4317 13.7993 54.2176 14.2809 52.759 14.32C52.7069 14.4892 52.6939 14.6454 52.7069 14.9058C52.733 15.5567 53.1237 16.1165 53.9442 16.1165C54.6477 16.0903 55.351 15.5305 55.7155 14.9708Z" fill="#004879"/>
<path d="M46.6245 12.0678C46.7808 12.0417 47.0412 12.0157 47.1454 12.0157C47.3148 12.0157 47.471 12.0417 47.471 12.211C47.471 12.3152 47.3017 13.0181 47.2627 13.1743L46.911 14.7365C46.7676 15.3744 46.6114 16.0383 46.4812 16.572H47.3929L47.9007 14.1117C49.4636 12.4975 50.0629 11.9637 50.4274 11.9637C50.5967 11.9637 50.7009 12.0549 50.7139 12.2501C50.727 12.5364 50.5446 13.1873 50.4795 13.3697L49.9585 15.1662C49.8413 15.5699 49.75 15.9343 49.7632 16.1946C49.7762 16.5852 50.0237 16.7673 50.3752 16.7673C51.0395 16.7673 51.5214 16.0773 51.9381 15.4004L51.8211 15.1791C51.6518 15.4525 51.2611 16.0512 50.9485 16.0512C50.8443 16.0512 50.7531 15.9861 50.7531 15.8168C50.7401 15.6085 50.8313 15.2961 50.8964 15.0878L51.4695 12.9789C51.6258 12.3931 51.7039 12.0286 51.6909 11.8203C51.6777 11.4297 51.4434 11.2476 51.0916 11.2476C50.4925 11.2476 49.6982 11.6772 48.0179 13.6169H47.9919L48.2004 12.6796C48.3175 12.1589 48.4217 11.625 48.539 11.2606C47.9529 11.4691 47.1324 11.7033 46.6114 11.8074L46.6245 12.0678V12.0678Z" fill="#004879"/>
<path d="M56.5232 10.3887C56.5232 9.91983 56.9009 9.5812 57.3437 9.5812C57.7865 9.5812 58.1512 9.91983 58.1512 10.3887C58.1512 10.8576 57.7737 11.1962 57.3437 11.1962C56.8877 11.1962 56.5232 10.8576 56.5232 10.3887ZM57.3436 11.066C57.7083 11.066 57.9948 10.7794 57.9948 10.3887C57.9948 10.011 57.7083 9.72447 57.3436 9.72447C56.9789 9.72447 56.6924 10.011 56.6924 10.3887C56.6795 10.7794 56.966 11.066 57.3436 11.066ZM57.1614 10.8576H57.018V9.93285H57.3696C57.5911 9.93285 57.6952 10.011 57.6952 10.1933C57.6952 10.3627 57.5911 10.4278 57.4479 10.4538L57.7084 10.8576H57.5521L57.3046 10.4538H57.1484V10.8576H57.1614V10.8576ZM57.3307 10.3366C57.4478 10.3366 57.5521 10.3236 57.5521 10.1803C57.5521 10.0631 57.4479 10.0501 57.3436 10.0501H57.1482V10.3366H57.3307Z" fill="#004879"/>
</g>
<defs>
<clipPath id="clip0">
<path d="M0.847168 0.345581H58.1648V20.2826H0.847168V0.345581Z" fill="white"/>
</clipPath>
</defs>
</svg>
