<svg xmlns="http://www.w3.org/2000/svg" xmlns:xlink="http://www.w3.org/1999/xlink" width="120" height="82" viewBox="0 0 120 82">
  <defs>
    <filter id="Rectangle_1032" x="0" y="0" width="120" height="82" filterUnits="userSpaceOnUse">
      <feOffset dy="3" input="SourceAlpha"/>
      <feGaussianBlur stdDeviation="3" result="blur"/>
      <feFlood flood-opacity="0.161"/>
      <feComposite operator="in" in2="blur"/>
      <feComposite in="SourceGraphic"/>
    </filter>
  </defs>
  <g id="Group_3746" data-name="Group 3746" transform="translate(-351 -2748)">
    <g id="Group_3745" data-name="Group 3745" transform="translate(-4 25)">
      <g id="Group_3744" data-name="Group 3744" transform="translate(-43 -13)">
        <g transform="matrix(1, 0, 0, 1, 398, 2736)" filter="url(#Rectangle_1032)">
          <rect id="Rectangle_1032-2" data-name="Rectangle 1032" width="102" height="64" rx="5" transform="translate(9 6)" fill="#fff"/>
        </g>
      </g>
    </g>
    <g id="Group_3745-2" data-name="Group 3745" transform="translate(-5 33)">
      <g id="Group_3744-2" data-name="Group 3744" transform="translate(-43 -13)">
        <g id="hel" transform="translate(415.711 2744.756)">
          <path id="Path_3224" data-name="Path 3224" d="M38.335,18.487a6.433,6.433,0,1,0,6.433-6.5A6.469,6.469,0,0,0,38.335,18.487Z" fill="#f58220" fill-rule="evenodd"/>
          <path id="Path_3222" data-name="Path 3222" d="M10.575,21.562a4.481,4.481,0,0,1-3.262.983h-.64V14.382h.64a4.4,4.4,0,0,1,3.263,1,4.163,4.163,0,0,1,1.315,3.071,4.246,4.246,0,0,1-1.315,3.111Zm-2.783-9.27h-3.5V24.635H7.773A6.324,6.324,0,0,0,12.13,23.21a6.232,6.232,0,0,0,2.216-4.741c0-3.644-2.694-6.177-6.555-6.177Zm7.654,12.343h2.38V12.292h-2.38Zm8.206-7.608c-1.43-.535-1.851-.889-1.851-1.553,0-.778.75-1.37,1.777-1.37a2.47,2.47,0,0,1,1.925,1l1.244-1.645a5.307,5.307,0,0,0-3.591-1.37,3.6,3.6,0,0,0-3.808,3.534c0,1.7.768,2.573,3,3.389a9.078,9.078,0,0,1,1.648.7,1.48,1.48,0,0,1,.716,1.275,1.75,1.75,0,0,1-1.853,1.74,2.816,2.816,0,0,1-2.6-1.646l-1.536,1.5a4.739,4.739,0,0,0,4.23,2.35,3.96,3.96,0,0,0,4.211-4.055c0-1.962-.8-2.851-3.515-3.851m4.266,1.442a6.36,6.36,0,0,0,6.448,6.444,6.523,6.523,0,0,0,2.986-.722V21.358a3.79,3.79,0,0,1-2.877,1.351,4.015,4.015,0,0,1-4.1-4.258,4.084,4.084,0,0,1,3.994-4.237A3.969,3.969,0,0,1,37.351,15.6V12.769a6.042,6.042,0,0,0-2.932-.755,6.455,6.455,0,0,0-6.5,6.455m28.736,2.114-3.26-8.291h-2.6l5.186,12.657h1.281l5.275-12.657H59.952l-3.3,8.291m6.964,4.052h6.757v-2.09H66V19.211h4.209v-2.09H66v-2.74h4.376v-2.09H63.616V24.633m11.407-6.66H74.33V14.233h.732c1.486,0,2.293.63,2.293,1.832,0,1.239-.806,1.908-2.331,1.908Zm4.78-2.039c0-2.311-1.573-3.642-4.321-3.642H71.946V24.635H74.33V19.674h.313l3.294,4.96h2.93l-3.849-5.2a3.277,3.277,0,0,0,2.786-3.5Z" fill="#0b1015" fill-rule="evenodd"/>
          <path id="Path_3223" data-name="Path 3223" d="M81.035,13.36h-.048v-.283h.051c.127,0,.191.047.191.14s-.068.144-.195.144Zm.448-.148c0-.217-.142-.334-.4-.334h-.347v1.087h.255v-.423l.3.423h.32l-.358-.448a.3.3,0,0,0,.234-.3Z" fill="#1a1919" fill-rule="evenodd"/>
        </g>
      </g>
    </g>
    <path id="Path_3225" data-name="Path 3225" d="M67,0V22a5,5,0,0,1-5,5H0s25.051-4.308,41.8-11.058S67,0,67,0Z" transform="translate(395 2791)" fill="#f58220"/>
  </g>
</svg>
