<svg width="44" height="45" viewBox="0 0 44 45" fill="none" xmlns="http://www.w3.org/2000/svg">
<path d="M15.7396 0.953857C15.3273 0.953745 14.9319 1.11736 14.6402 1.40875C14.3485 1.70013 14.1844 2.09544 14.184 2.50781V13.3972H42.9463L29.8481 0.95723L15.7396 0.953857ZM44 16.6915C44.0002 16.4874 43.96 16.2853 43.8819 16.0968C43.8038 15.9083 43.6893 15.737 43.5449 15.5929C43.4005 15.4488 43.229 15.3346 43.0404 15.2568C42.8518 15.1791 42.6496 15.1395 42.4456 15.1401H31.5601V43.9096L43.9949 30.8043L44 16.6915ZM28.2617 44.9539C28.6732 44.9527 29.0675 44.7884 29.3581 44.497C29.6486 44.2055 29.8118 43.8107 29.8118 43.3991V32.5109H1.05071L14.1469 44.9509L28.2617 44.9539ZM5.71761e-08 29.2179C-5.52977e-05 29.422 0.0400837 29.6242 0.118125 29.8128C0.196167 30.0014 0.310584 30.1728 0.454841 30.3171C0.599098 30.4615 0.770368 30.5761 0.958879 30.6542C1.14739 30.7324 1.34945 30.7727 1.55352 30.7727H12.4399V2.00106L0.00168499 15.103L5.71761e-08 29.2179" fill="#0659A5"/>
</svg>
