<svg width="52" height="52" viewBox="0 0 52 52" fill="none" xmlns="http://www.w3.org/2000/svg">
<path d="M1.84416 50.5516C0.254635 49.5887 -0.43503 47.2115 0.28492 45.2857C0.434847 44.8644 2.80339 42.2766 5.53237 39.5684L10.48 34.6033H6.55187C2.11403 34.6033 1.24475 34.3325 0.464833 32.6775C-0.43473 30.752 0.0453366 28.3745 1.63426 27.1411C2.41388 26.5089 2.77371 26.4791 8.26104 26.4791C14.0182 26.4791 14.0182 26.4791 14.9478 27.2614C15.4575 27.6827 16.2072 28.7359 16.657 29.5784C17.6765 31.6848 19.5955 33.6106 21.4246 34.4532C23.1038 35.2055 24.0634 36.1383 24.5428 37.4021C24.723 37.8833 24.873 40.3507 24.873 42.9687C24.873 46.8805 24.783 47.8735 24.3332 48.7461C23.2837 50.8826 20.7946 51.7251 18.4261 50.7321C16.8069 50.04 16.477 49.047 16.477 44.6237V40.772L11.6194 45.6468C8.92072 48.2948 6.43193 50.6419 6.0721 50.8224C5.02261 51.364 2.95362 51.2136 1.84416 50.5516ZM28.5612 50.702C28.0214 50.4613 27.3018 49.8294 26.9719 49.2878C26.4322 48.385 26.3722 47.7832 26.3722 42.8784C26.3722 36.4389 26.5222 36.0477 29.3108 34.6334C31.5297 33.5204 33.3888 31.6547 34.4983 29.4277C35.9076 26.5994 36.2974 26.4788 42.8042 26.4788C48.8613 26.4788 49.491 26.6292 50.4805 28.3444C51.1402 29.4277 51.1705 31.5341 50.5405 32.7377C49.6712 34.4231 49.1312 34.6033 44.6933 34.6033H40.6453L45.7731 39.8091C51.2301 45.3759 51.56 45.8875 50.9603 48.1142C50.5105 49.7993 49.1911 50.9127 47.452 51.0631C46.6724 51.1534 45.7128 51.0932 45.323 50.9428C44.9632 50.7923 42.4144 48.4753 39.7157 45.7671L34.7681 40.8322V44.3528C34.7681 48.4151 34.4083 49.6188 32.909 50.5516C31.7696 51.2437 29.9405 51.3039 28.5612 50.702ZM1.33441 23.6803C-0.404745 21.935 -0.43473 19.1366 1.21447 17.4515L2.14432 16.5487H10.42L5.50238 11.6138C2.80369 8.9056 0.464832 6.31778 0.28492 5.86641C-0.43473 3.94058 0.254935 1.56339 1.84416 0.600479C2.95332 -0.0615235 5.0523 -0.211978 6.0721 0.359751C6.43193 0.540297 8.89073 2.85731 11.5294 5.47523L16.3271 10.2597L16.477 6.25759C16.657 1.71385 16.9568 0.871299 18.7859 0.269478C21.1848 -0.512888 23.5533 0.450024 24.4529 2.61658C24.9626 3.82022 25.0226 12.4563 24.5428 13.7503C24.093 14.9539 23.1338 15.8867 21.6642 16.5487C19.8651 17.3311 17.6162 19.5578 16.6866 21.4837C16.2369 22.3563 15.4569 23.4697 14.9472 23.8909L14.0176 24.6733H2.32393L1.33441 23.6803ZM36.3574 24.0715C35.7577 23.7104 35.038 22.8077 34.4983 21.7244C33.3888 19.4976 31.53 17.632 29.3108 16.5186C26.5222 15.1044 26.3722 14.7132 26.3722 8.27369C26.3722 3.36886 26.4322 2.76703 26.9719 1.8643C28.0814 0.058841 30.9897 -0.573071 32.909 0.600479C34.4083 1.5333 34.7681 2.73694 34.7681 6.82932V10.3801L39.8657 5.26459L44.9632 0.149114H46.882C48.6214 0.149114 48.9213 0.239387 49.7609 1.05184C50.2406 1.5333 50.8103 2.43603 50.9903 3.09803C51.56 5.20441 51.0502 6.01687 45.6232 11.5235L40.6453 16.5487H48.9512L49.9408 17.632C51.7399 19.5277 51.3204 22.8979 49.1611 24.1918C48.4715 24.583 47.362 24.6733 42.8042 24.6733C37.8866 24.6733 37.2269 24.6131 36.3574 24.0715Z" fill="#00A777"/>
</svg>
