<svg width="58" height="38" viewBox="0 0 58 38" fill="none" xmlns="http://www.w3.org/2000/svg">
<g clip-path="url(#clip0)">
<path d="M27.6701 13.8222H22.9587V36.6928H27.6701V13.8222ZM31.9321 13.8222V18.0837H35.9694V30.9759C35.9694 32.7713 36.3065 34.2282 37.3162 35.3497C38.3259 36.3574 39.5603 36.9189 41.1302 37.0297C42.8126 37.0297 44.1578 36.6928 45.2784 35.9097L46.4004 31.8743V31.5374L46.1772 31.6482C44.9443 32.4344 43.8223 32.8821 42.7002 32.8821C41.2426 32.8821 40.57 31.9836 40.57 30.3021V18.0822H45.2799V13.8222H40.57V6.75766L35.9694 9.11301V13.8222H31.9321V13.8222ZM54.5904 13.8222H49.879V36.6928H54.5904V13.8222ZM12.189 13.4853C8.82435 13.4853 6.01996 14.3837 3.77584 16.5114C1.31005 18.6422 0.187988 21.5575 0.187988 25.2575C0.187988 28.8452 1.31005 31.8728 3.77584 34.0036C6.01996 36.1328 8.82435 37.142 12.189 37.142C15.3305 37.142 18.024 35.7959 20.2651 33.219V33.1067L17.6854 29.9682L17.5746 30.0805C15.8923 31.7605 14.0976 32.6574 11.9673 32.6574C9.94641 32.6574 8.26408 31.9851 6.91883 30.5282C5.57205 29.1821 4.89942 27.5006 4.89942 25.2575C4.89942 23.1283 5.57205 21.3329 6.91883 19.9883C8.26408 18.5299 9.94641 17.9699 11.9673 17.9699C14.0976 17.9699 15.8923 18.7545 17.5746 20.436L17.6854 20.5483L20.2651 17.4099V17.2976C18.024 14.7191 15.3305 13.4853 12.189 13.4853V13.4853Z" fill="#1C4882"/>
<path d="M25.315 10.1208C29.0168 6.19769 33.5035 4.29156 38.7752 4.29156C43.933 4.29156 48.4228 6.19769 52.0106 10.1208H57.5055L57.3947 9.78384C55.2644 6.7577 52.4585 4.51465 49.0939 2.72233C45.8401 0.928502 42.363 0.14389 38.7752 0.14389C35.0735 0.14389 31.5949 0.928502 28.3426 2.72233C24.9764 4.51617 22.2844 6.7577 20.1526 9.78384L19.9294 10.1208H25.315Z" fill="#CF4037"/>
</g>
<defs>
<clipPath id="clip0">
<path d="M0.187988 0.138184H57.5056V37.1477H0.187988V0.138184Z" fill="white"/>
</clipPath>
</defs>
</svg>
