<svg width="20" height="20" viewBox="0 0 20 20" fill="none" xmlns="http://www.w3.org/2000/svg">
<rect width="20" height="20" fill="#E5E5E5"/>
<g id="Icons">
<rect x="-136" y="-109" width="816" height="1000" fill="white"/>
<g id="error_outline">
<path id="icon/outlined/alert/error_outline_24px" fill-rule="evenodd" clip-rule="evenodd" d="M9.99175 1.66666C5.39175 1.66666 1.66675 5.39999 1.66675 9.99999C1.66675 14.6 5.39175 18.3333 9.99175 18.3333C14.6001 18.3333 18.3334 14.6 18.3334 9.99999C18.3334 5.39999 14.6001 1.66666 9.99175 1.66666ZM10.8334 5.83332H9.16675V10.8333H10.8334V5.83332ZM10.8334 12.5H9.16675V14.1667H10.8334V12.5ZM3.33343 9.99999C3.33343 13.6833 6.31676 16.6667 10.0001 16.6667C13.6834 16.6667 16.6668 13.6833 16.6668 9.99999C16.6668 6.31665 13.6834 3.33332 10.0001 3.33332C6.31676 3.33332 3.33343 6.31665 3.33343 9.99999Z" fill="black"/>
</g>
</g>
</svg>
