<svg width="20" height="20" viewBox="0 0 20 20" fill="none" xmlns="http://www.w3.org/2000/svg">
<rect width="20" height="20" fill="#E5E5E5"/>
<g id="Icons">
<rect x="-188" y="-49" width="816" height="1000" fill="white"/>
<g id="extension">
<path id="icon/action/extension_24px" fill-rule="evenodd" clip-rule="evenodd" d="M6.875 3.95833C6.875 2.80833 7.80833 1.875 8.95833 1.875C10.1083 1.875 11.0417 2.80833 11.0417 3.95833H14.375C15.2917 3.95833 16.0417 4.70833 16.0417 5.625V8.95833C17.1917 8.95833 18.125 9.89167 18.125 11.0417C18.125 12.1917 17.1917 13.125 16.0417 13.125V16.4583C16.0417 17.375 15.2917 18.125 14.375 18.125H11.2083V17.875C11.2083 16.6333 10.2 15.625 8.95833 15.625C7.71667 15.625 6.70833 16.6333 6.70833 17.875V18.125H3.54167C2.625 18.125 1.875 17.375 1.875 16.4583V13.2917H2.125C3.36667 13.2917 4.375 12.2833 4.375 11.0417C4.375 9.8 3.36667 8.79167 2.125 8.79167H1.88333V5.625C1.88333 4.70833 2.625 3.95833 3.54167 3.95833H6.875ZM9.37502 3.95833C9.37502 3.725 9.19168 3.54166 8.95835 3.54166C8.72502 3.54166 8.54168 3.725 8.54168 3.95833V5.625H3.54168L3.55002 7.39166C5.00835 7.95833 6.04168 9.38333 6.04168 11.0417C6.04168 12.7 5.00002 14.125 3.54168 14.6917V16.4583H5.30835C5.87502 15 7.30002 13.9583 8.95835 13.9583C10.6167 13.9583 12.0417 15 12.6083 16.4583H14.375V11.4583H16.0417C16.275 11.4583 16.4584 11.275 16.4584 11.0417C16.4584 10.8083 16.275 10.625 16.0417 10.625H14.375V5.625H9.37502V3.95833Z" fill="black"/>
</g>
</g>
</svg>
