<svg width="20" height="20" viewBox="0 0 20 20" fill="none" xmlns="http://www.w3.org/2000/svg">
<rect width="20" height="20" fill="#E5E5E5"/>
<g id="Icons">
<rect x="-344" y="-49" width="816" height="1000" fill="white"/>
<g id="how_to_reg">
<path id="icon/content/how_to_reg_24px" fill-rule="evenodd" clip-rule="evenodd" d="M12.0832 6.45833C12.0832 8.3 10.5916 9.79167 8.7499 9.79167C6.90824 9.79167 5.41657 8.3 5.41657 6.45833C5.41657 4.61667 6.90824 3.125 8.7499 3.125C10.5916 3.125 12.0832 4.61667 12.0832 6.45833ZM10.4166 6.45833C10.4166 5.54166 9.66658 4.79166 8.74992 4.79166C7.83325 4.79166 7.08325 5.54166 7.08325 6.45833C7.08325 7.375 7.83325 8.125 8.74992 8.125C9.66658 8.125 10.4166 7.375 10.4166 6.45833ZM3.74992 14.7917C3.91659 14.2667 5.89159 13.3917 7.88325 13.175L9.58325 11.5083C9.25825 11.475 9.01659 11.4583 8.74992 11.4583C6.52492 11.4583 2.08325 12.575 2.08325 14.7917V16.4583H9.58325L7.91658 14.7917H3.74992ZM12.4749 14.5167L16.7499 10.2083L17.9166 11.3833L12.4749 16.875L9.58325 13.9583L10.7499 12.7833L12.4749 14.5167Z" fill="black"/>
</g>
</g>
</svg>
