<svg width="20" height="20" viewBox="0 0 20 20" fill="none" xmlns="http://www.w3.org/2000/svg">
<rect width="20" height="20" fill="#E5E5E5"/>
<g id="Icons">
<rect x="-32" y="-49" width="816" height="1000" fill="white"/>
<g id="lightbulb">
<path id="icon/action/lightbulb_24px" fill-rule="evenodd" clip-rule="evenodd" d="M10.0001 1.66666C6.78342 1.66666 4.16675 4.28332 4.16675 7.49999C4.16675 9.48332 5.15841 11.225 6.66675 12.2833V14.1667C6.66675 14.625 7.04175 15 7.50008 15H12.5001C12.9584 15 13.3334 14.625 13.3334 14.1667V12.2833C14.8417 11.225 15.8334 9.48332 15.8334 7.49999C15.8334 4.28332 13.2167 1.66666 10.0001 1.66666ZM7.50007 17.5C7.50007 17.9583 7.87507 18.3333 8.3334 18.3333H11.6667C12.1251 18.3333 12.5001 17.9583 12.5001 17.5V16.6667H7.50007V17.5ZM11.6668 11.4167L12.3751 10.9167C13.5001 10.1333 14.1668 8.85832 14.1668 7.49999C14.1668 5.19999 12.3001 3.33332 10.0001 3.33332C7.7001 3.33332 5.83343 5.19999 5.83343 7.49999C5.83343 8.85832 6.5001 10.1333 7.6251 10.9167L8.33343 11.4167V13.3333H11.6668V11.4167Z" fill="#212025"/>
</g>
</g>
</svg>
