<svg width="20" height="20" viewBox="0 0 20 20" fill="none" xmlns="http://www.w3.org/2000/svg">
<rect width="20" height="20" fill="#E5E5E5"/>
<g id="Icons">
<rect x="-448" y="-49" width="816" height="1000" fill="white"/>
<g id="local_mall">
<path id="icon/maps/local_mall_24px" fill-rule="evenodd" clip-rule="evenodd" d="M14.1667 5.41667H15.8333C16.75 5.41667 17.5 6.16667 17.5 7.08333V17.0833C17.5 18 16.75 18.75 15.8333 18.75H4.16667C3.25 18.75 2.5 18 2.5 17.0833V7.08333C2.5 6.16667 3.25 5.41667 4.16667 5.41667H5.83333C5.83333 3.11667 7.7 1.25 10 1.25C12.3 1.25 14.1667 3.11667 14.1667 5.41667ZM12.5 5.41667C12.5 4.03333 11.3833 2.91666 10 2.91666C8.61667 2.91666 7.5 4.03333 7.5 5.41667H12.5ZM15.8334 17.0833H4.16668V7.08333H15.8334V17.0833ZM7.49998 7.91667C7.49998 9.3 8.61665 10.4167 9.99998 10.4167C11.3833 10.4167 12.5 9.3 12.5 7.91667H14.1667C14.1667 10.2167 12.3 12.0833 9.99998 12.0833C7.69998 12.0833 5.83332 10.2167 5.83332 7.91667H7.49998Z" fill="black"/>
</g>
</g>
</svg>
