<svg width="52" height="48" viewBox="0 0 52 48" fill="none" xmlns="http://www.w3.org/2000/svg">
<g clip-path="url(#clip0)">
<path d="M51.1295 34.005C51.0266 34.4852 50.8207 34.9654 50.4775 35.3428L39.8731 45.9421C39.7015 46.3194 39.2554 46.4566 38.8779 46.2851C38.5004 46.1136 38.3631 45.6676 38.5347 45.2903V22.1365L51.1295 9.54768V34.005Z" fill="#E34B5F"/>
<path d="M42.5156 0.937993C42.5156 0.560671 42.2067 0.286255 41.8635 0.286255C41.486 0.286255 41.2115 0.594973 41.2115 0.937993L25.9741 16.8198V34.6911L38.5689 22.1023L51.1638 9.51349L42.5156 0.937993Z" fill="#E7CE9C"/>
<path d="M0.818848 34.005C0.921803 34.4852 1.12771 34.9654 1.4709 35.3428L12.0753 45.9421C12.2469 46.3194 12.693 46.4566 13.0705 46.2851C13.448 46.1136 13.5853 45.6676 13.4137 45.2903V22.1365L0.818848 9.54768V34.005Z" fill="#1E7889"/>
<path d="M10.7368 0.937993C10.7368 0.560671 10.428 0.286255 10.0848 0.286255C9.7073 0.286255 9.43275 0.594973 9.43275 0.937993L0.818848 9.54779L13.4137 22.1366L25.9742 34.6911V16.8198L10.7368 0.937993Z" fill="#97BAA6"/>
</g>
<defs>
<clipPath id="clip0">
<path d="M0.647217 0.0460205H51.8237V47.1059H0.647217V0.0460205Z" fill="white"/>
</clipPath>
</defs>
</svg>
