<svg width="20" height="20" viewBox="0 0 20 20" fill="none" xmlns="http://www.w3.org/2000/svg">
<rect width="20" height="20" fill="#E5E5E5"/>
<g id="Icons">
<rect x="-188" y="-109" width="816" height="1000" fill="white"/>
<g id="notification_important">
<path id="icon/outlined/alert/notification_important_24px" fill-rule="evenodd" clip-rule="evenodd" d="M8.75 2.29166C8.75 1.59999 9.30833 1.04166 10 1.04166C10.6917 1.04166 11.25 1.59999 11.25 2.29166V3.26666C13.8667 3.83332 15.8333 6.16666 15.8333 8.95832V13.9583L17.5 15.625V16.4583H2.5V15.625L4.16667 13.9583V8.95832C4.16667 6.16666 6.13333 3.83332 8.75 3.26666V2.29166ZM9.99998 4.79166C12.3 4.79166 14.1667 6.65832 14.1667 8.95832V14.7917H5.83332V8.95832C5.83332 6.65832 7.69998 4.79166 9.99998 4.79166ZM8.34166 17.3C8.34166 18.2167 9.08333 18.9583 9.99999 18.9583C10.9167 18.9583 11.6583 18.2167 11.6583 17.3H8.34166ZM9.16668 6.45832H10.8333V9.79166H9.16668V6.45832ZM10.8333 11.4583H9.16668V13.125H10.8333V11.4583Z" fill="black"/>
</g>
</g>
</svg>
