<svg width="42" height="49" viewBox="0 0 42 49" fill="none" xmlns="http://www.w3.org/2000/svg">
<g clip-path="url(#clip0)">
<path d="M35.5781 3.78237C33.3497 1.24363 29.3215 0.155212 24.1682 0.155212H9.21183C8.70196 0.155231 8.20882 0.337048 7.82107 0.667975C7.43331 0.998902 7.17639 1.45723 7.09648 1.96056L0.868944 41.4383C0.745161 42.2168 1.34824 42.9217 2.13764 42.9217H11.3712L13.6901 28.2201L13.6181 28.6805C13.7833 27.6413 14.6725 26.8748 15.7255 26.8748H20.1132C28.7329 26.8748 35.4823 23.3754 37.4539 13.2522C37.5124 12.9528 37.5631 12.6614 37.6069 12.3767C37.3581 12.245 37.3581 12.245 37.6069 12.3767C38.194 8.63511 37.6029 6.08821 35.5781 3.78237" fill="#27346A"/>
<path d="M17.2232 11.0289C17.4756 10.9087 17.7517 10.8465 18.0313 10.8466H29.7568C31.1453 10.8466 32.4403 10.937 33.6238 11.1273C33.955 11.1801 34.2844 11.2431 34.6117 11.3163C35.0755 11.4186 35.534 11.5438 35.9854 11.6914C36.5673 11.8857 37.1091 12.1119 37.6071 12.3767C38.194 8.63367 37.6029 6.08821 35.5781 3.78237C33.3484 1.24363 29.3215 0.155212 24.1682 0.155212H9.21055C8.15743 0.155212 7.26153 0.921534 7.09648 1.96056L0.868945 41.4369C0.745162 42.2166 1.34824 42.9206 2.13636 42.9206H11.3712L16.1822 12.426C16.2295 12.1262 16.349 11.8425 16.5303 11.5991C16.7117 11.3557 16.9494 11.16 17.2232 11.0289V11.0289Z" fill="#27346A"/>
<path d="M37.4535 13.2529C35.482 23.3746 28.7328 26.8754 20.1129 26.8754H15.7238C14.6709 26.8754 13.7815 27.6419 13.6179 28.6811L10.733 46.9607C10.6252 47.642 11.1523 48.2594 11.842 48.2594H19.6256C20.0714 48.2592 20.5026 48.1001 20.8416 47.8106C21.1806 47.5211 21.4051 47.1202 21.4748 46.68L21.5506 46.2836L23.0176 36.9906L23.1121 36.477C23.1818 36.0368 23.4063 35.6359 23.7453 35.3464C24.0842 35.0569 24.5154 34.8978 24.9612 34.8977H26.1261C33.6662 34.8977 39.5702 31.8359 41.2955 22.9808C42.0156 19.2803 41.643 16.1907 39.7379 14.0206C39.1601 13.3633 38.4425 12.8205 37.6066 12.3774C37.5613 12.6635 37.5122 12.9535 37.4535 13.2529V13.2529Z" fill="#2790C3"/>
<path d="M35.5438 11.5551C35.2364 11.4653 34.9261 11.3859 34.6133 11.3169C34.2859 11.2449 33.9565 11.1823 33.6255 11.1292C32.4407 10.9376 31.1466 10.8471 29.7568 10.8471H18.0328C17.753 10.8464 17.4767 10.9092 17.2247 11.0307C16.9506 11.1615 16.7126 11.3571 16.5312 11.6005C16.3498 11.844 16.2304 12.1279 16.1836 12.4278L13.6916 28.2207L13.6196 28.681C13.7836 27.6419 14.6727 26.8754 15.7259 26.8754H20.1149C28.7346 26.8754 35.4838 23.3759 37.4554 13.2528C37.5141 12.9534 37.5633 12.6633 37.6086 12.3773C37.1093 12.1139 36.5689 11.8863 35.9869 11.6933C35.8401 11.6447 35.6924 11.5986 35.5439 11.5551" fill="#1F264F"/>
</g>
<defs>
<clipPath id="clip0">
<path d="M0.847168 0.0230713H41.7883V48.3025H0.847168V0.0230713Z" fill="white"/>
</clipPath>
</defs>
</svg>
