<svg width="20" height="20" viewBox="0 0 20 20" fill="none" xmlns="http://www.w3.org/2000/svg">
<rect width="20" height="20" fill="#E5E5E5"/>
<g id="Icons">
<rect x="-136" y="-49" width="816" height="1000" fill="white"/>
<g id="pie_chart">
<path id="icon/editor/pie_chart_24px" fill-rule="evenodd" clip-rule="evenodd" d="M1.66675 9.99999C1.66675 5.39999 5.40008 1.66666 10.0001 1.66666C14.6001 1.66666 18.3334 5.39999 18.3334 9.99999C18.3334 14.6 14.6001 18.3333 10.0001 18.3333C5.40008 18.3333 1.66675 14.6 1.66675 9.99999ZM10.8334 9.16666H16.6084C16.2334 6.15832 13.8418 3.76666 10.8334 3.39166V9.16666ZM3.33343 9.99999C3.33343 6.60832 5.88343 3.79999 9.16676 3.39166V16.6083C5.88343 16.2 3.33343 13.3917 3.33343 9.99999ZM10.8334 10.8333V16.6083C13.8418 16.2333 16.2334 13.8417 16.6084 10.8333H10.8334Z" fill="black"/>
</g>
</g>
</svg>
