<svg width="24" height="20" viewBox="0 0 24 20" fill="none" xmlns="http://www.w3.org/2000/svg">
<rect width="24" height="20" fill="#E5E5E5"/>
<g id="Icons">
<rect x="-136" y="-169" width="816" height="1000" fill="white"/>
<g id="print">
<path id="icon/action/print_24px" fill-rule="evenodd" clip-rule="evenodd" d="M19 6.66667H18V2.5H6V6.66667H5C3.34 6.66667 2 7.78333 2 9.16667V14.1667H6V17.5H18V14.1667H22V9.16667C22 7.78333 20.66 6.66667 19 6.66667ZM8 4.16667H16V6.66667H8V4.16667ZM16 15.8333V14.1667V12.5H8V15.8333H16ZM18 12.5V10.8333H6V12.5H4V9.16667C4 8.70833 4.45 8.33333 5 8.33333H19C19.55 8.33333 20 8.70833 20 9.16667V12.5H18ZM17 9.58333C17 9.1231 17.4477 8.75 18 8.75C18.5523 8.75 19 9.1231 19 9.58333C19 10.0436 18.5523 10.4167 18 10.4167C17.4477 10.4167 17 10.0436 17 9.58333Z" fill="black"/>
</g>
</g>
</svg>
