<svg width="24" height="20" viewBox="0 0 24 20" fill="none" xmlns="http://www.w3.org/2000/svg">
<rect width="24" height="20" fill="#E5E5E5"/>
<g id="Icons">
<rect x="-760" y="-109" width="816" height="1000" fill="white"/>
<g id="remove_red_eye">
<path id="icon/image/remove_red_eye_24px" fill-rule="evenodd" clip-rule="evenodd" d="M1 10C2.73 6.34167 7 3.75 12 3.75C17 3.75 21.27 6.34167 23 10C21.27 13.6583 17 16.25 12 16.25C7 16.25 2.73 13.6583 1 10ZM20.82 10C19.17 7.19167 15.79 5.41667 12 5.41667C8.21 5.41667 4.83 7.19167 3.18 10C4.83 12.8083 8.2 14.5833 12 14.5833C15.8 14.5833 19.17 12.8083 20.82 10ZM12 7.91667C13.38 7.91667 14.5 8.85 14.5 10C14.5 11.15 13.38 12.0833 12 12.0833C10.62 12.0833 9.5 11.15 9.5 10C9.5 8.85 10.62 7.91667 12 7.91667ZM7.5 10C7.5 7.93333 9.52 6.25 12 6.25C14.48 6.25 16.5 7.93333 16.5 10C16.5 12.0667 14.48 13.75 12 13.75C9.52 13.75 7.5 12.0667 7.5 10Z" fill="black"/>
</g>
</g>
</svg>
