<svg width="20" height="20" viewBox="0 0 20 20" fill="none" xmlns="http://www.w3.org/2000/svg">
<rect width="20" height="20" fill="#E5E5E5"/>
<g id="Icons">
<rect x="-398" y="-169" width="816" height="1000" fill="white"/>
<g id="restore">
<path id="icon/action/restore_24px" fill-rule="evenodd" clip-rule="evenodd" d="M3.75 10C3.75 5.85833 7.10833 2.5 11.25 2.5C15.3917 2.5 18.75 5.85833 18.75 10C18.75 14.1417 15.3917 17.5 11.25 17.5C9.175 17.5 7.30833 16.6583 5.95 15.3L7.13333 14.1167C8.18333 15.175 9.64167 15.8333 11.25 15.8333C14.475 15.8333 17.0833 13.225 17.0833 10C17.0833 6.775 14.475 4.16667 11.25 4.16667C8.025 4.16667 5.41667 6.775 5.41667 10H7.91667L4.58333 13.325L1.25 10H3.75ZM10.4167 10.8333V6.66667H11.6667V10.125L14.6 11.8667L13.9583 12.9333L10.4167 10.8333Z" fill="black"/>
</g>
</g>
</svg>
