<svg width="20" height="20" viewBox="0 0 20 20" fill="none" xmlns="http://www.w3.org/2000/svg">
<rect width="20" height="20" fill="#E5E5E5"/>
<g id="Icons">
<rect x="-242" y="-169" width="816" height="1000" fill="white"/>
<g id="search">
<path id="icon/action/search_24px" fill-rule="evenodd" clip-rule="evenodd" d="M12.4707 11.8792H13.1291L17.2874 16.0458L16.0457 17.2875L11.8791 13.1292V12.4708L11.6541 12.2375C10.7041 13.0542 9.47074 13.5458 8.12907 13.5458C5.1374 13.5458 2.7124 11.1208 2.7124 8.12916C2.7124 5.13749 5.1374 2.71249 8.12907 2.71249C11.1207 2.71249 13.5457 5.13749 13.5457 8.12916C13.5457 9.47083 13.0541 10.7042 12.2374 11.6542L12.4707 11.8792ZM4.37908 8.12916C4.37908 10.2042 6.05408 11.8792 8.12908 11.8792C10.2041 11.8792 11.8791 10.2042 11.8791 8.12916C11.8791 6.05416 10.2041 4.37916 8.12908 4.37916C6.05408 4.37916 4.37908 6.05416 4.37908 8.12916Z" fill="black"/>
</g>
</g>
</svg>
