<svg width="58" height="15" viewBox="0 0 58 15" fill="none" xmlns="http://www.w3.org/2000/svg">
<g clip-path="url(#clip0)">
<path d="M0.128662 0.414673L0.138134 11.5336L9.56007 14.7373L18.9821 11.5336V0.414673H0.128662Z" fill="#D73749"/>
<path d="M9.54542 11.1837H6.66486V10.1887H6.6348C6.0767 10.9735 5.27775 11.3799 4.08615 11.3799C2.68376 11.3799 1.40186 10.5208 1.40186 8.72689V3.36074H4.38787V7.46037C4.38787 8.3651 4.49345 8.99805 5.36843 8.99805C5.88081 8.99805 6.5594 8.74141 6.5594 7.49054V3.36074H9.54542V11.1837ZM15.1114 5.63651C15.0957 5.38063 14.9609 5.18484 14.7643 5.04826C14.5834 4.89778 14.3423 4.8228 14.1007 4.8228C13.6782 4.8228 13.1955 4.91344 13.1955 5.42557C13.1955 5.65141 13.3769 5.75682 13.5426 5.83231C14.0402 6.044 15.1713 6.10384 16.1671 6.43546C17.1618 6.75269 18.0369 7.33981 18.0369 8.62123C18.0369 10.7921 15.9557 11.3797 14.0557 11.3797C12.2156 11.3797 10.1946 10.641 10.1496 8.62123H12.9997C13.0146 8.89276 13.1358 9.1186 13.3617 9.31502C13.5125 9.45022 13.7991 9.54086 14.1613 9.54086C14.5533 9.54086 15.1713 9.39001 15.1713 8.93808C15.1713 8.4854 14.9153 8.3502 13.5278 8.10871C11.2507 7.71726 10.3306 6.99367 10.3306 5.65154C10.3306 3.67746 12.4572 3.16457 14.0253 3.16457C15.7148 3.16457 17.7504 3.63214 17.8255 5.63664H15.1114V5.63651Z" fill="white"/>
<path d="M20.0439 0.42099H23.03V4.21942H23.06C23.5129 3.55605 24.3119 3.1646 25.2015 3.1646C27.8257 3.1646 28.5346 5.39531 28.5346 7.23444C28.5346 9.19361 27.4637 11.3798 25.2465 11.3798C23.7839 11.3798 23.3317 10.8219 22.9546 10.3242H22.9245V11.1836H20.0439V0.42099ZM24.2366 5.33547C23.1657 5.33547 22.9245 6.34498 22.9245 7.26498C22.9245 8.19976 23.1657 9.20927 24.2366 9.20927C25.3075 9.20927 25.5487 8.19976 25.5487 7.26498C25.5487 6.34498 25.3075 5.33547 24.2366 5.33547ZM36.8597 9.43535C36.8597 10.0232 36.8902 10.687 37.2223 11.184H34.1753C34.1003 10.9734 34.0553 10.6562 34.0697 10.4456H34.0401C33.4058 11.1688 32.4865 11.3798 31.5211 11.3798C30.0129 11.3798 28.7616 10.6563 28.7616 9.0131C28.7616 6.5414 31.6567 6.63166 33.1801 6.34523C33.5874 6.26987 33.9943 6.14944 33.9943 5.65144C33.9943 5.12403 33.4964 4.92824 33.0144 4.92824C32.094 4.92824 31.9134 5.39506 31.8982 5.7268H29.1229C29.2139 3.52626 31.2948 3.16447 33.1501 3.16447C36.8901 3.16447 36.8596 4.71692 36.8596 6.22455V9.43535H36.8597ZM33.9945 7.67184C33.6325 7.85274 33.2256 7.95814 32.8188 8.0484C32.1551 8.19951 31.8077 8.36488 31.8077 8.89267C31.8077 9.25446 32.2001 9.61612 32.7429 9.61612C33.4217 9.61612 33.9491 9.20901 33.9943 8.39492V7.67184H33.9945ZM37.9298 3.36051H40.8104V4.3555H40.8401C41.3986 3.57145 42.1971 3.16434 43.3884 3.16434C44.7911 3.16434 46.0738 4.02338 46.0738 5.81731V11.1835H43.087V7.08396C43.087 6.17923 42.9818 5.54603 42.1078 5.54603C41.5939 5.54603 40.9155 5.80267 40.9155 7.05354V11.1836H37.9298V3.36051ZM47.13 0.421116H50.1156V5.6219L52.0164 3.36039H55.3944L52.6046 6.31493L55.8322 11.1837H52.242L50.6437 8.35023L50.1156 8.92259V11.1837H47.13V0.421116ZM57.1584 10.1184C57.2719 10.2323 57.3281 10.3696 57.3281 10.5302C57.3281 10.6919 57.2719 10.8304 57.1584 10.9449C57.046 11.0587 56.9082 11.1159 56.7468 11.1159C56.5854 11.1159 56.448 11.0586 56.3356 10.9449C56.2228 10.8304 56.1674 10.6919 56.1674 10.5302C56.1674 10.3696 56.2228 10.2323 56.336 10.1184C56.4499 10.0046 56.5869 9.94737 56.7468 9.94737C56.9078 9.94737 57.0452 10.0047 57.1584 10.1184ZM57.2259 10.0532C57.0935 9.92224 56.9342 9.85635 56.7468 9.85635C56.5608 9.85635 56.4027 9.92237 56.2707 10.0532C56.1387 10.1854 56.073 10.3443 56.073 10.5302C56.073 10.7179 56.1383 10.8778 56.2689 11.0098C56.4001 11.1424 56.5601 11.2085 56.7469 11.2085C56.9344 11.2085 57.0936 11.1424 57.226 11.0098C57.358 10.8775 57.4244 10.7177 57.4244 10.5302C57.4241 10.3439 57.3578 10.1852 57.2259 10.0532V10.0532ZM56.8472 10.499C56.8197 10.5095 56.7783 10.5157 56.7228 10.5157H56.6054V10.2472H56.7168C56.7889 10.2472 56.8419 10.2559 56.8749 10.2743C56.9076 10.2927 56.9239 10.3291 56.9239 10.3828C56.9237 10.4399 56.898 10.4787 56.8472 10.499V10.499ZM56.4744 10.8996H56.6052V10.6067H56.7085C56.7771 10.6067 56.8264 10.6146 56.8539 10.6307C56.9004 10.6586 56.9235 10.7151 56.9235 10.8007V10.8602L56.9264 10.8834C56.9272 10.8871 56.9279 10.8896 56.9282 10.8921L56.9297 10.8997H57.0526L57.0479 10.8906C57.0438 10.878 57.0415 10.8648 57.0413 10.8515C57.0402 10.8331 57.0396 10.8148 57.0396 10.7964V10.742C57.0396 10.7047 57.0258 10.6663 56.9986 10.6268C56.9717 10.588 56.9293 10.5636 56.871 10.5547C56.9174 10.5471 56.9533 10.5351 56.9791 10.5188C57.0277 10.4877 57.0512 10.4384 57.0512 10.3724C57.0512 10.2789 57.0135 10.2161 56.9366 10.1847C56.8938 10.1669 56.8264 10.1579 56.7339 10.1579H56.4743V10.8996H56.4744Z" fill="#18488A"/>
</g>
<defs>
<clipPath id="clip0">
<path d="M0.117676 0.414673H57.4353V14.7373H0.117676V0.414673Z" fill="white"/>
</clipPath>
</defs>
</svg>
