<svg width="52" height="52" viewBox="0 0 52 52" fill="none" xmlns="http://www.w3.org/2000/svg">
<path d="M48.8019 37.313C47.2355 37.313 45.9668 38.4872 45.9668 39.9401C45.9668 41.3868 47.2355 42.5611 48.8019 42.5611C50.3652 42.5611 51.634 41.3868 51.634 39.9401C51.634 38.4872 50.3652 37.313 48.8019 37.313V37.313ZM48.8019 42.0914C47.5175 42.0914 46.4774 41.1269 46.4774 39.9401C46.4774 38.7502 47.5175 37.7858 48.8019 37.7858C50.0864 37.7858 51.1234 38.7502 51.1234 39.9401C51.1234 41.1269 50.0864 42.0914 48.8019 42.0914V42.0914ZM0.609863 37.6543V46.0901C0.609863 50.8027 3.54218 51.5855 5.9983 51.5855C9.63237 51.5855 11.3147 49.2276 11.3147 46.0431V37.6512H8.91182V46.328C8.91182 47.424 8.54528 49.4688 5.9983 49.428C3.68002 49.3873 3.25709 47.2987 3.25709 45.9554V37.6543H0.609863ZM21.3616 38.2054C21.3616 38.2054 19.8265 37.4601 18.0816 37.4601C15.9105 37.4601 13.1787 38.553 13.1787 41.5434C13.1787 43.6163 14.7357 44.5964 15.7946 45.1006C16.3585 45.3699 17.0415 45.6705 17.6054 45.9679C17.8967 46.1245 19.0527 46.5065 19.0527 47.7309C19.0527 49.046 17.5866 49.4907 16.9287 49.4907C14.5853 49.4907 12.9876 48.4448 12.9876 48.4448L13.2351 51.0751C13.2351 51.0751 14.1937 51.5542 17.0603 51.5605C19.7952 51.5511 21.7658 49.8257 21.7658 47.4522C21.7658 45.6266 20.497 44.5432 19.4099 44.0265C18.5578 43.6195 18.0628 43.394 17.3203 43.0495C16.5778 42.7051 15.8103 42.1133 15.8103 41.1958C15.8103 40.2126 16.7313 39.5049 18.0816 39.5049C20.074 39.5049 20.8729 40.3879 21.3616 40.6635V38.2054ZM40.9261 37.6324H38.0439L38.5013 38.7753L34.0213 50.5021L29.4004 37.6324H26.5182L26.9756 38.7753L22.2012 51.2787H24.8077L25.6411 48.8989H30.5784L31.4086 51.2787H36.3365L37.1729 48.8989H42.1071L42.9405 51.2787H45.8289L40.9261 37.6324ZM26.2895 47.0482L28.2068 41.7062L29.9173 47.0482H26.2895ZM37.8183 47.0482L39.7293 41.7062L41.443 47.0482H37.8183Z" fill="#1A3258"/>
<path d="M49.3632 40.0183C49.3632 40.0183 49.9271 39.8273 49.9271 39.3169C49.9271 38.8034 49.4102 38.5153 48.7774 38.5153C48.1445 38.5153 47.7592 38.6593 47.7592 38.6593V41.1706H48.5111V40.2532H48.7366L49.5324 41.1612H50.4879L49.3632 40.0183ZM48.862 39.8273H48.5111V38.9912C48.5111 38.9912 49.1345 38.938 49.1345 39.3482C49.1345 39.7678 48.8588 39.8273 48.8588 39.8273H48.862ZM0.459961 22.3044L0.585274 26.5693C0.585274 26.5693 1.65043 25.7958 2.84403 25.7958C4.04077 25.7958 5.38788 26.6413 5.38788 26.6413L16.0802 32.7693L16.9856 28.9178L5.38788 22.2668C5.38788 22.2668 4.04077 21.4308 2.84403 21.4308C1.64417 21.4308 0.463094 22.3076 0.463094 22.3076" fill="#1A3258"/>
<path d="M0.459961 16.7306L0.585274 20.9955C0.585274 20.9955 1.65043 20.222 2.84404 20.222C4.04077 20.222 5.38789 21.0644 5.38789 21.0644L17.2331 27.8562L18.1353 24.0047L5.38475 16.693C5.38475 16.693 4.04391 15.8539 2.84404 15.8539C1.64417 15.8539 0.463094 16.7306 0.463094 16.7306" fill="#1A3258"/>
<path d="M0.459961 11.1569L0.585274 15.4218C0.585274 15.4218 1.65043 14.6452 2.84404 14.6452C4.04077 14.6452 5.38789 15.4906 5.38789 15.4906L18.3891 22.9432L19.2913 19.0916L5.38789 11.1193C5.38789 11.1193 4.04077 10.2833 2.84404 10.2833C1.64417 10.2833 0.463094 11.1569 0.463094 11.1569" fill="#1A3258"/>
<path d="M22.7437 4.37136L23.9342 9.40339L40.2186 18.7347C40.2186 18.7347 41.4967 19.5739 42.7561 19.5739C44.0155 19.5739 45.1402 18.6972 45.1402 18.6972L45.0149 14.4323C45.0149 14.4323 43.9967 15.2057 42.7561 15.2057C41.5124 15.2057 40.2186 14.3634 40.2186 14.3634L27.6215 7.14258L26.7506 3.90792C26.7506 3.77014 26.8759 3.70752 26.9229 3.69812L29.0532 3.04054C29.3414 3.04054 29.5075 3.28479 29.5075 3.48832L29.6202 3.72004C29.6986 3.76075 30.0181 3.60731 30.04 3.59479V2.31721C30.0401 2.10563 29.998 1.89616 29.9164 1.70097C29.8347 1.50577 29.715 1.32874 29.5643 1.18016C29.4137 1.03157 29.2349 0.914402 29.0385 0.835447C28.8422 0.756493 28.632 0.71733 28.4204 0.720234H26.2901C26.2901 0.720234 25.9768 3.05176e-05 25.0714 3.05176e-05H21.0238C19.9586 3.05176e-05 19.6986 0.989528 19.6986 0.989528L16.8885 12.1433L5.38792 5.54873C5.38792 5.54873 4.14106 4.70328 2.84407 4.70328C1.54709 4.70328 0.463135 5.58005 0.463135 5.58005L0.585315 9.84804C0.585315 9.84804 1.54396 9.0746 2.84094 9.0746C4.13793 9.0746 5.38792 9.92006 5.38792 9.92006L19.5388 18.027L22.7437 4.37136Z" fill="#1A3258"/>
<path d="M24.2534 10.7844L25.4439 15.8383L40.2182 24.3054C40.2182 24.3054 41.5402 25.1508 42.7558 25.1508C43.9713 25.1508 45.1398 24.2709 45.1398 24.2709L45.0177 20.0061C45.0177 20.0061 44.0715 20.7795 42.7558 20.7795C41.44 20.7795 40.2182 19.9403 40.2182 19.9403L24.2534 10.7844Z" fill="#1A3258"/>
<path d="M25.7668 17.2254L26.9573 22.2825L40.2185 29.8791C40.2185 29.8791 41.5405 30.7215 42.7561 30.7215C43.9716 30.7215 45.1401 29.8447 45.1401 29.8447L45.0148 25.5798C45.0148 25.5798 44.075 26.3532 42.7561 26.3532C41.4403 26.3532 40.2185 25.514 40.2185 25.514L25.7668 17.2254Z" fill="#1A3258"/>
<path d="M27.2859 23.6728L28.4701 28.7205L40.2181 35.4529C40.2181 35.4529 41.5402 36.2983 42.7557 36.2983C43.9681 36.2983 45.1398 35.4184 45.1398 35.4184L45.0145 31.1567C45.0145 31.1567 44.0746 31.927 42.7557 31.927C41.4368 31.927 40.2181 31.0847 40.2181 31.0847L27.2859 23.6728Z" fill="#1A3258"/>
</svg>
