<svg width="52" height="52" viewBox="0 0 52 52" fill="none" xmlns="http://www.w3.org/2000/svg">
<g clip-path="url(#clip0)">
<path d="M0.529297 0H51.7058V51.1521H0.529297V0Z" fill="#CD1309"/>
<path d="M12.2274 30.1804C12.2274 29.5955 12.1543 29.0843 11.9352 28.6455C11.6429 28.2796 11.1308 28.2081 10.3265 28.2081H8.49862V30.3994H9.0838C9.9612 30.3994 10.1073 30.1804 10.1073 29.0851H10.8386V32.739H10.1073C10.1073 31.4955 9.9612 31.2041 9.0838 31.2041H8.49862V33.1049C8.49862 33.7628 8.57168 33.7628 9.22991 33.7628H10.0343V34.6383H5.57419V33.7628H6.01253C6.5977 33.7628 6.81687 33.6883 6.81687 33.1049V28.7922C6.81687 28.2081 6.59698 28.1358 6.01253 28.1358H5.57419V27.3325H13.0317V30.1818L12.2274 30.1804V30.1804ZM29.0427 32.5923H28.3852C28.3852 33.3955 28.3852 33.7613 27.9461 33.7613C27.727 33.7613 27.5085 33.5408 27.5085 33.1034V32.7376C27.4347 31.7153 27.2163 31.2764 25.9729 30.9106C27.3617 30.7653 28.166 30.1074 28.166 29.0851C28.166 27.8422 27.2886 27.3311 25.4608 27.3311H20.4162V28.1343H21.0021C21.6604 28.1343 21.7334 28.2081 21.7334 28.7908V33.1034C21.7334 33.6146 21.4412 33.7613 21.0021 33.7613H20.49C20.0517 33.7613 19.8318 33.6146 19.6126 33.1034L17.2734 27.3311H15.5171L13.0303 33.1034C12.8111 33.6146 12.665 33.7613 12.0806 33.7613H11.7883V34.6369H15.5902V33.7613H14.7858C14.4205 33.7613 14.2006 33.7613 14.2006 33.5408C14.2006 33.4664 14.2737 33.321 14.3468 33.1743L14.712 32.2973H17.4904L17.8556 33.102C17.9287 33.2473 17.9287 33.3933 17.9287 33.4664C17.9287 33.7599 17.7095 33.7599 17.3435 33.7599H16.5392V34.6354H24.8004V33.7599H24.1421C23.4839 33.7599 23.4108 33.7599 23.4108 33.102V31.2012H24.1421C25.3848 31.2012 25.7508 31.4218 25.8239 32.6624V33.4656C25.8969 34.4894 26.5552 34.7815 27.578 34.7815C28.4554 34.7815 29.0398 34.2703 29.0398 32.8807C29.0427 32.8106 29.0427 32.6638 29.0427 32.5923V32.5923ZM15.0057 31.4225L16.1753 28.6448L17.2719 31.4225H15.0057V31.4225ZM24.9486 30.3257L23.413 30.3994V28.1343H24.9486C25.9722 28.1343 26.4843 28.4264 26.4843 29.2304V29.3048C26.4835 30.0336 25.9722 30.3257 24.9486 30.3257V30.3257ZM35.5498 29.6678C35.1838 28.5717 34.4525 28.0606 33.2829 28.0606C32.114 28.0606 31.1621 29.0099 31.1621 30.9092C31.1621 32.8099 31.8941 33.7599 33.2829 33.8322C34.2333 33.8322 35.1107 33.321 35.1107 32.5185V32.0797C35.1107 31.5685 35.037 31.5685 34.3071 31.5685H33.9411V30.7653H37.3769V31.5685H37.0854C36.574 31.5685 36.4995 31.5685 36.4995 32.1534V34.5653H35.8413L35.4753 33.9804C34.8171 34.4916 33.8666 34.7836 32.9892 34.7836C31.9657 34.7836 31.1621 34.4178 30.5031 33.6869C29.7725 32.9552 29.3335 32.0059 29.3335 30.9092C29.3335 29.7401 29.6995 28.8631 30.4308 28.1329C31.089 27.475 32.0395 27.1836 33.0637 27.1836C33.8666 27.1836 34.8185 27.4027 35.3299 27.9861L35.6945 27.1836H36.2811V29.6678H35.5498V29.6678ZM42.2016 34.7099C39.79 34.7099 37.8883 33.2487 37.8883 30.9099C37.8883 28.6448 39.79 27.1843 42.2016 27.1843C44.6146 27.1843 46.4425 28.6455 46.4425 30.9843C46.4432 33.2487 44.6146 34.7099 42.2016 34.7099ZM44.6876 30.9836C44.6876 28.3519 42.9328 28.0606 42.2016 28.0606C40.8128 28.0606 39.7147 29.0843 39.7147 30.9836C39.7147 32.8829 40.8128 33.9067 42.2016 33.9067C42.9336 33.9067 44.6876 33.5416 44.6876 30.9836ZM30.7244 22.2875C30.5053 22.7257 29.9924 22.7994 29.115 22.7994H27.2879V17.9033C27.2879 17.3192 27.434 17.2454 28.1653 17.2454H28.6774V16.3684H24.2911V17.2454H24.6564C25.3146 17.2454 25.6799 17.2454 25.6799 17.9033V22.2152C25.6799 22.7994 25.3877 22.8724 24.7295 22.8724H24.3635V23.6764H31.8948V20.7533H31.0174C31.0167 21.4105 30.9436 21.8494 30.7244 22.2875V22.2875ZM21.1468 22.7994H18.8075V20.3145H19.3197C20.1971 20.3145 20.3432 20.4605 20.4162 21.7026H21.2206V18.0487H20.4162C20.3432 19.1447 20.1971 19.4368 19.3197 19.4368H18.8075V17.2447H20.7815C22.2434 17.2447 22.6824 17.5368 22.7555 19.2177H23.5598V16.3684H12.7395V17.2454H13.2516C13.69 17.2454 13.8368 17.3192 13.8368 17.5375C13.8368 17.6843 13.8368 17.8303 13.7638 18.1224L12.375 21.7764H12.3019C11.6437 19.9494 10.7663 17.8303 10.7663 17.8303C10.6932 17.6843 10.6932 17.6105 10.6932 17.5375C10.6932 17.3184 10.8393 17.2454 11.2053 17.2454H11.7905V16.3684H7.91561V17.2454H8.42773C9.01291 17.2454 9.23208 17.5375 9.30513 18.1224L7.84328 21.7764H7.77022C7.11199 19.8033 6.23459 17.7573 6.23459 17.7573C6.16153 17.6843 6.23459 17.6112 6.23459 17.5382C6.16153 17.3192 6.3807 17.2461 6.81977 17.2461H7.11199V16.3684H3.4541V17.2454H3.60021C4.11233 17.2454 4.54995 17.5375 4.76984 18.1954L6.96299 23.6757H8.27873L9.88742 19.6566L11.5692 23.6757H12.8849L14.9319 18.1217C15.2242 17.4638 15.3703 17.2447 16.0285 17.2447H16.1016C16.7598 17.2447 17.1251 17.2447 17.1251 17.9026V22.2145C17.1251 22.7987 16.7598 22.8717 16.1016 22.8717H15.6632V23.6757H23.7052V20.7526H22.8278C22.7555 22.2152 22.4625 22.7994 21.1468 22.7994ZM38.8395 20.7533C38.8395 21.4113 38.7657 21.8494 38.5473 22.2883C38.3274 22.7264 37.816 22.8001 36.9386 22.8001H35.1838V17.9041C35.1838 17.3199 35.3299 17.2461 35.9881 17.2461H36.5733V16.3684H32.1132V17.2454H32.6254C33.2113 17.2454 33.502 17.2454 33.502 17.9033V22.2152C33.502 22.7994 33.2829 22.8724 32.6254 22.8724H32.4785V23.6764H39.7169V20.7533H38.8395V20.7533ZM47.173 21.5566C47.173 23.2375 45.858 23.8217 43.9571 23.8217C42.7875 23.8217 41.6186 23.1638 41.3979 22.9447L41.1057 23.6757H40.3744V20.7526H41.2518C41.4717 22.1408 42.4214 22.7257 43.7379 22.7987C44.9075 22.8717 45.7119 22.5796 45.7849 21.7757C45.9318 20.8256 44.9075 20.8987 44.0316 20.7526L42.7875 20.5336C40.9603 20.1677 40.3014 19.6566 40.3014 18.4138C40.2276 17.0986 41.471 16.2217 43.079 16.2217C43.884 16.2217 44.9068 16.3677 45.6388 16.9526L46.0041 16.3677H46.6616V18.9256H45.858C45.7119 17.5375 44.2486 17.0986 43.079 17.0986C42.2016 17.1724 41.6902 17.6105 41.6902 18.1954C41.6902 18.7796 42.2016 18.8533 42.8598 18.9994L44.3954 19.2184C46.0041 19.5105 47.173 19.8033 47.173 21.5566V21.5566Z" fill="#FFFF00"/>
</g>
<defs>
<clipPath id="clip0">
<path d="M0.529297 0H51.7058V51.1521H0.529297V0Z" fill="white"/>
</clipPath>
</defs>
</svg>
