<svg width="245" height="168" viewBox="0 0 245 168" fill="none" xmlns="http://www.w3.org/2000/svg">
<path d="M244.122 153.396C244.122 155.285 243.751 157.155 243.028 158.9C242.305 160.645 241.246 162.23 239.91 163.566C238.575 164.901 236.989 165.961 235.245 166.683C233.5 167.406 231.63 167.778 229.741 167.778H15.2206C11.4064 167.778 7.74847 166.263 5.05142 163.566C2.35438 160.869 0.839203 157.211 0.839203 153.396V14.3814C0.839203 10.5672 2.35438 6.90927 5.05142 4.21224C7.74847 1.51518 11.4064 0 15.2206 0H229.741C233.555 0 237.213 1.51518 239.91 4.21224C242.607 6.90927 244.122 10.5672 244.122 14.3814V153.396Z" fill="#F3F2F2"/>
<path d="M31.3748 86.941C29.6327 87.1591 26.5828 87.8117 24.8402 89.3368C19.6125 93.91 22.6621 101.967 33.3356 101.967C39.4345 101.967 45.5337 98.0471 50.3258 91.9496C43.3554 88.6829 37.6918 86.2871 31.3748 86.941Z" fill="#2BA6DF"/>
<path d="M70.4185 92.5495C80.2206 95.8162 82.3986 96.034 82.3986 96.034V61.1904C82.3986 55.311 77.6065 50.5203 71.5075 50.5203H25.7639C19.8825 50.5203 14.8726 55.3113 14.8726 61.1913V106.924C14.8726 112.804 19.6648 117.594 25.7639 117.594H71.5075C77.3887 117.594 82.3986 112.803 82.3986 106.923V106.488C82.3986 106.488 64.973 99.3021 56.0419 94.9464C50.161 102.133 42.537 106.706 34.4776 106.706C20.9725 106.706 16.3981 94.9464 22.9328 87.3243C24.2395 85.5822 26.6358 84.0576 30.3386 83.187C36.0022 81.8799 45.1511 84.0576 53.6461 86.8893C55.1704 84.0576 56.4775 81.0093 57.349 77.7426H30.9922V75.1293H44.4974V69.9029H27.9428V67.2896H44.4974V60.539C44.4974 60.539 44.4974 59.45 45.5861 59.45H52.1212V67.5077H68.4581V69.9038H52.1212V74.6945H65.4086C64.1018 79.9205 62.1411 84.7121 59.745 88.8492C64.1015 90.3735 67.8044 91.6805 70.4185 92.5509V92.5495Z" fill="#2BA6DF"/>
<path d="M113.487 66.3511L127.863 97.4921H120.239L116.318 89.216H104.555L100.635 97.4921H95.6248L110.219 67.222C110.219 67.222 110.654 66.3511 111.526 66.3511H113.487ZM105.863 86.3852H115.012L110.437 76.5854L105.863 86.3852ZM137.603 97.7393H130.633V68.1227C130.633 67.252 131.068 66.8156 132.157 66.8156H137.603V97.7393ZM150.672 97.5367H143.702V75.1068C143.702 74.2356 144.137 73.7997 145.226 73.7997H150.672V97.5367ZM159.195 74.2654H163.77V76.4431C164.641 75.7897 165.513 75.136 166.602 74.9188C167.691 74.4834 168.78 74.2654 170.305 74.2654C171.828 74.2654 173.136 74.4834 174.226 75.136C175.532 75.7897 176.404 76.4431 177.275 77.5321C178.145 78.6208 178.799 79.7098 179.235 81.0168C179.67 82.3233 179.888 83.6296 179.888 85.1533C179.888 87.1132 179.67 88.8559 179.018 90.3799C178.364 91.9039 177.71 93.4285 176.621 94.5173C175.532 95.606 174.443 96.6947 172.918 97.3484C171.394 98.0015 169.869 98.2187 168.126 98.2187H165.73C165.077 98.2187 164.423 98.0006 163.77 97.7837V105.624H156.799V77.0956C156.582 74.2654 157.67 74.2654 159.195 74.2654ZM163.77 91.2511C163.77 91.9048 163.77 92.3401 163.987 92.7754C164.205 93.2107 164.423 93.6458 164.859 94.0825C165.293 94.5178 165.729 94.7356 166.166 94.9534C166.601 95.1715 167.255 95.1715 167.909 95.1715C168.561 95.1715 168.997 94.9534 169.651 94.5178C170.086 94.0825 170.74 93.6466 170.959 92.7754C171.176 91.9048 171.612 91.2511 171.829 90.1621C172.048 89.0734 172.265 88.2022 172.265 86.8957C172.265 85.3714 172.265 84.0649 172.047 82.9759C171.828 81.8872 171.611 81.016 171.176 80.1448C170.74 79.4917 170.305 78.838 169.869 78.4027C169.433 77.9671 168.78 77.749 168.126 77.749C167.691 77.749 167.255 77.749 166.819 77.9671C166.383 78.1852 165.948 78.4027 165.729 78.6205C165.294 78.8383 165.076 79.2742 164.641 79.4917C164.204 79.9267 163.987 80.1448 163.77 80.5804V91.2511ZM193.179 74.2654C194.922 74.2654 196.229 74.4834 197.536 74.701C198.625 74.9188 199.714 75.3544 200.585 76.0075C201.456 76.6611 201.892 77.3143 202.328 77.9677C202.763 78.8386 202.982 79.7098 202.982 80.5804V97.7839H196.011V96.0416C195.576 96.4774 195.141 96.6952 194.922 96.9122L193.615 97.5662C193.179 97.784 192.744 98.0012 192.091 98.0012C191.437 98.2193 190.783 98.2193 190.13 98.2193C189.042 98.2193 188.17 98.0009 187.298 97.7839C186.428 97.5662 185.774 97.1303 185.12 96.4774C184.466 96.0416 184.031 95.3884 183.813 94.5173C183.595 93.8636 183.377 92.9932 183.377 92.1218C183.377 91.25 183.595 90.3788 183.813 89.726C184.031 89.072 184.684 88.4189 185.12 87.7663C185.555 87.1124 186.427 86.6773 187.08 86.2415C187.951 85.8064 188.605 85.3711 189.694 84.9344C190.565 84.4996 191.436 84.2816 192.526 83.8462C193.397 83.6282 194.486 83.1926 195.357 82.9753L196.228 82.7575V80.3615C196.228 79.7084 196.228 79.055 196.011 78.4018L195.357 77.0951C195.139 76.8773 194.703 76.4417 194.487 76.4417C194.051 76.2239 193.615 76.2239 193.179 76.2239C193.179 76.2239 189.476 76.2239 186.209 79.055L184.684 76.6592C184.032 77.0962 187.952 74.2654 193.179 74.2654ZM195.575 85.807C194.921 86.0254 194.268 86.4604 193.615 86.896L191.655 88.2031C191.001 88.6381 190.566 89.0737 190.348 89.7271C189.912 90.1627 189.912 90.8158 189.912 91.2514C189.912 91.6867 189.912 92.1226 190.13 92.5585C190.348 92.9938 190.348 93.2119 190.565 93.6475C190.784 94.0825 191.001 94.0825 191.219 94.3006C191.437 94.5189 191.655 94.5189 192.09 94.5189C192.744 94.5189 193.179 94.3006 193.833 94.0833L195.793 92.7765V85.8078L195.575 85.807ZM212.472 105.406H207.897L207.68 101.269C207.68 101.269 213.343 101.487 215.086 99.3091C215.739 98.4379 216.174 96.0424 216.174 96.0424L204.848 74.2656H212.472L219.66 88.4211L225.977 74.2656H230.987L219.442 99.9628C219.007 100.834 217.264 105.407 212.472 105.406Z" fill="#3F3A39"/>
<path d="M147.21 70.481C149.134 70.481 150.695 69.0996 150.695 67.3957C150.695 65.692 149.134 64.3105 147.21 64.3105C145.285 64.3105 143.724 65.692 143.724 67.3957C143.724 69.0996 145.285 70.481 147.21 70.481Z" fill="#2BA6DF"/>
<path d="M220.079 56.0755H217.683V55.6396H222.91V56.0755H220.514V62.8262H219.86V56.0755H220.079ZM223.969 55.6396H224.839L226.364 59.7773L227.018 61.3019C227.236 60.8663 227.453 60.2129 227.671 59.7773L229.195 55.6396H230.067V63.044H229.197V56.5106L228.543 58.2532L227.018 62.6086H226.583L225.059 58.2532L224.405 56.5106V63.044H223.751V55.6396H223.969Z" fill="#3F3A39"/>
</svg>
