<svg width="244" height="168" viewBox="0 0 244 168" fill="none" xmlns="http://www.w3.org/2000/svg">
<path d="M243.559 153.396C243.559 155.285 243.187 157.155 242.465 158.9C241.742 160.645 240.682 162.23 239.347 163.566C238.012 164.901 236.426 165.961 234.681 166.683C232.936 167.406 231.066 167.778 229.178 167.778H14.6574C10.8432 167.778 7.18527 166.263 4.48821 163.566C1.79118 160.869 0.276001 157.211 0.276001 153.396V14.3814C0.276001 10.5672 1.79118 6.90927 4.48821 4.21224C7.18527 1.51518 10.8432 0 14.6574 0H229.178C232.992 0 236.65 1.51518 239.347 4.21224C242.044 6.90927 243.559 10.5672 243.559 14.3814V153.396Z" fill="#F3F2F2"/>
<path d="M55.5786 53.2241C53.1115 56.1385 49.1642 58.4372 45.2169 58.1088C44.7235 54.1682 46.6559 49.9815 48.9175 47.3954C51.3846 44.399 55.7021 42.2645 59.197 42.1003C59.6081 46.2051 58.0047 50.2277 55.5786 53.2241ZM59.156 58.8885C53.4404 58.5601 48.5473 62.1314 45.8335 62.1314C43.0787 62.1314 38.9257 59.0527 34.4027 59.1349C28.5227 59.2169 23.0541 62.5417 20.0525 67.8368C13.8847 78.427 18.4489 94.107 24.411 102.727C27.3304 106.996 30.8253 111.675 35.4308 111.511C39.7893 111.347 41.5163 108.678 46.7793 108.678C52.0837 108.678 53.6049 111.511 58.2101 111.429C62.9798 111.347 65.9815 107.16 68.9011 102.891C72.2315 98.0473 73.5885 93.3271 73.6707 93.0806C73.5885 92.9987 64.46 89.5097 64.3778 79.0018C64.2956 70.2177 71.5736 66.0307 71.9025 65.7845C67.7907 59.7095 61.3763 59.0527 59.156 58.8885ZM92.1738 46.9848V110.977H102.124V89.0991H115.899C128.481 89.0991 137.322 80.4792 137.322 68.001C137.322 55.5227 128.646 46.9848 116.228 46.9848H92.1738ZM102.124 55.3585H113.596C122.231 55.3585 127.166 59.9559 127.166 68.0419C127.166 76.1283 122.231 80.7666 113.555 80.7666H102.124V55.3585ZM155.496 111.47C161.746 111.47 167.544 108.309 170.175 103.301H170.381V110.977H179.591V79.1247C179.591 69.8893 172.19 63.9375 160.8 63.9375C150.233 63.9375 142.42 69.9713 142.132 78.2628H151.096C151.836 74.3222 155.496 71.7364 160.512 71.7364C166.598 71.7364 170.011 74.5686 170.011 79.7815V83.3114L157.593 84.0504C146.039 84.7482 139.789 89.4687 139.789 97.678C139.789 105.969 146.244 111.47 155.496 111.47ZM158.169 103.876C152.864 103.876 149.493 101.331 149.493 97.4318C149.493 93.409 152.741 91.0694 158.95 90.7L170.011 90.0023V93.6145C170.011 99.6073 164.912 103.876 158.169 103.876ZM191.885 128.381C201.589 128.381 206.153 124.687 210.142 113.481L227.617 64.553H217.502L205.784 102.357H205.578L193.859 64.553H183.456L200.315 111.141L199.41 113.974C197.889 118.776 195.422 120.623 191.022 120.623C190.241 120.623 188.719 120.541 188.103 120.459V128.135C188.678 128.299 191.145 128.381 191.885 128.381Z" fill="black"/>
</svg>
