<svg width="244" height="168" viewBox="0 0 244 168" fill="none" xmlns="http://www.w3.org/2000/svg">
<path d="M243.841 153.396C243.841 155.285 243.469 157.155 242.746 158.9C242.023 160.645 240.964 162.23 239.629 163.566C238.293 164.901 236.708 165.961 234.963 166.683C233.218 167.406 231.348 167.778 229.459 167.778H14.939C11.1248 167.778 7.46682 166.263 4.76977 163.566C2.07274 160.869 0.557556 157.211 0.557556 153.396V14.3814C0.557556 10.5672 2.07274 6.90927 4.76977 4.21224C7.46682 1.51518 11.1248 0 14.939 0H229.459C233.274 0 236.932 1.51518 239.629 4.21224C242.326 6.90927 243.841 10.5672 243.841 14.3814V153.396Z" fill="#F3F2F2"/>
<path d="M116.805 81.9151V105.671H108.824V47.0039H129.991C132.517 46.9542 135.029 47.3772 137.382 48.249C139.734 49.1207 141.881 50.4239 143.697 52.0829C145.532 53.6412 146.992 55.5525 147.98 57.6881C148.967 59.8237 149.459 62.1342 149.422 64.4643C149.475 66.8067 148.991 69.1324 148.002 71.2814C147.014 73.4308 145.545 75.3528 143.697 76.9159C139.996 80.2488 135.427 81.9137 129.991 81.9106H116.805V81.9151ZM116.805 54.2269V74.7064H130.189C131.656 74.7474 133.116 74.4987 134.476 73.9767C135.836 73.4544 137.065 72.6696 138.086 71.673C139.101 70.7412 139.907 69.6266 140.458 68.3953C141.009 67.164 141.293 65.8407 141.293 64.5041C141.293 63.1673 141.009 61.844 140.458 60.6127C139.907 59.3814 139.101 58.2669 138.086 57.335C137.078 56.3173 135.853 55.5135 134.492 54.9769C133.13 54.4402 131.663 54.1829 130.189 54.2221H116.805V54.2269Z" fill="#5F6368"/>
<path d="M168.813 63.2202C174.712 63.2202 179.369 64.7089 182.782 67.6859C186.196 70.663 187.901 74.745 187.898 79.9315V104.671H180.264V99.1006H179.917C176.612 103.688 172.217 105.982 166.731 105.982C162.049 105.982 158.131 104.671 154.978 102.05C153.465 100.846 152.255 99.3397 151.437 97.6388C150.619 95.9383 150.213 94.0867 150.249 92.2194C150.249 88.0655 151.911 84.7623 155.236 82.3096C158.56 79.8565 162.999 78.6272 168.55 78.6208C173.29 78.6208 177.193 79.44 180.259 81.0783V79.3558C180.268 78.0827 179.977 76.8236 179.407 75.6698C178.837 74.516 178.002 73.4966 176.963 72.6852C174.852 70.8872 172.102 69.906 169.259 69.9374C164.801 69.9374 161.274 71.7132 158.676 75.2645L151.647 71.0843C155.513 65.8417 161.235 63.2202 168.813 63.2202ZM158.488 92.3831C158.482 93.3424 158.72 94.2888 159.18 95.1437C159.641 95.9986 160.311 96.7373 161.135 97.2981C162.9 98.6094 165.091 99.304 167.336 99.2642C170.704 99.2589 173.932 97.993 176.313 95.744C178.957 93.3943 180.279 90.637 180.279 87.4728C177.791 85.6004 174.32 84.6641 169.869 84.6641C166.627 84.6641 163.924 85.4023 161.759 86.8783C159.573 88.3762 158.488 90.1972 158.488 92.3831Z" fill="#5F6368"/>
<path d="M231.719 62.5312L205.069 120.366H196.831L206.72 100.13L189.197 62.5312H197.872L210.537 91.3665H210.711L223.029 62.5312H231.719Z" fill="#5F6368"/>
<path d="M84.5538 81.4732C84.5568 79.1765 84.3511 76.8837 83.9391 74.6201H50.2805V87.6007H69.5588C69.1642 89.6738 68.3292 91.6502 67.1041 93.4103C65.8789 95.1706 64.2892 96.6784 62.4304 97.8429V106.269H73.9358C80.6724 100.403 84.5538 91.7294 84.5538 81.4732Z" fill="#4285F4"/>
<path d="M50.2806 114.409C59.9122 114.409 68.0219 111.423 73.9358 106.274L62.4304 97.8477C59.228 99.8983 55.1038 101.068 50.2806 101.068C40.9711 101.068 33.0694 95.1421 30.2439 87.1562H18.3915V95.8398C21.3622 101.422 25.9173 106.114 31.5485 109.393C37.1795 112.672 43.6649 114.409 50.2806 114.409Z" fill="#34A853"/>
<path d="M30.2439 87.1558C28.75 82.9713 28.75 78.4396 30.2439 74.2548V65.5715H18.3914C15.8924 70.2674 14.5909 75.4499 14.5909 80.7054C14.5909 85.9607 15.8924 91.1435 18.3914 95.8391L30.2439 87.1558Z" fill="#FBBC04"/>
<path d="M50.2806 60.3429C55.3705 60.2646 60.2886 62.0806 63.9721 65.3986L74.159 55.779C67.6994 50.0497 59.1418 46.9043 50.2806 47.0022C43.6649 47.0025 37.1795 48.739 31.5485 52.018C25.9173 55.2974 21.3622 59.9899 18.3915 65.5718L30.2439 74.2551C33.0694 66.2693 40.9711 60.3429 50.2806 60.3429Z" fill="#EA4335"/>
</svg>
