<svg xmlns="http://www.w3.org/2000/svg" width="20" height="20" fill="none" viewBox="0 0 20 20"><path fill="#E5E5E5" d="M0 0h20v20H0z"/><g id="Icons"><path fill="#fff" d="M-396-49h816V951h-816z"/><g id="account_balance_wallet"><path id="icon/action/account_balance_wallet_24px" fill="#000" fill-rule="evenodd" d="M17.083 4.167v1.9c.492.291.834.816.834 1.433v5c0 .617-.342 1.142-.834 1.433v1.9c0 .917-.75 1.667-1.666 1.667H3.75c-.925 0-1.667-.75-1.667-1.667V4.167c0-.917.742-1.667 1.667-1.667h11.667c.916 0 1.666.75 1.666 1.667zM10.417 12.5h5.833v-5h-5.833v5zM3.75 15.833V4.167h11.667v1.666h-5c-.917 0-1.667.75-1.667 1.667v5c0 .917.75 1.667 1.667 1.667h5v1.666H3.75zM11.667 10a1.25 1.25 0 1 1 2.5 0 1.25 1.25 0 0 1-2.5 0z" clip-rule="evenodd"/></g></g></svg>