<svg xmlns="http://www.w3.org/2000/svg" width="20" height="20" fill="none" viewBox="0 0 20 20"><path fill="#E5E5E5" d="M0 0h20v20H0z"/><g id="Icons"><path fill="#fff" d="M-500-109h816V891h-816z"/><g id="add_circle_outline"><path id="icon/content/add_circle_outline_24px" fill="#000" fill-rule="evenodd" d="M10 1.667A8.336 8.336 0 0 0 1.667 10c0 4.6 3.733 8.333 8.333 8.333S18.333 14.6 18.333 10 14.6 1.667 10 1.667zm.833 4.166H9.167v3.334H5.833v1.666h3.334v3.334h1.666v-3.334h3.334V9.167h-3.334V5.833zM3.333 10A6.676 6.676 0 0 0 10 16.667 6.676 6.676 0 0 0 16.667 10 6.676 6.676 0 0 0 10 3.333 6.676 6.676 0 0 0 3.333 10z" clip-rule="evenodd"/></g></g></svg>