<svg xmlns="http://www.w3.org/2000/svg" width="20" height="20" fill="none" viewBox="0 0 20 20"><path fill="#E5E5E5" d="M0 0h20v20H0z"/><g id="Icons"><path fill="#fff" d="M-240-109h816V891h-816z"/><g id="attachment"><path id="icon/file/attachment_24px" fill="#000" d="M15 13.333H5.417a3.332 3.332 0 1 1 0-6.667h10.416a2.084 2.084 0 0 1 0 4.167h-8.75A.836.836 0 0 1 6.25 10c0-.458.375-.833.833-.833H15v-1.25H7.083a2.084 2.084 0 0 0 0 4.166h8.75a3.332 3.332 0 1 0 0-6.667H5.417A4.58 4.58 0 0 0 .833 10a4.58 4.58 0 0 0 4.584 4.583H15v-1.25z"/></g></g></svg>