<svg xmlns="http://www.w3.org/2000/svg" width="20" height="20" fill="none" viewBox="0 0 20 20"><path fill="#E5E5E5" d="M0 0h20v20H0z"/><g id="Icons"><path fill="#fff" d="M-396-109h816V891h-816z"/><g id="copy"><path id="icon/content/copy_24px" fill="#000" fill-rule="evenodd" d="M13.75.833h-10c-.917 0-1.667.75-1.667 1.667v11.667H3.75V2.5h10V.833zm2.5 3.334H7.083c-.916 0-1.666.75-1.666 1.666V17.5c0 .917.75 1.667 1.666 1.667h9.167c.917 0 1.667-.75 1.667-1.667V5.833c0-.916-.75-1.666-1.667-1.666zM7.083 17.5h9.167V5.833H7.083V17.5z" clip-rule="evenodd"/></g></g></svg>