<svg xmlns="http://www.w3.org/2000/svg" width="20" height="20" fill="none" viewBox="0 0 20 20"><path fill="#E5E5E5" d="M0 0h20v20H0z"/><g id="Icons"><path fill="#fff" d="M-448-109h816V891h-816z"/><g id="create"><path id="icon/content/create_24px" fill="#000" fill-rule="evenodd" d="M15.307 2.742l1.95 1.95a.83.83 0 0 1 0 1.175l-1.525 1.525-3.125-3.125 1.525-1.525a.82.82 0 0 1 .584-.242c.216 0 .425.075.591.242zM2.5 14.375V17.5h3.125l9.217-9.217-3.125-3.125L2.5 14.375zm2.433 1.458h-.766v-.766l7.55-7.55.766.766-7.55 7.55z" clip-rule="evenodd"/></g></g></svg>