<svg xmlns="http://www.w3.org/2000/svg" width="20" height="20" fill="none" viewBox="0 0 20 20"><path fill="#E5E5E5" d="M0 0h20v20H0z"/><g id="Icons"><path fill="#fff" d="M-136-109h816V891h-816z"/><g id="error_outline"><path id="icon/outlined/alert/error_outline_24px" fill="#000" fill-rule="evenodd" d="M9.992 1.667c-4.6 0-8.325 3.733-8.325 8.333s3.725 8.333 8.325 8.333c4.608 0 8.341-3.733 8.341-8.333S14.6 1.667 9.992 1.667zm.841 4.166H9.167v5h1.666v-5zm0 6.667H9.167v1.667h1.666V12.5zm-7.5-2.5A6.665 6.665 0 0 0 10 16.667 6.665 6.665 0 0 0 16.667 10 6.665 6.665 0 0 0 10 3.333 6.665 6.665 0 0 0 3.333 10z" clip-rule="evenodd"/></g></g></svg>