<svg xmlns="http://www.w3.org/2000/svg" width="20" height="20" fill="none" viewBox="0 0 20 20"><path fill="#E5E5E5" d="M0 0h20v20H0z"/><g id="Icons"><path fill="#fff" d="M-188-49h816V951h-816z"/><g id="extension"><path id="icon/action/extension_24px" fill="#000" fill-rule="evenodd" d="M6.875 3.958a2.084 2.084 0 0 1 4.167 0h3.333c.917 0 1.667.75 1.667 1.667v3.333a2.084 2.084 0 0 1 0 4.167v3.333c0 .917-.75 1.667-1.667 1.667h-3.167v-.25a2.251 2.251 0 0 0-4.5 0v.25H3.542c-.917 0-1.667-.75-1.667-1.667v-3.166h.25a2.251 2.251 0 0 0 0-4.5h-.242V5.625c0-.917.742-1.667 1.659-1.667h3.333zm2.5 0a.413.413 0 0 0-.417-.416.413.413 0 0 0-.416.416v1.667h-5l.008 1.767a3.918 3.918 0 0 1 2.492 3.65 3.925 3.925 0 0 1-2.5 3.65v1.766h1.766a3.925 3.925 0 0 1 3.65-2.5 3.925 3.925 0 0 1 3.65 2.5h1.767v-5h1.667a.413.413 0 0 0 .416-.416.413.413 0 0 0-.416-.417h-1.667v-5h-5V3.958z" clip-rule="evenodd"/></g></g></svg>