<svg xmlns="http://www.w3.org/2000/svg" width="20" height="20" fill="none" viewBox="0 0 20 20"><path fill="#E5E5E5" d="M0 0h20v20H0z"/><g id="Icons"><path fill="#fff" d="M-344-49h816V951h-816z"/><g id="how_to_reg"><path id="icon/content/how_to_reg_24px" fill="#000" fill-rule="evenodd" d="M12.083 6.458A3.332 3.332 0 1 1 8.75 3.125a3.332 3.332 0 0 1 3.333 3.333zm-1.666 0c0-.916-.75-1.666-1.667-1.666s-1.667.75-1.667 1.666c0 .917.75 1.667 1.667 1.667s1.667-.75 1.667-1.667zM3.75 14.792c.167-.525 2.142-1.4 4.133-1.617l1.7-1.667a7.792 7.792 0 0 0-.833-.05c-2.225 0-6.667 1.117-6.667 3.334v1.666h7.5l-1.666-1.666H3.75zm8.725-.275l4.275-4.309 1.167 1.175-5.442 5.492-2.892-2.917 1.167-1.175 1.725 1.734z" clip-rule="evenodd"/></g></g></svg>