<svg xmlns="http://www.w3.org/2000/svg" width="20" height="20" fill="none" viewBox="0 0 20 20"><path fill="#E5E5E5" d="M0 0h20v20H0z"/><g id="Icons"><path fill="#fff" d="M-32-49h816V951H-32z"/><g id="lightbulb"><path id="icon/action/lightbulb_24px" fill="#212025" fill-rule="evenodd" d="M10 1.667A5.84 5.84 0 0 0 4.167 7.5a5.83 5.83 0 0 0 2.5 4.783v1.884c0 .458.375.833.833.833h5a.836.836 0 0 0 .833-.833v-1.884a5.83 5.83 0 0 0 2.5-4.783A5.84 5.84 0 0 0 10 1.667zM7.5 17.5c0 .458.375.833.833.833h3.334a.836.836 0 0 0 .833-.833v-.833h-5v.833zm4.167-6.083l.708-.5A4.164 4.164 0 0 0 14.167 7.5c0-2.3-1.867-4.167-4.167-4.167A4.168 4.168 0 0 0 5.833 7.5c0 1.358.667 2.633 1.792 3.417l.708.5v1.916h3.334v-1.916z" clip-rule="evenodd"/></g></g></svg>