<svg xmlns="http://www.w3.org/2000/svg" width="20" height="20" fill="none" viewBox="0 0 20 20"><path fill="#E5E5E5" d="M0 0h20v20H0z"/><g id="Icons"><path fill="#fff" d="M-448-49h816V951h-816z"/><g id="local_mall"><path id="icon/maps/local_mall_24px" fill="#000" fill-rule="evenodd" d="M14.167 5.417h1.666c.917 0 1.667.75 1.667 1.666v10c0 .917-.75 1.667-1.667 1.667H4.167C3.25 18.75 2.5 18 2.5 17.083v-10c0-.916.75-1.666 1.667-1.666h1.666C5.833 3.117 7.7 1.25 10 1.25s4.167 1.867 4.167 4.167zm-1.667 0c0-1.384-1.117-2.5-2.5-2.5a2.497 2.497 0 0 0-2.5 2.5h5zm3.333 11.666H4.167v-10h11.666v10zM7.5 7.917c0 1.383 1.117 2.5 2.5 2.5s2.5-1.117 2.5-2.5h1.667c0 2.3-1.867 4.166-4.167 4.166a4.168 4.168 0 0 1-4.167-4.166H7.5z" clip-rule="evenodd"/></g></g></svg>