<svg xmlns="http://www.w3.org/2000/svg" width="20" height="20" fill="none" viewBox="0 0 20 20"><path fill="#E5E5E5" d="M0 0h20v20H0z"/><g id="Icons"><path fill="#fff" d="M-708-109h816V891h-816z"/><g id="lock"><path id="icon/action/lock_24px 2" fill="#000" fill-rule="evenodd" d="M14.167 7.083H15c.917 0 1.667.75 1.667 1.667v8.333c0 .917-.75 1.667-1.667 1.667H5c-.917 0-1.667-.75-1.667-1.667V8.75c0-.917.75-1.667 1.667-1.667h.833V5.417C5.833 3.117 7.7 1.25 10 1.25s4.167 1.867 4.167 4.167v1.666zM10 2.917a2.497 2.497 0 0 0-2.5 2.5v1.666h5V5.417c0-1.384-1.117-2.5-2.5-2.5zm5 14.166H5V8.75h10v8.333zm-3.333-4.166c0 .916-.75 1.666-1.667 1.666s-1.667-.75-1.667-1.666c0-.917.75-1.667 1.667-1.667s1.667.75 1.667 1.667z" clip-rule="evenodd"/></g></g></svg>