<svg xmlns="http://www.w3.org/2000/svg" width="53" height="11" fill="none" viewBox="0 0 53 11"><path fill="#000" fill-rule="evenodd" d="M.164 4.99l3.66 1.063-2.436 3.259 1.515 1.074L5.085 7.07l2.255 3.4 1.503-1.11-2.4-3.2 3.721-1.074-.558-1.795-3.6 1.3L6.128.47H4.273l.11 4.061L.721 3.208.164 4.99zm14 0l3.66 1.063-2.436 3.259 1.516 1.074 2.181-3.317 2.255 3.4 1.503-1.11-2.4-3.2 3.721-1.074-.558-1.795-3.6 1.3.122-4.121h-1.855l.11 4.061-3.661-1.322-.558 1.783zm17.66 1.063l-3.66-1.062.558-1.783 3.66 1.322-.109-4.06h1.855l-.121 4.12 3.6-1.299.557 1.795-3.721 1.074 2.4 3.2-1.503 1.11-2.255-3.4-2.181 3.317-1.516-1.074 2.437-3.259zm10.34-1.062l3.66 1.062-2.436 3.259 1.516 1.074 2.181-3.317 2.255 3.4 1.503-1.11-2.4-3.2 3.721-1.074-.558-1.795-3.6 1.3.122-4.121h-1.855l.11 4.061-3.661-1.322-.558 1.783z" clip-rule="evenodd"/></svg>