<svg xmlns="http://www.w3.org/2000/svg" width="20" height="20" fill="none" viewBox="0 0 20 20"><path fill="#E5E5E5" d="M0 0h20v20H0z"/><g id="Icons"><path fill="#fff" d="M-190-169h816V831h-816z"/><g id="more_vert"><path id="icon/navigation/more_vert_24px" fill="#000" fill-rule="evenodd" d="M10 6.667c.917 0 1.667-.75 1.667-1.667S10.917 3.333 10 3.333 8.333 4.083 8.333 5 9.083 6.667 10 6.667zm0 1.666c-.917 0-1.667.75-1.667 1.667s.75 1.667 1.667 1.667 1.667-.75 1.667-1.667-.75-1.667-1.667-1.667zM8.333 15c0-.917.75-1.667 1.667-1.667s1.667.75 1.667 1.667-.75 1.667-1.667 1.667-1.667-.75-1.667-1.667z" clip-rule="evenodd"/></g></g></svg>