<svg xmlns="http://www.w3.org/2000/svg" width="20" height="20" fill="none" viewBox="0 0 20 20"><path fill="#E5E5E5" d="M0 0h20v20H0z"/><g id="Icons"><path fill="#fff" d="M-188-109h816V891h-816z"/><g id="notification_important"><path id="icon/outlined/alert/notification_important_24px" fill="#000" fill-rule="evenodd" d="M8.75 2.292c0-.692.558-1.25 1.25-1.25s1.25.558 1.25 1.25v.975a5.828 5.828 0 0 1 4.583 5.691v5l1.667 1.667v.833h-15v-.833l1.667-1.667v-5A5.828 5.828 0 0 1 8.75 3.267v-.975zm1.25 2.5c2.3 0 4.167 1.866 4.167 4.166v5.834H5.833V8.958c0-2.3 1.867-4.166 4.167-4.166zM8.342 17.3a1.657 1.657 0 1 0 3.316 0H8.342zm.825-10.842h1.666v3.334H9.167V6.458zm1.666 5H9.167v1.667h1.666v-1.667z" clip-rule="evenodd"/></g></g></svg>