<svg xmlns="http://www.w3.org/2000/svg" width="20" height="20" fill="none" viewBox="0 0 20 20"><path fill="#E5E5E5" d="M0 0h20v20H0z"/><g id="Icons"><path fill="#fff" d="M-136-49h816V951h-816z"/><g id="pie_chart"><path id="icon/editor/pie_chart_24px" fill="#000" fill-rule="evenodd" d="M1.667 10C1.667 5.4 5.4 1.667 10 1.667S18.333 5.4 18.333 10 14.6 18.333 10 18.333A8.336 8.336 0 0 1 1.667 10zm9.166-.833h5.775a6.668 6.668 0 0 0-5.775-5.775v5.775zm-7.5.833c0-3.392 2.55-6.2 5.834-6.608v13.216C5.883 16.2 3.333 13.392 3.333 10zm7.5.833v5.775a6.668 6.668 0 0 0 5.775-5.775h-5.775z" clip-rule="evenodd"/></g></g></svg>