<svg xmlns="http://www.w3.org/2000/svg" width="24" height="20" fill="none" viewBox="0 0 24 20"><path fill="#E5E5E5" d="M0 0h24v20H0z"/><g id="Icons"><path fill="#fff" d="M-136-169h816V831h-816z"/><g id="print"><path id="icon/action/print_24px" fill="#000" fill-rule="evenodd" d="M19 6.667h-1V2.5H6v4.167H5c-1.66 0-3 1.116-3 2.5v5h4V17.5h12v-3.333h4v-5c0-1.384-1.34-2.5-3-2.5zm-11-2.5h8v2.5H8v-2.5zm8 11.666V12.5H8v3.333h8zm2-3.333v-1.667H6V12.5H4V9.167c0-.459.45-.834 1-.834h14c.55 0 1 .375 1 .834V12.5h-2zm-1-2.917c0-.46.448-.833 1-.833s1 .373 1 .833c0 .46-.448.834-1 .834s-1-.373-1-.834z" clip-rule="evenodd"/></g></g></svg>