<svg xmlns="http://www.w3.org/2000/svg" width="24" height="20" fill="none" viewBox="0 0 24 20"><path fill="#E5E5E5" d="M0 0h24v20H0z"/><g id="Icons"><path fill="#fff" d="M-760-109H56V891h-816z"/><g id="remove_red_eye"><path id="icon/image/remove_red_eye_24px" fill="#000" fill-rule="evenodd" d="M1 10c1.73-3.658 6-6.25 11-6.25S21.27 6.342 23 10c-1.73 3.658-6 6.25-11 6.25S2.73 13.658 1 10zm19.82 0C19.17 7.192 15.79 5.417 12 5.417S4.83 7.192 3.18 10c1.65 2.808 5.02 4.583 8.82 4.583 3.8 0 7.17-1.775 8.82-4.583zM12 7.917c1.38 0 2.5.933 2.5 2.083 0 1.15-1.12 2.083-2.5 2.083S9.5 11.15 9.5 10c0-1.15 1.12-2.083 2.5-2.083zM7.5 10c0-2.067 2.02-3.75 4.5-3.75s4.5 1.683 4.5 3.75-2.02 3.75-4.5 3.75S7.5 12.067 7.5 10z" clip-rule="evenodd"/></g></g></svg>