<svg xmlns="http://www.w3.org/2000/svg" width="20" height="20" fill="none" viewBox="0 0 20 20"><path fill="#E5E5E5" d="M0 0h20v20H0z"/><g id="Icons"><path fill="#fff" d="M-398-169h816V831h-816z"/><g id="restore"><path id="icon/action/restore_24px" fill="#000" fill-rule="evenodd" d="M3.75 10a7.5 7.5 0 1 1 7.5 7.5 7.462 7.462 0 0 1-5.3-2.2l1.183-1.183a5.786 5.786 0 0 0 4.117 1.716A5.829 5.829 0 0 0 17.083 10a5.829 5.829 0 0 0-5.833-5.833A5.83 5.83 0 0 0 5.417 10h2.5l-3.334 3.325L1.25 10h2.5zm6.667.833V6.667h1.25v3.458l2.933 1.742-.642 1.066-3.541-2.1z" clip-rule="evenodd"/></g></g></svg>