<svg xmlns="http://www.w3.org/2000/svg" width="20" height="20" fill="none" viewBox="0 0 20 20"><path fill="#E5E5E5" d="M0 0h20v20H0z"/><g id="Icons"><path fill="#fff" d="M-242-169h816V831h-816z"/><g id="search"><path id="icon/action/search_24px" fill="#000" fill-rule="evenodd" d="M12.47 11.88h.66l4.157 4.166-1.241 1.242-4.167-4.159v-.658l-.225-.233a5.393 5.393 0 0 1-3.525 1.308 5.417 5.417 0 1 1 5.417-5.417 5.393 5.393 0 0 1-1.309 3.525l.234.225zM4.38 8.13a3.745 3.745 0 0 0 3.75 3.75 3.745 3.745 0 0 0 3.75-3.75 3.745 3.745 0 0 0-3.75-3.75 3.745 3.745 0 0 0-3.75 3.75z" clip-rule="evenodd"/></g></g></svg>