<svg xmlns="http://www.w3.org/2000/svg" width="20" height="20" fill="none" viewBox="0 0 20 20"><path fill="#E5E5E5" d="M0 0h20v20H0z"/><g id="Icons"><path fill="#fff" d="M-292-49h816V951h-816z"/><g id="settings"><path id="icon/action/settings_24px" fill="#000" fill-rule="evenodd" d="M16.252 10c0 .283-.025.55-.058.817l1.758 1.375c.158.125.2.35.1.533l-1.667 2.883a.413.413 0 0 1-.358.209c-.05 0-.1-.009-.15-.025l-2.075-.834c-.434.325-.9.609-1.409.817l-.316 2.208c-.025.2-.2.35-.409.35H8.335a.406.406 0 0 1-.408-.35l-.317-2.208a6.085 6.085 0 0 1-1.408-.817l-2.075.834a.416.416 0 0 1-.508-.183l-1.667-2.884a.42.42 0 0 1 .1-.533l1.758-1.375A6.61 6.61 0 0 1 3.752 10c0-.275.025-.55.058-.817L2.052 7.808a.41.41 0 0 1-.1-.533l1.666-2.883a.413.413 0 0 1 .359-.209c.05 0 .1.009.15.025l2.075.834c.433-.325.9-.609 1.408-.817l.317-2.208c.025-.2.2-.35.408-.35h3.333c.209 0 .384.15.409.35l.316 2.208c.509.208.975.483 1.409.817l2.075-.834a.416.416 0 0 1 .508.183l1.667 2.884a.42.42 0 0 1-.1.533l-1.759 1.375a6.5 6.5 0 0 1 .059.817zm-1.667 0c0-.175-.008-.35-.042-.608l-.116-.942.742-.583.891-.709-.583-1.008-1.059.425-.883.358-.758-.583a4.726 4.726 0 0 0-1.025-.592l-.884-.358-.133-.942-.158-1.125H9.419l-.167 1.125-.133.942-.884.358a4.881 4.881 0 0 0-1.041.609l-.75.566-.867-.35-1.058-.425-.584 1.009.9.7.742.583-.117.942c-.025.25-.041.441-.041.608 0 .167.016.358.041.617l.117.941-.742.584-.9.7.584 1.008 1.058-.425.883-.358.759.583c.333.25.666.442 1.025.592l.883.358.133.942.159 1.125h1.166l.167-1.125.133-.942.883-.358a4.882 4.882 0 0 0 1.042-.609l.75-.566.867.35 1.058.425.584-1.009-.9-.7-.742-.583.117-.942c.024-.25.041-.433.041-.608zm-4.583-3.333a3.332 3.332 0 1 0 0 6.666 3.332 3.332 0 1 0 0-6.666zM8.335 10c0 .917.75 1.667 1.667 1.667.916 0 1.666-.75 1.666-1.667s-.75-1.667-1.666-1.667c-.917 0-1.667.75-1.667 1.667z" clip-rule="evenodd"/></g></g></svg>