<svg xmlns="http://www.w3.org/2000/svg" width="20" height="20" fill="none" viewBox="0 0 20 20"><path fill="#000" d="M18.125 0H1.875A1.875 1.875 0 0 0 0 1.875v15a1.875 1.875 0 0 0 1.875 1.875H2.5v.625a.625.625 0 1 0 1.25 0v-.625h12.5v.625a.624.624 0 1 0 1.25 0v-.625h.625A1.875 1.875 0 0 0 20 16.875v-15A1.875 1.875 0 0 0 18.125 0zm.625 16.875a.624.624 0 0 1-.625.625H1.875a.625.625 0 0 1-.625-.625v-15a.625.625 0 0 1 .625-.625h16.25a.625.625 0 0 1 .625.625v15z"/><path fill="#000" d="M15.625 2.5h-10A1.875 1.875 0 0 0 3.75 4.375V6.25h-.625a.625.625 0 0 0 0 1.25h.625v3.75h-.625a.625.625 0 1 0 0 1.25h.625v1.875a1.875 1.875 0 0 0 1.875 1.875h10a1.875 1.875 0 0 0 1.875-1.875v-10A1.875 1.875 0 0 0 15.625 2.5zm.625 11.875a.624.624 0 0 1-.625.625h-10A.625.625 0 0 1 5 14.375V12.5h.625a.625.625 0 1 0 0-1.25H5V7.5h.625a.625.625 0 0 0 0-1.25H5V4.375a.625.625 0 0 1 .625-.625h10a.625.625 0 0 1 .625.625v10z"/><path fill="#000" d="M14.375 8.75h-.945a2.89 2.89 0 0 0-.525-1.12l.465-.465a.625.625 0 0 0-.87-.885l-.54.545a2.754 2.754 0 0 0-.695-.255v-.945a.625.625 0 1 0-1.25 0v.945c-.242.054-.476.14-.695.255l-.54-.545a.626.626 0 1 0-.885.885l.465.465a2.89 2.89 0 0 0-.525 1.12h-.96a.625.625 0 0 0 0 1.25h.945c.092.407.271.789.525 1.12l-.465.465a.625.625 0 0 0 .885.885l.54-.545c.22.115.453.2.695.255v.945a.624.624 0 1 0 1.25 0v-.945c.242-.054.476-.14.695-.255l.555.545a.625.625 0 1 0 .885-.885l-.465-.465a2.89 2.89 0 0 0 .51-1.12h.945a.625.625 0 1 0 0-1.25zM10.625 11a1.625 1.625 0 1 1 0-3.25 1.625 1.625 0 0 1 0 3.25z"/></svg>