<svg
	xmlns="http://www.w3.org/2000/svg"
	viewBox="0 0 512 512"
>
	<g>
		<linearGradient id="SVGID_1_" gradientUnits="userSpaceOnUse" x1="233.5" x2="233.5" y1="512" y2="0">
			<stop offset="0" stop-color="#5558ff"></stop>
			<stop offset="1" stop-color="#00c0ff"></stop>
		</linearGradient>
		<linearGradient id="SVGID_00000172407500700808519820000004466672406724135047_" gradientUnits="userSpaceOnUse" x1="286" x2="286" y1="512" y2="122">
			<stop offset="0" stop-color="#addcff"></stop>
			<stop offset=".5028" stop-color="#eaf6ff"></stop>
			<stop offset="1" stop-color="#eaf6ff"></stop>
		</linearGradient>
		<g id="Bill_2_">
			<g>
				<g>
					<path
						d="m376 392v-347c0-3.9-1.5-7.8-4.501-10.501l-30-30c-5.7-5.999-15.298-5.999-20.999 0l-19.5 19.2-19.501-19.2c-5.7-5.999-15.298-5.999-20.999 0l-19.5 19.2-19.501-19.2c-5.7-5.999-15.298-5.999-20.999 0l-19.5 19.2-19.501-19.2c-5.7-5.999-15.298-5.999-20.999 0l-19.5 19.2-19.501-19.2c-5.7-5.999-15.298-5.999-20.999 0l-30 30c-3 2.701-4.5 6.6-4.5 10.501v407c0 32.999 27.001 60 60 60h315z"
						fill="url(#SVGID_1_)"
						data-original="url(#SVGID_1_)"
					></path>
				</g>
			</g>
			<g>
				<g>
					<path
						d="m451 392h-75v75c0 24.899 20.099 45 45 45 24.301 0 45-19.624 45-45v-60c0-8.401-6.599-15-15-15zm-150-120h-180c-8.291 0-15 6.709-15 15s6.709 15 15 15h180c8.291 0 15-6.709 15-15s-6.709-15-15-15zm0 60h-180c-8.291 0-15 6.709-15 15s6.709 15 15 15h180c8.291 0 15-6.709 15-15s-6.709-15-15-15zm0 60h-180c-8.291 0-15 6.709-15 15s6.709 15 15 15h180c8.291 0 15-6.709 15-15s-6.709-15-15-15zm-124.394-154.395 90-90c5.859-5.859 5.859-15.352 0-21.211s-15.352-5.859-21.211 0l-90 90c-5.859 5.859-5.859 15.352 0 21.211s15.351 5.86 21.211 0zm-10.606-85.605c8.284 0 15-6.716 15-15s-6.716-15-15-15-15 6.716-15 15 6.716 15 15 15zm75 75c0 8.284 6.716 15 15 15s15-6.716 15-15-6.716-15-15-15-15 6.716-15 15z"
						fill="url(#SVGID_00000172407500700808519820000004466672406724135047_)"
						data-original="url(#SVGID_00000172407500700808519820000004466672406724135047_)"
					></path>
				</g>
			</g>
		</g>
	</g>
</svg>
