<svg xmlns="http://www.w3.org/2000/svg" width="102" height="64" viewBox="0 0 102 64">
  <g id="Group_3745" data-name="Group 3745" transform="translate(-364 -2729)">
    <g id="Group_3744" data-name="Group 3744" transform="translate(-43 -13)">
      <g id="Rectangle_1032" data-name="Rectangle 1032" transform="translate(407 2742)" fill="#136acd" stroke="#136acd" stroke-width="1">
        <rect width="102" height="64" rx="5" stroke="none"/>
        <rect x="0.5" y="0.5" width="101" height="63" rx="4.5" fill="none"/>
      </g>
    </g>
    <path id="Path_3223" data-name="Path 3223" d="M15.25,28H8.29V12.5h6.842c2.911,0,4.737,1.493,4.737,3.867a3.42,3.42,0,0,1-2.911,3.363v.085a3.76,3.76,0,0,1,3.652,3.75C20.61,26.292,18.559,28,15.25,28ZM11.533,14.916v4.028h2.428c1.73,0,2.718-.762,2.718-2.073,0-1.246-.87-1.955-2.385-1.955h-2.76Zm0,10.667h2.89c1.869,0,2.879-.8,2.879-2.277,0-1.45-1.042-2.224-2.954-2.224H11.533v4.5Zm14.648.269a2.372,2.372,0,0,0,2.61-2.192v-.87l-2.481.172c-1.31.086-2.009.6-2.009,1.472S25.042,25.852,26.181,25.852Zm-1.02,2.288c-2.278,0-3.986-1.43-3.986-3.545,0-2.149,1.644-3.363,4.662-3.545l2.954-.183v-.784c0-1.139-.784-1.762-2.073-1.762a1.926,1.926,0,0,0-2.084,1.461H21.766c.086-2.256,2.127-3.813,5.081-3.813,3.04,0,5.027,1.557,5.027,3.92V28H28.845V26.174h-.064a4.049,4.049,0,0,1-3.62,1.966ZM33.406,28h3.137V21.254a2.37,2.37,0,0,1,2.406-2.643c1.482,0,2.213.892,2.213,2.46V28H44.3V20.416c0-2.76-1.482-4.415-4.1-4.415A3.716,3.716,0,0,0,36.5,18.289h-.065V16.173h-3.03V28Zm15.657-7.047H49.02V11.758H45.884V28H49.02V24.058l.85-.913L53.327,28h3.61l-4.77-6.746,4.555-5.081H53.155l-4.093,4.78ZM8.29,34.5h6.467a5.063,5.063,0,0,1,5.371,5.307c0,3.18-2.267,5.306-5.532,5.306H11.534V50H8.29V34.5Zm3.244,2.567v5.511h2.353c1.858,0,2.943-.988,2.943-2.76s-1.074-2.75-2.933-2.75H11.534ZM25.01,47.852a2.372,2.372,0,0,0,2.61-2.192v-.87l-2.481.172c-1.31.086-2.009.6-2.009,1.472s.741,1.418,1.88,1.418ZM23.99,50.14C21.712,50.14,20,48.71,20,46.6c0-2.149,1.644-3.363,4.662-3.545l2.954-.183v-.784c0-1.139-.784-1.762-2.073-1.762a1.927,1.927,0,0,0-2.084,1.461H20.6c.086-2.256,2.127-3.813,5.081-3.813,3.04,0,5.027,1.557,5.027,3.92V50H27.674V48.174H27.61a4.049,4.049,0,0,1-3.62,1.966Zm9.695,4.178c2.954,0,4.4-1.063,5.414-4.082l4.093-12.063H39.883l-2.567,9.281h-.064l-2.557-9.281H31.257l4.147,11.9-.107.451c-.248.946-.924,1.354-2.1,1.354-.13,0-.6-.01-.71-.032v2.427C32.611,54.3,33.567,54.318,33.685,54.318ZM43.81,50h3.137V42.889a2.1,2.1,0,0,1,2.1-2.288,1.83,1.83,0,0,1,1.944,2.03V50h3.03V42.846A2.043,2.043,0,0,1,56.078,40.6c1.278,0,1.977.762,1.977,2.148V50h3.136V41.965A3.7,3.7,0,0,0,57.313,38a3.766,3.766,0,0,0-3.673,2.417h-.065A3.14,3.14,0,0,0,50.277,38a3.464,3.464,0,0,0-3.373,2.32H46.84V38.173H43.81V50Zm24.155-9.69a2.576,2.576,0,0,0-2.589,2.557h5.1a2.449,2.449,0,0,0-2.514-2.556Zm2.557,6.08h2.89c-.344,2.289-2.482,3.814-5.361,3.814-3.6,0-5.8-2.31-5.8-6.07s2.212-6.165,5.682-6.165c3.4,0,5.575,2.277,5.575,5.876v.967H65.344V45a2.659,2.659,0,0,0,2.76,2.857,2.38,2.38,0,0,0,2.418-1.471ZM74.62,50h3.136V43.254a2.37,2.37,0,0,1,2.407-2.643c1.482,0,2.213.892,2.213,2.46V50h3.136V42.416c0-2.76-1.482-4.415-4.1-4.415a3.718,3.718,0,0,0-3.7,2.288h-.064V38.173h-3.03V50ZM87.85,35.541v2.632h-1.6v2.374h1.6V46.81c0,2.31,1.075,3.233,3.814,3.233a8.281,8.281,0,0,0,1.515-.129v-2.32a5.388,5.388,0,0,1-.785.053c-.956,0-1.407-.44-1.407-1.353V40.547h2.192V38.173H90.987V35.54H87.85Z" transform="translate(364.709 2728.242)" fill="#fff" fill-rule="evenodd"/>
  </g>
</svg>
