<svg xmlns="http://www.w3.org/2000/svg" width="102" height="64" viewBox="0 0 102 64">
  <g id="Group_3744" data-name="Group 3744" transform="translate(-407 -2742)">
    <g id="Rectangle_1032" data-name="Rectangle 1032" transform="translate(407 2742)" fill="#087bac" stroke="#087bac" stroke-width="1">
      <rect width="102" height="64" rx="5" stroke="none"/>
      <rect x="0.5" y="0.5" width="101" height="63" rx="4.5" fill="none"/>
    </g>
    <g id="Group_3743" data-name="Group 3743" transform="translate(407 2742)">
      <path id="Path_3208" data-name="Path 3208" d="M7.012,30.988h4.281l.962-2.393H14.42l.962,2.393H23.8V29.162L24.558,31h4.365l.746-1.863v1.85H50.594V27.065H51c.288,0,.372,0,.372.518v3.392H62.2v-.913a8.384,8.384,0,0,0,4.017.913h4.558l.974-2.393h2.165l.962,2.393h8.767V28.718l1.335,2.27H92V16H85.049v1.813l-.974-1.776h-7.18v1.776L76,16.037h-9.62a8.45,8.45,0,0,0-4.186.876v-.876h-6.71v.876a4.089,4.089,0,0,0-2.838-.876H28.382L26.747,19.91l-1.672-3.873h-7.66v1.776l-.854-1.776h-6.53L7,23.155Zm82.727-2.073H86.131l-4.75-8.055v8.055h-5.1l-.914-2.467H70.161l-.938,2.467h-2.91A5.194,5.194,0,0,1,62.7,27.682a5.466,5.466,0,0,1-1.335-4.108,5.807,5.807,0,0,1,1.347-4.194,4.991,4.991,0,0,1,3.8-1.234h2.4v2.307h-2.4a2.367,2.367,0,0,0-1.936.642,3.654,3.654,0,0,0-.722,2.467,3.77,3.77,0,0,0,.7,2.467,2.367,2.367,0,0,0,1.743.543h1.13l3.524-8.45h3.777l4.245,10.164V18.122h3.812l4.4,7.487V18.122h2.561l-.012,10.793ZM60.1,18.171V28.915H57.533V18.122l2.562.05Zm-4.017,2.9A3.04,3.04,0,0,1,54.286,23.9a2.809,2.809,0,0,1,1.2.913,3.115,3.115,0,0,1,.42,1.96v2.147H53.384V27.558a3.213,3.213,0,0,0-.408-2.084c-.361-.383-.914-.47-1.816-.47H48.466v3.911h-2.5V18.122h5.76a5.809,5.809,0,0,1,3.031.518,2.482,2.482,0,0,1,1.263,2.38l.06.05Zm-11.8,7.845H35.862V18.122h8.419v2.245H38.424v1.924h5.712V24.5H38.424v2.147h5.857v2.27Zm-10.234,0h-2.61v-8.45l-3.608,8.45h-2.2L22.02,20.49v8.425h-5.1l-.962-2.393H10.74l-.95,2.393H7.072l4.474-10.744h3.728l4.257,10.177V18.122H23.62l3.271,7.29,3.019-7.29h4.173l-.036,10.793ZM74.5,24.277,72.77,20.01l-1.72,4.268H74.5Zm-21.647-1.7a2.41,2.41,0,0,1-1.2.222H48.61v-2.43h3.079a2.629,2.629,0,0,1,1.2.185,1.015,1.015,0,0,1,.517.95,1.144,1.144,0,0,1-.517,1.036ZM15.13,24.24l-1.72-4.268L11.7,24.24H15.13ZM54.62,39.7c0,2.968-2.15,3.6-4.337,3.6H47.177v3.632H42.4l-3.07-3.546-3.214,3.546H26.258V36.151H36.269l3.059,3.51,3.166-3.51h7.944c1.972,0,4.194.567,4.194,3.535l-.012.012ZM34.848,44.61H28.73V42.517h5.52V40.325H28.79V38.38h6.236L37.738,41.5l-2.891,3.115Zm9.868,1.232L40.9,41.47l3.81-4.236v8.608Zm5.7-4.815H47.19V38.38h3.25c.9,0,1.517.37,1.517,1.318s-.6,1.4-1.542,1.4v-.074ZM67.14,36.175H75.5V38.4h-5.83V40.35h5.686v2.191H69.673v2.13H75.5v2.254H67.14V36.175ZM64,41.925a2.675,2.675,0,0,1,1.195.9,3.17,3.17,0,0,1,.406,1.958v2.142H63.1V45.546c0-.652.06-1.6-.406-2.093s-.92-.48-1.816-.48H58.216v3.952H55.755V36.151H61.5a5.943,5.943,0,0,1,3,.505,2.48,2.48,0,0,1,1.266,2.39A3.026,3.026,0,0,1,64.009,41.9L64,41.927Zm-1.493-1.354a2.327,2.327,0,0,1-1.2.222H58.287V38.33h3.059a2.433,2.433,0,0,1,1.194.185,1.04,1.04,0,0,1,.514.973,1.166,1.166,0,0,1-.514,1.022l-.035.061ZM85,41.163a3.05,3.05,0,0,1,.74,2.278c0,2.316-1.4,3.387-3.906,3.387h-4.85V44.587h4.778a1.46,1.46,0,0,0,1.027-.271.963.963,0,0,0,.287-.7.924.924,0,0,0-.3-.714,1.274,1.274,0,0,0-.884-.247c-2.389-.074-5.244.074-5.244-3.312,0-1.552.943-3.19,3.584-3.19h4.993v2.29H80.663a1.688,1.688,0,0,0-1,.2.846.846,0,0,0-.37.776.811.811,0,0,0,.55.788,2.783,2.783,0,0,0,.955.123h1.338a3.977,3.977,0,0,1,2.844.862Zm9.9,4.323a3.841,3.841,0,0,1-3.309,1.44H86.815v-2.34H91.6a1.413,1.413,0,0,0,1-.27.95.95,0,0,0,.3-.7.912.912,0,0,0-.3-.714,1.274,1.274,0,0,0-.884-.247c-2.39-.074-5.257.074-5.257-3.312,0-1.552.968-3.19,3.584-3.19H95v-2.13H90.389a5.047,5.047,0,0,0-3.119.887v-.887H80.46a4.676,4.676,0,0,0-2.974.887v-.887H65.312v.887a6.336,6.336,0,0,0-3.357-.887H53.94v.887a5.53,5.53,0,0,0-3.513-.887H41.419l-2.054,2.3-1.924-2.3H24V48.995H37.142l2.114-2.327,1.995,2.327h8.1V45.473h.8a8.273,8.273,0,0,0,3.465-.517V49h6.69v-3.9h.323c.418,0,.454,0,.454.443v3.46h20.31a5.723,5.723,0,0,0,3.38-.948v.948h6.452a8.48,8.48,0,0,0,3.644-.69l.035-2.82Zm0-7.081H90.4a1.648,1.648,0,0,0-.991.2.859.859,0,0,0-.37.776.8.8,0,0,0,.55.788,2.8,2.8,0,0,0,.967.123h1.338a3.93,3.93,0,0,1,2.831.862,3.242,3.242,0,0,1,.227.27L94.9,38.4Z" fill="#fff"/>
    </g>
  </g>
</svg>
