<svg width="102" height="64" viewBox="0 0 102 64" xmlns="http://www.w3.org/2000/svg" style="background:#3c5e8b"><title>bank-payment</title><g fill="none" fill-rule="evenodd"><path fill="#3C5E8B" d="M0 0h102v64H0z"/><path d="M15.25 28H8.29V12.499h6.842c2.911 0 4.737 1.493 4.737 3.867 0 1.697-1.267 3.115-2.911 3.363v.085c2.105.162 3.652 1.698 3.652 3.75 0 2.728-2.051 4.436-5.36 4.436zm-3.717-13.084v4.028h2.428c1.73 0 2.718-.762 2.718-2.073 0-1.246-.87-1.955-2.385-1.955h-2.76zm0 10.667h2.89c1.869 0 2.879-.795 2.879-2.277 0-1.45-1.042-2.224-2.954-2.224h-2.815v4.501zm14.648.269c1.45 0 2.61-.903 2.61-2.192v-.87l-2.481.172c-1.31.086-2.009.601-2.009 1.472 0 .87.741 1.418 1.88 1.418zm-1.02 2.288c-2.278 0-3.986-1.43-3.986-3.545 0-2.149 1.644-3.363 4.662-3.545l2.954-.183v-.784c0-1.139-.784-1.762-2.073-1.762-1.139 0-1.934.602-2.084 1.461h-2.868c.086-2.256 2.127-3.813 5.081-3.813 3.04 0 5.027 1.557 5.027 3.92V28h-3.029v-1.826h-.064c-.645 1.235-2.106 1.966-3.62 1.966zm8.245-.14h3.137v-6.746c0-1.568.902-2.643 2.406-2.643 1.482 0 2.213.892 2.213 2.46V28h3.136v-7.584c0-2.76-1.482-4.415-4.103-4.415-1.815 0-3.019.795-3.695 2.288h-.065v-2.116h-3.03V28zm15.657-7.047h-.043v-9.195h-3.136V28h3.136v-3.942l.85-.913L53.327 28h3.61l-4.77-6.746 4.555-5.081h-3.567l-4.093 4.78zM8.29 34.5h6.467c3.18 0 5.371 2.116 5.371 5.307 0 3.18-2.267 5.306-5.532 5.306h-3.062V50H8.29V34.499zm3.244 2.567v5.511h2.353c1.858 0 2.943-.988 2.943-2.76 0-1.762-1.074-2.75-2.933-2.75h-2.363zM25.01 47.852c1.45 0 2.61-.903 2.61-2.192v-.87l-2.481.172c-1.31.086-2.009.601-2.009 1.472 0 .87.741 1.418 1.88 1.418zm-1.02 2.288c-2.278 0-3.986-1.43-3.986-3.545 0-2.149 1.644-3.363 4.662-3.545l2.954-.183v-.784c0-1.139-.784-1.762-2.073-1.762-1.138 0-1.933.602-2.084 1.461h-2.868c.086-2.256 2.127-3.813 5.081-3.813 3.04 0 5.027 1.557 5.027 3.92V50h-3.029v-1.826h-.064c-.645 1.235-2.106 1.966-3.62 1.966zm9.695 4.178c2.954 0 4.404-1.063 5.414-4.082l4.093-12.063h-3.309l-2.567 9.281h-.064l-2.557-9.281h-3.438l4.147 11.902-.107.451c-.248.946-.924 1.354-2.095 1.354-.13 0-.602-.01-.71-.032v2.427c.119.022 1.075.043 1.193.043zM43.81 50h3.137v-7.111c0-1.343.86-2.288 2.095-2.288 1.214 0 1.944.762 1.944 2.03V50h3.03v-7.154c0-1.343.827-2.245 2.062-2.245 1.278 0 1.977.762 1.977 2.148V50h3.136v-8.035c0-2.385-1.557-3.964-3.878-3.964-1.718 0-3.136.935-3.673 2.417h-.065c-.397-1.547-1.6-2.417-3.298-2.417-1.579 0-2.868.892-3.373 2.32h-.064v-2.148h-3.03V50zm24.155-9.69c-1.429 0-2.481 1.043-2.589 2.557h5.103c-.054-1.547-1.064-2.556-2.514-2.556zm2.557 6.08h2.89c-.344 2.289-2.482 3.814-5.361 3.814-3.599 0-5.8-2.31-5.8-6.07 0-3.759 2.212-6.165 5.682-6.165 3.405 0 5.575 2.277 5.575 5.876v.967h-8.164v.193c0 1.708 1.106 2.857 2.76 2.857 1.182 0 2.117-.558 2.418-1.471zM74.62 50h3.136v-6.746c0-1.568.903-2.643 2.407-2.643 1.482 0 2.213.892 2.213 2.46V50h3.136v-7.584c0-2.76-1.482-4.415-4.103-4.415-1.816 0-3.019.795-3.696 2.288h-.064v-2.116h-3.03V50zm13.23-14.459v2.632H86.25v2.374h1.6v6.263c0 2.31 1.075 3.233 3.814 3.233.634 0 1.192-.064 1.515-.129v-2.32a5.389 5.389 0 0 1-.785.053c-.956 0-1.407-.44-1.407-1.353v-5.747h2.192v-2.374h-2.192V35.54H87.85z" fill="#FFF"/></g></svg>