<svg xmlns="http://www.w3.org/2000/svg" width="102" height="64" viewBox="0 0 102 64">
  <g id="Group_3750" data-name="Group 3750" transform="translate(-584 -2836)">
    <g id="Group_3747" data-name="Group 3747" transform="translate(224 82)">
      <g id="Group_3745" data-name="Group 3745" transform="translate(-4 25)">
        <g id="Group_3744" data-name="Group 3744" transform="translate(-43 -13)">
          <g id="Rectangle_1032" data-name="Rectangle 1032" transform="translate(407 2742)" fill="#0e4595" stroke="#0e4595" stroke-width="1">
            <rect width="102" height="64" rx="5" stroke="none"/>
            <rect x="0.5" y="0.5" width="101" height="63" rx="4.5" fill="none"/>
          </g>
        </g>
      </g>
    </g>
    <g id="Group_3749" data-name="Group 3749" transform="translate(587.908 2834.017)">
      <path id="Path_3211" data-name="Path 3211" d="M278.2,158.645l4.038-23.7h6.459l-4.041,23.7Zm29.79-23.184a16.682,16.682,0,0,0-5.789-1c-6.382,0-10.877,3.214-10.915,7.82-.036,3.4,3.209,5.3,5.659,6.438,2.514,1.161,3.359,1.9,3.347,2.939-.016,1.588-2.008,2.314-3.864,2.314a13.537,13.537,0,0,1-6.079-1.244l-.832-.377-.907,5.3a20.449,20.449,0,0,0,7.194,1.264c6.789,0,11.2-3.177,11.247-8.1.024-2.7-1.7-4.747-5.423-6.438-2.257-1.1-3.64-1.828-3.625-2.937,0-.985,1.17-2.038,3.7-2.038a11.919,11.919,0,0,1,4.834.908l.579.274.876-5.136m16.62-.511h-4.991a3.214,3.214,0,0,0-3.382,1.965l-9.592,21.715h6.782s1.109-2.92,1.36-3.561c.741,0,7.33.01,8.272.01.193.829.786,3.551.786,3.551h5.993Zm-7.918,15.3c.534-1.365,2.573-6.624,2.573-6.624-.038.063.53-1.372.856-2.262l.437,2.043s1.237,5.656,1.5,6.842Z" transform="translate(-242.902 -112.483)" fill="#fff"/>
      <path id="Path_3212" data-name="Path 3212" d="M45.28,138.465l-.083.493a27.071,27.071,0,0,1,6.829,2.625l5.731,20.54,6.833-.008,10.168-23.65H67.917l-6.323,16.159-.674-3.284q-.048-.151-.1-.3l-2.2-10.573c-.391-1.5-1.525-1.948-2.928-2Z" transform="translate(-38.105 -115.998)" fill="#fff"/>
    </g>
  </g>
</svg>
