<svg viewBox="0 0 70 70" xmlns="http://www.w3.org/2000/svg"><g fill="none"><path d="M0 0h69.755v69.755H0V0z" fill="#fff"/><path d="M25.935 25.635c-2.284.993-12.25 5.559-15.973 7.795-1.609-.64-2.973-1.107-4.84-1.824 7.738-4.637 16.15-7.27 16.296-7.463 1.577.425 2.917 1.093 4.518 1.493m7.472 3.201c-2.284.993-12.318 5.966-16.042 8.202-1.736-.893-3.432-1.785-5.163-2.502 7.738-4.637 15.767-7.717 15.912-7.909 1.489.595 3.722 1.614 5.292 2.21" fill="#1A4E90"/><path d="M57.553 27.095c-2.284.993-18.013 6.224-32.91 16.403-1.886-1.188-4.929-2.996-6.788-3.617 7.739-4.637 17.991-11.627 33.62-15.749 2.356 1.062 3.971 1.986 6.079 2.963m7.359 4.249C62.629 32.337 43.538 41.713 34.276 50c-1.695-1.02-5.375-3.867-7.092-4.81 7.423-4.921 16.849-12.061 32.312-16.863 2.356 1.062 3.514 1.87 5.416 3.017m-38.844-10.63c4.074 1.366 10.027 3.491 13.914 5.531-1.233.692-2.9 1.16-4.388 1.796-9.893-4.262-13.906-5.514-14.093-5.663.885-.391 3.803-1.402 4.566-1.664m7.217-1.863c4.075 1.366 10.295 3.187 14.181 5.227-1.323.34-3.233.742-4.751 1.391-9.893-4.262-13.536-5.367-13.723-5.517.885-.391 3.53-.84 4.293-1.101" fill="#C0242A"/></g></svg>