<svg xmlns="http://www.w3.org/2000/svg" width="20" height="20" viewBox="0 0 20 20">
  <path fill="#4d6575" stroke="#4d6575" stroke-width=".5" d="M14,16.1318864 L14,18.4017096 C14.0009901,19.1169412 14.511097,19.7301105 15.2142068,19.8612357 L15.2142068,27.0176216 C15.2142068,28.112459 16.1017478,29 17.1965851,29 L29.5220227,29 C30.61686,29 31.504401,28.112459 31.504401,27.0176216 L31.504401,19.8612357 C32.2075108,19.7301105 32.7176177,19.1169412 32.7186078,18.4017096 L32.7186078,16.1318864 C32.7186078,15.3107584 32.052952,14.6451026 31.231824,14.6451026 L28.9025294,14.6451026 C29.3996036,13.937733 29.460978,13.0122902 29.0616703,12.2454735 C28.6623626,11.4786567 27.8689551,10.9983282 27.0044021,11.0000044 C25.0542374,11.0000044 23.9292377,12.5809511 23.3593039,13.7604663 C22.7893701,12.5809511 21.6643704,11.0000044 19.7142057,11.0000044 C18.8496527,10.9983282 18.0562452,11.4786567 17.6569375,12.2454735 C17.2576298,13.0122902 17.3190042,13.937733 17.8160784,14.6451026 L15.4867838,14.6451026 C15.0924642,14.6451026 14.7142949,14.8017454 14.4354689,15.0805715 C14.1566428,15.3593975 14,15.7375668 14,16.1318864 Z M14.9911892,18.4017096 L14.9911892,16.1318864 C14.9911892,15.858177 15.2130744,15.6362918 15.4867838,15.6362918 L22.8637093,15.6362918 L22.8637093,18.8973042 L15.4867838,18.8973042 C15.2130744,18.8973042 14.9911892,18.675419 14.9911892,18.4017096 Z M17.1965851,28.0088108 C16.6491665,28.0088108 16.2053959,27.5650403 16.2053959,27.0176216 L16.2053959,19.8884934 L22.8637093,19.8884934 L22.8637093,28.0088108 L17.1965851,28.0088108 Z M29.5220227,28.0088108 L23.8548985,28.0088108 L23.8548985,19.8884934 L30.5132118,19.8884934 L30.5132118,27.0176216 C30.5132118,27.5650403 30.0694413,28.0088108 29.5220227,28.0088108 Z M31.7274186,16.1294084 L31.7274186,18.3992317 C31.7274186,18.672941 31.5055333,18.8948262 31.231824,18.8948262 L23.8548985,18.8948262 L23.8548985,15.6362918 L31.231824,15.6362918 C31.5055333,15.6362918 31.7274186,15.858177 31.7274186,16.1318864 L31.7274186,16.1294084 Z M27.0044021,11.9911936 C27.7372589,11.9911936 28.3313567,12.5852913 28.3313567,13.3181481 C28.3313567,14.0510048 27.7372589,14.6451026 27.0044021,14.6451026 L24.0531363,14.6451026 C24.4322662,13.693561 25.3416823,11.9911936 27.0044021,11.9911936 Z M18.3884901,13.3094752 C18.3884888,12.5769008 18.9816325,11.9826484 19.7142057,11.9812817 C21.3645357,11.9812817 22.2813857,13.6861271 22.6629935,14.6351907 L19.7142057,14.6351907 C18.9825988,14.633827 18.3898538,14.0410821 18.3884901,13.3094752 Z" transform="translate(-13 -10)"/>
</svg>
