<svg xmlns="http://www.w3.org/2000/svg" width="85.857" height="59.211" viewBox="0 0 85.857 59.211">
  <g id="american-express_2_" data-name="american-express (2)" transform="translate(-0.031 -79.451)">
    <path id="Path_3284" data-name="Path 3284" d="M85.857,133.586a5.075,5.075,0,0,1-5.075,5.075H5.075A5.075,5.075,0,0,1,0,133.586V84.526a5.075,5.075,0,0,1,5.075-5.075H80.782a5.075,5.075,0,0,1,5.075,5.075v49.06Z" transform="translate(0.031)" fill="#306fc5"/>
    <g id="Group_3765" data-name="Group 3765" transform="translate(3.032 95.451)">
      <path id="Path_3286" data-name="Path 3286" d="M74.59,204.815h2.779l-1.389-3.537Z" transform="translate(-67.716 -197.994)" fill="#fff"/>
      <path id="Path_3287" data-name="Path 3287" d="M155.946,286.107v1.642h4.674v1.769h-4.674v1.9h5.179l2.4-2.653-2.273-2.653Z" transform="translate(-134.293 -267.413)" fill="#fff"/>
      <path id="Path_3288" data-name="Path 3288" d="M350.069,201.278l-1.516,3.537h2.906Z" transform="translate(-291.912 -197.994)" fill="#fff"/>
      <path id="Path_3289" data-name="Path 3289" d="M215.552,288.441v-7.2l-3.284,3.537Z" transform="translate(-180.384 -263.431)" fill="#fff"/>
      <path id="Path_3290" data-name="Path 3290" d="M246.209,287.244a1.275,1.275,0,0,0-1.39-1.137h-2.652v2.274h2.779C245.7,288.381,246.209,288,246.209,287.244Z" transform="translate(-204.851 -267.413)" fill="#fff"/>
      <path id="Path_3291" data-name="Path 3291" d="M297.158,288.7a.985.985,0,0,0,.379-.884.7.7,0,0,0-.379-.884,2.456,2.456,0,0,0-1.01-.126h-2.527v2.021h2.527A2.457,2.457,0,0,0,297.158,288.7Z" transform="translate(-246.958 -267.984)" fill="#fff"/>
      <path id="Path_3292" data-name="Path 3292" d="M105.136,183.2v1.516l-.757-1.516H98.443v1.516l-.758-1.516H89.6a7.69,7.69,0,0,0-3.537.758V183.2H80.38v.758a3.643,3.643,0,0,0-2.4-.758H57.643l-1.39,3.158L54.864,183.2H48.422v1.516l-.632-1.516H42.233l-2.527,5.937-2.9,6.442-.053.127h6.576l.046-.127.758-1.894H45.77l.758,2.021h7.325v-1.516l.632,1.516h3.663l.631-1.516V195.7H76.337v-3.284h.253c.252,0,.252,0,.252.379v2.779h9.095v-.758a7.556,7.556,0,0,0,3.41.758h3.79l.758-2.021h1.768l.758,2.021h7.326v-1.894l1.137,1.894h5.937V183.2h-5.685ZM62.317,193.809H60.3v-6.947l-.126.29v0l-2.938,6.661H55.369l-3.031-6.947v6.947H48.043l-.884-1.895h-4.3l-.884,1.895H39.76l3.737-8.842h3.158l3.537,8.463v-8.463h3.346l.06.127h0l1.594,3.469,1.144,2.6.041-.131,2.526-6.063h3.411v8.842Zm8.716-6.947H66.106V188.5h4.8v1.768h-4.8v1.769h4.926v1.894H63.959v-8.968h7.074v1.895Zm9.009,3.257.011.008a1.445,1.445,0,0,1,.124.15,2.429,2.429,0,0,1,.447,1.481c0,.012,0,.024,0,.036s0,.013,0,.02,0,.007,0,.011c0,.07,0,.141,0,.217v1.768H78.738V192.8a3.006,3.006,0,0,0-.379-1.768,1.15,1.15,0,0,0-.372-.254,2.522,2.522,0,0,0-1.144-.125H74.569v3.158H72.422v-8.842h4.8a4.844,4.844,0,0,1,2.526.379,2.134,2.134,0,0,1,1.007,1.964,2.509,2.509,0,0,1-1.512,2.33A1.691,1.691,0,0,1,80.042,190.118Zm4.253,3.69H82.148v-8.842H84.3Zm24.631,0h-2.779l-4.042-6.695v5.558l-.013-.013v1.156H99.958v-.005H97.811l-.758-1.895H92.631l-.758,2.021h-2.4a3.8,3.8,0,0,1-4.168-4.42,5.178,5.178,0,0,1,1.136-3.537,3.978,3.978,0,0,1,3.158-1.01h2.021v1.895H89.6a2.328,2.328,0,0,0-1.642.506,2.968,2.968,0,0,0-.631,2.021,2.75,2.75,0,0,0,.631,2.147,2.014,2.014,0,0,0,1.516.506h.884l2.9-6.947h3.158l3.537,8.463v-8.463h3.158l3.662,6.189v-6.189h2.148v8.715h0Z" transform="translate(-36.748 -183.198)" fill="#fff"/>
      <path id="Path_3293" data-name="Path 3293" d="M248.617,205.152a.677.677,0,0,0,.1-.135,1.365,1.365,0,0,0,.175-.953.708.708,0,0,0-.019-.115c0-.01,0-.019,0-.029h0a.708.708,0,0,0-.383-.43,2.474,2.474,0,0,0-1.011-.126h-2.527v2.021h2.527a2.46,2.46,0,0,0,1.011-.127.476.476,0,0,0,.1-.075v0Z" transform="translate(-207.125 -199.701)" fill="#fff"/>
      <path id="Path_3294" data-name="Path 3294" d="M195.714,273.016a4.84,4.84,0,0,0-.631-2.4v-5.684h-.006v-.379H189a3.6,3.6,0,0,0-1.744.758v-.758h-5.81a4.012,4.012,0,0,0-2.527.758v-.758H168.557v.758a4.887,4.887,0,0,0-2.779-.758h-6.821v.758a4.8,4.8,0,0,0-2.906-.758h-7.578l-1.769,1.895-1.642-1.895H133.7V277.31h11.116l1.826-1.827,1.583,1.827h7.074v-2.905h.632a7.674,7.674,0,0,0,2.9-.379v3.411h5.684v-3.284h.252c.379,0,.379,0,.379.379v2.905h17.178a4.951,4.951,0,0,0,2.905-.758v.758h5.432a5.673,5.673,0,0,0,3.032-.632,4.242,4.242,0,0,0,2-3.406c.005-.044.011-.087.015-.131l-.007-.007C195.711,273.179,195.714,273.1,195.714,273.016Zm-39.788-.758H153.4v3.284h-4.152l-2.416-2.779-.008.009-.118-.136-2.779,2.906h-8.084V266.7h8.21l2.243,2.457.472.514.064-.066,2.653-2.9h6.694c1.3,0,2.754.321,3.305,1.643a3.572,3.572,0,0,1,.1.883C159.589,271.752,157.82,272.258,155.926,272.258Zm12.631-.127a2.867,2.867,0,0,1,.379,1.642v1.768h-2.147v-1.136a2.818,2.818,0,0,0-.379-1.769c-.252-.378-.758-.378-1.515-.378h-2.273v3.284h-2.147v-8.968h4.8a5.1,5.1,0,0,1,2.527.379,2.236,2.236,0,0,1,1.136,2.021,2.515,2.515,0,0,1-1.516,2.4A2.153,2.153,0,0,1,168.557,272.131Zm8.716-3.664h-4.927v1.642h4.8v1.769h-4.8v1.769h4.927v1.895H170.2v-8.968h7.074Zm5.3,7.074h-4.042v-1.895h4.042a1.067,1.067,0,0,0,.885-.253.917.917,0,0,0,0-1.263,1.071,1.071,0,0,0-.759-.253c-2.021-.126-4.421,0-4.421-2.779,0-1.263.758-2.653,3.032-2.653h4.168v2.147h-3.915a1.874,1.874,0,0,0-.885.126c-.252.127-.252.379-.252.632,0,.379.252.506.5.631a1.6,1.6,0,0,0,.758.127h1.137a3.215,3.215,0,0,1,2.4.758,2.615,2.615,0,0,1,.632,1.895C185.862,274.657,184.725,275.542,182.578,275.542Zm10.863-.885a3.68,3.68,0,0,1-2.653.885h-4.041v-1.895h4.041a1.066,1.066,0,0,0,.885-.253.915.915,0,0,0,0-1.263,1.068,1.068,0,0,0-.758-.253c-2.02-.126-4.421,0-4.421-2.778a2.582,2.582,0,0,1,2.381-2.607,4.711,4.711,0,0,1,.651-.046h4.169v2.147h-3.916a1.868,1.868,0,0,0-.884.126.963.963,0,0,0-.254.632c0,.379.126.506.506.631a1.6,1.6,0,0,0,.758.127h1.136a3.946,3.946,0,0,1,1.352.2,2.72,2.72,0,0,1,1.767,2,2.84,2.84,0,0,1,.039.453A2.569,2.569,0,0,1,193.441,274.657Z" transform="translate(-116.084 -249.774)" fill="#fff"/>
    </g>
  </g>
</svg>
