<svg xmlns="http://www.w3.org/2000/svg" width="86.68" height="59.779" viewBox="0 0 86.68 59.779">
  <g id="Group_3773" data-name="Group 3773" transform="translate(-735 -3728)">
    <g id="Group_3772" data-name="Group 3772" transform="translate(219 1.002)">
      <g id="discover_1_" data-name="discover (1)" transform="translate(516 3647.547)">
        <path id="Path_3295" data-name="Path 3295" d="M86.68,134.105a5.124,5.124,0,0,1-5.124,5.124H5.124A5.124,5.124,0,0,1,0,134.105V84.575a5.124,5.124,0,0,1,5.124-5.124H81.556a5.124,5.124,0,0,1,5.124,5.124v49.53Z" fill="#136acd"/>
      </g>
    </g>
    <path id="Path_3223" data-name="Path 3223" d="M13.91,24.873H8.29V12.358h5.525c2.351,0,3.829,1.206,3.829,3.122A2.762,2.762,0,0,1,15.293,18.2v.068a3.036,3.036,0,0,1,2.949,3.028C18.239,23.495,16.582,24.873,13.91,24.873Zm-3-10.565v3.253H12.87c1.4,0,2.195-.616,2.195-1.674,0-1.006-.7-1.578-1.926-1.578H10.91Zm0,8.613h2.335c1.509,0,2.325-.646,2.325-1.839,0-1.171-.841-1.8-2.385-1.8H10.909Zm11.828.218a1.916,1.916,0,0,0,2.108-1.775V20.67l-2,.139c-1.058.069-1.622.485-1.622,1.189s.6,1.14,1.518,1.14Zm-.824,1.847a2.941,2.941,0,0,1-3.219-2.863c0-1.735,1.327-2.716,3.765-2.863l2.385-.148V18.48c0-.92-.633-1.422-1.674-1.422a1.555,1.555,0,0,0-1.681,1.18H19.174c.069-1.821,1.718-3.082,4.1-3.082,2.455,0,4.059,1.257,4.059,3.165v6.553H24.888V23.4h-.051a3.269,3.269,0,0,1-2.923,1.587Zm6.654-.113H31.1V19.426a1.914,1.914,0,0,1,1.943-2.134c1.2,0,1.787.72,1.787,1.987v5.595h2.534V18.749c0-2.229-1.2-3.565-3.311-3.565a3,3,0,0,0-2.989,1.847h-.052V15.323H28.567Zm12.644-5.691h-.035V11.757H38.648V24.873h2.528V21.69l.686-.737,2.792,3.923H47.57l-3.852-5.447,3.678-4.1H44.519l-3.305,3.857ZM8.29,30.122h5.222a4.088,4.088,0,0,1,4.338,4.285A4.161,4.161,0,0,1,13.382,38.7H10.91v3.946H8.29Zm2.615,2.073v4.447h1.9a2.229,2.229,0,1,0,.008-4.45h-1.9ZM21.787,40.9a1.916,1.916,0,0,0,2.11-1.769v-.7l-2,.139c-1.058.069-1.622.485-1.622,1.189s.6,1.145,1.518,1.145Zm-.824,1.847a2.943,2.943,0,0,1-3.222-2.859c0-1.735,1.327-2.716,3.765-2.863l2.391-.147v-.633c0-.92-.633-1.422-1.674-1.422a1.556,1.556,0,0,0-1.681,1.18H18.231c.069-1.821,1.718-3.082,4.1-3.082,2.455,0,4.059,1.257,4.059,3.165v6.546h-2.45V41.164h-.051a3.269,3.269,0,0,1-2.923,1.588Zm7.829,3.374c2.385,0,3.549-.858,4.372-3.3l3.309-9.736H33.8l-2.069,7.491h-.051l-2.065-7.491H26.837L30.185,42.7l-.087.364c-.2.764-.747,1.094-1.7,1.094-.1,0-.485-.008-.573-.026v1.961c.1.021.872.036.968.036Zm8.181-3.486h2.533V36.9a1.7,1.7,0,0,1,1.7-1.847,1.478,1.478,0,0,1,1.57,1.639v5.951H45.22V36.862a1.649,1.649,0,0,1,1.661-1.814c1.027,0,1.6.616,1.6,1.734v5.856h2.532V36.15a2.989,2.989,0,0,0-3.132-3.2A3.041,3.041,0,0,0,44.91,34.9h-.052A2.536,2.536,0,0,0,42.2,32.949a2.8,2.8,0,0,0-2.724,1.874H39.42v-1.73H36.973Zm19.506-7.825a2.08,2.08,0,0,0-2.09,2.065h4.118a1.977,1.977,0,0,0-2.031-2.064Zm2.064,4.91h2.335c-.28,1.848-2,3.082-4.329,3.082-2.907,0-4.684-1.868-4.684-4.9s1.786-4.978,4.589-4.978c2.746,0,4.5,1.839,4.5,4.745v.781H54.362V38.6a2.148,2.148,0,0,0,2.226,2.305A1.922,1.922,0,0,0,58.543,39.724Zm3.309,2.915h2.532V37.192a1.914,1.914,0,0,1,1.944-2.138c1.2,0,1.787.72,1.787,1.987v5.6h2.532V36.515c0-2.229-1.2-3.565-3.311-3.565A3,3,0,0,0,64.347,34.8H64.3v-1.7H61.849v9.546ZM72.536,30.964v2.129H71.244v1.917h1.292v5.058c0,1.868.868,2.615,3.082,2.615a6.687,6.687,0,0,0,1.224-.1V40.7a4.35,4.35,0,0,1-.634.043c-.772,0-1.136-.355-1.136-1.093V35.005h1.775V33.092H75.071v-2.13H72.536Z" transform="translate(735.71 3729.243)" fill="#fff" fill-rule="evenodd"/>
  </g>
</svg>
