<svg xmlns="http://www.w3.org/2000/svg" width="86.68" height="59.779" viewBox="0 0 86.68 59.779">
  <g id="Group_3769" data-name="Group 3769" transform="translate(-646 -3726.998)">
    <g id="discover_1_" data-name="discover (1)" transform="translate(646 3647.547)">
      <path id="Path_3295" data-name="Path 3295" d="M86.68,134.105a5.124,5.124,0,0,1-5.124,5.124H5.124A5.124,5.124,0,0,1,0,134.105V84.575a5.124,5.124,0,0,1,5.124-5.124H81.556a5.124,5.124,0,0,1,5.124,5.124v49.53Z" fill="#f3f2f2"/>
      <path id="Path_3297" data-name="Path 3297" d="M246.921,224.733a6.268,6.268,0,0,0-6.342-6.331h-.024a6.366,6.366,0,1,0,6.366,6.366C246.922,224.755,246.921,224.744,246.921,224.733Z" transform="translate(-194.542 -115.426)" fill="#f26e21"/>
      <g id="Group_3766" data-name="Group 3766" transform="translate(5.736 102.852)">
        <path id="Path_3298" data-name="Path 3298" d="M181.342,226.858a3.912,3.912,0,0,1-2.775,1.345,3.954,3.954,0,0,1-4-4.16,4.619,4.619,0,0,1,1.2-3.086h0a3.739,3.739,0,0,1,2.6-1.077,3.858,3.858,0,0,1,2.938,1.347v-2.816a6.151,6.151,0,0,0-2.938-.734,7.092,7.092,0,0,0-4.149,1.727h0A6.666,6.666,0,0,0,172,224.166a6.221,6.221,0,0,0,6.367,6.243l.051,0,.071,0a6.924,6.924,0,0,0,2.939-.734l-.082-2.816c-.041.041.041.08,0,.119Z" transform="translate(-148.614 -217.677)" fill="#212529"/>
        <path id="Path_3299" data-name="Path 3299" d="M315.028,221.83h0l-2.772,6.816-3.183-8.08H306.5l5.019,12.365h1.347l5.264-12.365h-2.57Z" transform="translate(-260.349 -220.077)" fill="#212529"/>
        <path id="Path_3300" data-name="Path 3300" d="M380.983,225.953v6.611h6.733V230.6h-4.285v-3.3h4.163v-2.082h-4.163v-2.571h4.285v-2.082h-6.733Z" transform="translate(-322.22 -220.077)" fill="#212529"/>
        <path id="Path_3301" data-name="Path 3301" d="M37.312,220.566H33.884v12h3.428a6.64,6.64,0,0,0,4.284-1.347,6.053,6.053,0,0,0,2.2-4.651C43.8,223.014,41.229,220.566,37.312,220.566Zm2.815,9.06a4.707,4.707,0,0,1-3.183.979H36.21v-7.957h.612a4.157,4.157,0,0,1,3.183.979,3.911,3.911,0,0,1,1.347,2.939A3.66,3.66,0,0,1,40.128,229.626Z" transform="translate(-33.884 -220.077)" fill="#212529"/>
        <rect id="Rectangle_1030" data-name="Rectangle 1030" width="2.326" height="11.998" transform="translate(11.019 0.488)" fill="#212529"/>
        <path id="Path_3302" data-name="Path 3302" d="M123.385,224.621c-1.469-.49-1.837-.857-1.837-1.469a1.549,1.549,0,0,1,1.714-1.347,2.368,2.368,0,0,1,1.959.98l1.225-1.591a5.332,5.332,0,0,0-3.55-1.346,3.592,3.592,0,0,0-3.8,3.427c0,1.714.735,2.449,2.938,3.306a4.761,4.761,0,0,1,1.592.734,1.347,1.347,0,0,1,.734,1.224,1.707,1.707,0,0,1-1.837,1.714,2.854,2.854,0,0,1-2.571-1.592l-1.469,1.469a4.8,4.8,0,0,0,4.163,2.326,3.86,3.86,0,0,0,4.161-3.918C126.813,226.457,126.079,225.6,123.385,224.621Z" transform="translate(-104.165 -219.48)" fill="#212529"/>
        <path id="Path_3303" data-name="Path 3303" d="M435.174,227.544a3.23,3.23,0,0,0,2.815-3.427c0-2.2-1.592-3.551-4.285-3.551h-3.551v12h2.326v-4.775h.368l3.3,4.775h2.816Zm-1.959-1.469h-.734V222.4h.734c1.469,0,2.327.612,2.327,1.837S434.684,226.075,433.214,226.075Z" transform="translate(-363.067 -220.077)" fill="#212529"/>
      </g>
    </g>
    <path id="Path_3304" data-name="Path 3304" d="M15742.3,11967.232h36.578v-16.743a56.4,56.4,0,0,1-15.359,10.59C15754.371,11965.265,15742.3,11967.232,15742.3,11967.232Z" transform="translate(-15049 -8183)" fill="#f26e21"/>
  </g>
</svg>
