<svg xmlns="http://www.w3.org/2000/svg" width="86.68" height="59.779" viewBox="0 0 86.68 59.779">
  <g id="Group_3768" data-name="Group 3768" transform="translate(-399 -3726.998)">
    <g id="discover_1_" data-name="discover (1)" transform="translate(399 3647.547)">
      <path id="Path_3295" data-name="Path 3295" d="M86.68,134.105a5.124,5.124,0,0,1-5.124,5.124H5.124A5.124,5.124,0,0,1,0,134.105V84.575a5.124,5.124,0,0,1,5.124-5.124H81.556a5.124,5.124,0,0,1,5.124,5.124v49.53Z" fill="#f3f2f2"/>
    </g>
    <g id="mastercard" transform="translate(407.221 3735.525)">
      <path id="Path_3236" data-name="Path 3236" d="M244.326,122.163a21.363,21.363,0,1,1-42.726,0h0a21.363,21.363,0,1,1,42.726,0Z" transform="translate(-173.116 -100.8)" fill="#ffb600"/>
      <path id="Path_3237" data-name="Path 3237" d="M222.963,100.8a21.418,21.418,0,0,1,21.363,21.363h0a21.363,21.363,0,1,1-42.726,0" transform="translate(-173.116 -100.8)" fill="#f7981d"/>
      <path id="Path_3238" data-name="Path 3238" d="M352.8,100.8a21.418,21.418,0,0,1,21.363,21.363h0A21.346,21.346,0,0,1,352.8,143.526" transform="translate(-302.953 -100.8)" fill="#ff8500"/>
      <path id="Path_3239" data-name="Path 3239" d="M21.137,100.8a21.363,21.363,0,0,0,.226,42.726,21.612,21.612,0,0,0,14.355-5.539h0a20.312,20.312,0,0,0,2.148-2.261H33.457a26.077,26.077,0,0,1-1.582-2.148h7.573a14.479,14.479,0,0,0,1.243-2.261H30.631a13.472,13.472,0,0,1-.9-2.261H41.482a22.444,22.444,0,0,0,1.13-6.782,29.176,29.176,0,0,0-.452-4.521H29.049a16.525,16.525,0,0,1,.565-2.261H41.369a13.472,13.472,0,0,0-.9-2.261H30.518a22.417,22.417,0,0,1,1.243-2.261h7.573a10.749,10.749,0,0,0-1.7-2.261H33.457a19.266,19.266,0,0,1,2.148-2.148,20.858,20.858,0,0,0-14.355-5.539C21.25,100.8,21.25,100.8,21.137,100.8Z" transform="translate(0 -100.8)" fill="#ff5050"/>
      <path id="Path_3240" data-name="Path 3240" d="M0,123.537A21.346,21.346,0,0,0,21.363,144.9a21.612,21.612,0,0,0,14.355-5.539h0a20.309,20.309,0,0,0,2.148-2.261H33.457a26.074,26.074,0,0,1-1.582-2.148h7.573a14.48,14.48,0,0,0,1.243-2.261H30.631a13.47,13.47,0,0,1-.9-2.261H41.482a22.444,22.444,0,0,0,1.13-6.782,29.176,29.176,0,0,0-.452-4.521H29.049a16.525,16.525,0,0,1,.565-2.261H41.369a13.472,13.472,0,0,0-.9-2.261H30.518a22.417,22.417,0,0,1,1.243-2.261h7.573a10.748,10.748,0,0,0-1.7-2.261H33.457a19.266,19.266,0,0,1,2.148-2.148A20.857,20.857,0,0,0,21.25,102.4h-.113" transform="translate(0 -102.174)" fill="#e52836"/>
      <path id="Path_3241" data-name="Path 3241" d="M149.826,144.9a21.612,21.612,0,0,0,14.355-5.539h0a20.31,20.31,0,0,0,2.148-2.261H161.92a26.075,26.075,0,0,1-1.582-2.148h7.573a14.481,14.481,0,0,0,1.243-2.261h-10.06a13.471,13.471,0,0,1-.9-2.261h11.755a22.444,22.444,0,0,0,1.13-6.782,29.176,29.176,0,0,0-.452-4.521H157.512a16.526,16.526,0,0,1,.565-2.261h11.755a13.473,13.473,0,0,0-.9-2.261h-9.947a22.409,22.409,0,0,1,1.243-2.261H167.8a10.749,10.749,0,0,0-1.7-2.261H161.92a19.266,19.266,0,0,1,2.148-2.148,20.858,20.858,0,0,0-14.355-5.539H149.6" transform="translate(-128.463 -102.174)" fill="#cb2026"/>
      <g id="Group_3752" data-name="Group 3752" transform="translate(2.035 15.824)">
        <path id="Path_3242" data-name="Path 3242" d="M184.878,229.947l.339-1.922a4.9,4.9,0,0,1-.565.113c-.791,0-.9-.452-.791-.678l.678-3.956h1.243l.339-2.148h-1.13l.226-1.356h-2.261s-1.356,7.46-1.356,8.364a1.7,1.7,0,0,0,1.808,1.922A3.47,3.47,0,0,0,184.878,229.947Z" transform="translate(-157.977 -218.983)" fill="#fff"/>
        <path id="Path_3243" data-name="Path 3243" d="M210.4,233.8c0,3.165,2.148,3.956,3.956,3.956a5.868,5.868,0,0,0,2.374-.339l.452-2.148a6.776,6.776,0,0,1-2.374.565c-2.487,0-2.035-1.809-2.035-1.809h4.634a14.655,14.655,0,0,0,.339-2.035,3.062,3.062,0,0,0-3.278-3.278C212.1,228.487,210.4,230.974,210.4,233.8Zm3.956-3.278c1.243,0,1.017,1.469,1.017,1.582h-2.487C212.887,231.991,213.113,230.522,214.356,230.522Z" transform="translate(-182.707 -226.452)" fill="#fff"/>
        <path id="Path_3244" data-name="Path 3244" d="M302.217,223.764l.452-2.487a5.555,5.555,0,0,1-1.922.565c-1.582,0-2.261-1.243-2.261-2.6,0-2.713,1.356-4.182,2.939-4.182a3.774,3.774,0,0,1,2.035.678l.339-2.374a7.947,7.947,0,0,0-2.6-.565c-2.6,0-5.2,2.261-5.2,6.556,0,2.826,1.356,4.747,4.069,4.747A10.144,10.144,0,0,0,302.217,223.764Z" transform="translate(-256.213 -212.8)" fill="#fff"/>
        <path id="Path_3245" data-name="Path 3245" d="M90.7,227.2a8.005,8.005,0,0,0-2.713.452l-.339,1.922a6.681,6.681,0,0,1,2.487-.452c.791,0,1.469.113,1.469.791,0,.452-.113.565-.113.565H90.469c-1.922,0-4.069.791-4.069,3.391,0,2.035,1.356,2.487,2.148,2.487a3.4,3.4,0,0,0,2.374-1.017l-.113.9h2.035l.9-6.217A2.679,2.679,0,0,0,90.7,227.2Zm.452,5.086c0,.339-.226,2.148-1.582,2.148a.882.882,0,0,1-.9-.9c0-.565.339-1.356,2.035-1.356A1.782,1.782,0,0,0,91.147,232.286Z" transform="translate(-76.227 -225.165)" fill="#fff"/>
        <path id="Path_3246" data-name="Path 3246" d="M137.8,235.669c.565,0,3.391.113,3.391-2.939,0-2.826-2.713-2.261-2.713-3.391,0-.565.452-.791,1.243-.791.339,0,1.582.113,1.582.113l.339-2.035a8.586,8.586,0,0,0-2.148-.226c-1.7,0-3.391.678-3.391,2.939,0,2.6,2.826,2.374,2.826,3.391,0,.678-.791.791-1.356.791a7.391,7.391,0,0,1-2.035-.339l-.339,2.035C135.313,235.443,135.878,235.669,137.8,235.669Z" transform="translate(-118.132 -224.479)" fill="#fff"/>
        <path id="Path_3247" data-name="Path 3247" d="M433.643,214.4l-.452,3.052a3.134,3.134,0,0,0-2.148-1.13c-2.035,0-3.843,2.487-3.843,5.425,0,1.809.9,3.73,2.826,3.73a3.017,3.017,0,0,0,2.148-.9l-.113.791h2.261l1.7-10.851Zm-1.017,5.991c0,1.243-.565,2.826-1.809,2.826-.791,0-1.243-.678-1.243-1.809,0-1.808.791-2.939,1.809-2.939C432.173,218.469,432.625,219.034,432.625,220.391Z" transform="translate(-368.876 -214.174)" fill="#fff"/>
        <path id="Path_3248" data-name="Path 3248" d="M16.548,225.251l1.356-8.138.226,8.138h1.582l2.939-8.138-1.243,8.138h2.374L25.59,214.4H21.86L19.6,221.069l-.113-6.669H16.208L14.4,225.251Z" transform="translate(-14.4 -214.174)" fill="#fff"/>
        <path id="Path_3249" data-name="Path 3249" d="M262.487,237.616c.678-3.73.791-6.782,2.374-6.217a8.871,8.871,0,0,1,.791-2.6H265.2c-1.017,0-1.809,1.356-1.809,1.356l.226-1.243h-2.148L260,237.729h2.487Z" transform="translate(-225.299 -226.539)" fill="#fff"/>
        <path id="Path_3250" data-name="Path 3250" d="M350.7,227.2a8.005,8.005,0,0,0-2.713.452l-.339,1.922a6.681,6.681,0,0,1,2.487-.452c.791,0,1.469.113,1.469.791,0,.452-.113.565-.113.565h-1.017c-1.922,0-4.069.791-4.069,3.391,0,2.035,1.356,2.487,2.148,2.487a3.4,3.4,0,0,0,2.374-1.017l-.113.9h2.035l.9-6.217C353.86,227.313,351.486,227.2,350.7,227.2Zm.565,5.086c0,.339-.226,2.148-1.582,2.148a.882.882,0,0,1-.9-.9c0-.565.339-1.356,2.035-1.356C351.147,232.286,351.147,232.286,351.26,232.286Z" transform="translate(-299.492 -225.165)" fill="#fff"/>
        <path id="Path_3251" data-name="Path 3251" d="M396.887,237.616c.678-3.73.791-6.782,2.374-6.217a8.871,8.871,0,0,1,.791-2.6H399.6c-1.017,0-1.808,1.356-1.808,1.356l.226-1.243h-2.148l-1.469,8.816h2.487Z" transform="translate(-340.71 -226.539)" fill="#fff"/>
      </g>
      <g id="Group_3753" data-name="Group 3753" transform="translate(2.035 15.824)">
        <path id="Path_3252" data-name="Path 3252" d="M180,228.364a1.7,1.7,0,0,0,1.809,1.922,4.3,4.3,0,0,0,1.7-.339l.339-1.922a4.9,4.9,0,0,1-.565.113c-.791,0-.9-.452-.791-.678l.678-3.956h1.243l.339-2.148h-1.13l.226-1.356" transform="translate(-156.603 -218.983)" fill="#dce5e5"/>
        <path id="Path_3253" data-name="Path 3253" d="M218.4,233.8c0,3.165,1.017,3.956,2.826,3.956a5.868,5.868,0,0,0,2.374-.339l.452-2.148a6.776,6.776,0,0,1-2.374.565c-2.487,0-2.035-1.809-2.035-1.809h4.634a14.655,14.655,0,0,0,.339-2.035,3.062,3.062,0,0,0-3.278-3.278C218.965,228.487,218.4,230.974,218.4,233.8Zm2.826-3.278c1.243,0,1.469,1.469,1.469,1.582h-2.939C219.756,231.991,219.982,230.522,221.226,230.522Z" transform="translate(-189.577 -226.452)" fill="#dce5e5"/>
        <path id="Path_3254" data-name="Path 3254" d="M309.086,223.764l.452-2.487a5.555,5.555,0,0,1-1.922.565c-1.582,0-2.261-1.243-2.261-2.6,0-2.713,1.356-4.182,2.939-4.182a3.775,3.775,0,0,1,2.035.678l.339-2.374a7.947,7.947,0,0,0-2.6-.565c-2.6,0-4.069,2.261-4.069,6.556,0,2.826.226,4.747,2.939,4.747A10.144,10.144,0,0,0,309.086,223.764Z" transform="translate(-263.083 -212.8)" fill="#dce5e5"/>
        <path id="Path_3255" data-name="Path 3255" d="M87.643,231.061a6.682,6.682,0,0,1,2.487-.452c.791,0,1.469.113,1.469.791,0,.452-.113.565-.113.565H90.469c-1.922,0-4.069.791-4.069,3.391,0,2.035,1.356,2.487,2.148,2.487a3.4,3.4,0,0,0,2.374-1.017l-.113.9h2.035l.9-6.217c0-2.6-2.261-2.713-3.165-2.713m1.7,4.86c0,.339-1.356,2.148-2.713,2.148a.882.882,0,0,1-.9-.9c0-.565.339-1.356,2.035-1.356A9.234,9.234,0,0,0,92.278,233.66Z" transform="translate(-76.227 -226.539)" fill="#dce5e5"/>
        <path id="Path_3256" data-name="Path 3256" d="M136,235.443a9.566,9.566,0,0,0,2.6.226c.565,0,3.391.113,3.391-2.939,0-2.826-2.713-2.261-2.713-3.391,0-.565.452-.791,1.243-.791.339,0,1.582.113,1.582.113l.339-2.035a8.586,8.586,0,0,0-2.148-.226c-1.7,0-2.261.678-2.261,2.939,0,2.6,1.7,2.374,1.7,3.391,0,.678-.791.791-1.356.791" transform="translate(-118.819 -224.479)" fill="#dce5e5"/>
        <path id="Path_3257" data-name="Path 3257" d="M440.01,218.139a3.134,3.134,0,0,0-2.148-1.13c-2.035,0-2.713,2.487-2.713,5.425,0,1.809-.226,3.73,1.7,3.73a3.017,3.017,0,0,0,2.148-.9l-.113.791h2.261l1.7-10.851m-2.939,5.878c0,1.243-1.017,2.826-2.261,2.826-.791,0-1.243-.678-1.243-1.809,0-1.809.791-2.939,1.808-2.939A1.727,1.727,0,0,1,439.9,221.078Z" transform="translate(-375.696 -214.861)" fill="#dce5e5"/>
        <path id="Path_3258" data-name="Path 3258" d="M16.548,225.251l1.356-8.138.226,8.138h1.582l2.939-8.138-1.243,8.138h2.374L25.59,214.4H22.764L19.6,221.069l-.113-6.669H18.243L14.4,225.251Z" transform="translate(-14.4 -214.174)" fill="#dce5e5"/>
        <path id="Path_3259" data-name="Path 3259" d="M260.8,237.616h2.374c.678-3.73.791-6.782,2.374-6.217a8.873,8.873,0,0,1,.791-2.6h-.452c-1.017,0-1.809,1.356-1.809,1.356l.226-1.243" transform="translate(-225.986 -226.539)" fill="#dce5e5"/>
        <path id="Path_3260" data-name="Path 3260" d="M347.643,231.061a6.681,6.681,0,0,1,2.487-.452c.791,0,1.469.113,1.469.791,0,.452-.113.565-.113.565h-1.017c-1.922,0-4.069.791-4.069,3.391,0,2.035,1.356,2.487,2.148,2.487a3.4,3.4,0,0,0,2.374-1.017l-.113.9h2.035l.9-6.217c0-2.6-2.261-2.713-3.165-2.713m1.7,4.86c0,.339-1.356,2.148-2.713,2.148a.882.882,0,0,1-.9-.9c0-.565.339-1.356,2.035-1.356A9.943,9.943,0,0,0,352.278,233.66Z" transform="translate(-299.492 -226.539)" fill="#dce5e5"/>
        <path id="Path_3261" data-name="Path 3261" d="M395.2,237.616h2.374c.678-3.73.791-6.782,2.374-6.217a8.872,8.872,0,0,1,.791-2.6h-.452c-1.017,0-1.809,1.356-1.809,1.356l.226-1.243" transform="translate(-341.397 -226.539)" fill="#dce5e5"/>
      </g>
    </g>
  </g>
</svg>
