<svg xmlns="http://www.w3.org/2000/svg" width="86.68" height="59.779" viewBox="0 0 86.68 59.779">
  <g id="Group_3771" data-name="Group 3771" transform="translate(-516 -3726.998)">
    <g id="discover_1_" data-name="discover (1)" transform="translate(516 3647.547)">
      <path id="Path_3295" data-name="Path 3295" d="M86.68,134.105a5.124,5.124,0,0,1-5.124,5.124H5.124A5.124,5.124,0,0,1,0,134.105V84.575a5.124,5.124,0,0,1,5.124-5.124H81.556a5.124,5.124,0,0,1,5.124,5.124v49.53Z" fill="#f3f2f2"/>
    </g>
    <g id="visa" transform="translate(520.754 3745.2)">
      <path id="Path_3262" data-name="Path 3262" d="M184.8,202.546l3.937-22.146h6.152l-3.814,22.146Z" transform="translate(-156.379 -179.662)" fill="#004f98"/>
      <path id="Path_3264" data-name="Path 3264" d="M266.824,176.584a15.605,15.605,0,0,0-5.66-.984c-6.152,0-10.581,3.076-10.581,7.505,0,3.322,3.076,5.044,5.537,6.152s3.2,1.845,3.2,2.83c0,1.476-1.969,2.215-3.691,2.215a13.373,13.373,0,0,1-5.906-1.23l-.861-.369L248,197.746a19.949,19.949,0,0,0,7.013,1.23c6.521,0,10.827-3.076,10.827-7.751,0-2.584-1.6-4.552-5.29-6.152-2.215-1.107-3.568-1.722-3.568-2.83,0-.984,1.107-1.969,3.568-1.969a11.284,11.284,0,0,1,4.675.861l.615.246.984-4.8Z" transform="translate(-209.859 -175.6)" fill="#004f98"/>
      <path id="Path_3266" data-name="Path 3266" d="M370.826,180.4c-1.476,0-2.584.123-3.2,1.6L358.4,202.546h6.644l1.23-3.691h7.874l.738,3.691h5.906L375.625,180.4ZM368,195.164c.369-1.107,2.461-6.521,2.461-6.521s.492-1.353.861-2.215l.369,2.092s1.23,5.537,1.476,6.767H368Z" transform="translate(-303.281 -179.662)" fill="#004f98"/>
      <path id="Path_3268" data-name="Path 3268" d="M60.428,196.579l-.615-3.2c-1.107-3.691-4.675-7.751-8.612-9.72l5.537,19.685H63.38L73.346,181.2H66.7Z" transform="translate(-43.326 -180.339)" fill="#004f98"/>
      <path id="Path_3270" data-name="Path 3270" d="M0,180.4l1.107.246c7.874,1.845,13.288,6.521,15.379,12.057l-2.215-10.458c-.369-1.476-1.476-1.846-2.83-1.846Z" transform="translate(0 -179.662)" fill="#f7a600"/>
    </g>
  </g>
</svg>
