<svg viewBox="0 0 70 70" xmlns="http://www.w3.org/2000/svg"><g fill="none"><path d="M0 0h69.755v69.755H0V0z" fill="#fff"/><path d="M60.21 23.052h-1.429c-10.404 0-20.808-.023-31.212.028-1.364.006-1.839-.35-1.801-1.764.093-3.545.026-7.095.032-10.643.004-1.992.586-2.608 2.531-2.613 5.034-.013 10.068-.026 15.102.023.612.006 1.378.218 1.806.619 4.871 4.547 9.691 9.149 14.521 13.74.126.12.212.283.449.61M47.217 60.064c-.031-.608-.069-1.023-.069-1.437-.004-10.42.023-20.839-.032-31.258-.008-1.408.423-1.806 1.799-1.772 3.503.088 7.01.024 10.515.031 2.029.004 2.509.452 2.514 2.416.013 5.138.033 10.276-.03 15.413-.009.696-.294 1.554-.758 2.052-4.353 4.671-8.773 9.281-13.177 13.904-.185.194-.408.351-.761.651M10.307 47.159h1.582c10.262 0 20.524-.001 30.785.001 1.89 0 1.892.008 1.893 1.922.002 3.453.009 6.906-.004 10.358-.007 1.886-.623 2.507-2.494 2.511-5.131.01-10.262.022-15.393-.022-.567-.005-1.276-.207-1.673-.58-4.755-4.461-9.465-8.972-14.182-13.474-.13-.124-.215-.295-.514-.717m12.641-36.969c.034.65.079 1.108.079 1.565.004 10.271-.024 20.542.033 30.813.008 1.454-.4 1.913-1.868 1.872-3.549-.101-7.103-.023-10.655-.04-1.776-.008-2.289-.536-2.292-2.343-.01-5.136-.024-10.272.023-15.407.006-.611.213-1.376.612-1.803 4.425-4.732 8.906-9.413 13.375-14.103.153-.161.348-.282.693-.555" fill="#0F6FAB"/></g></svg>