<svg viewBox="0 0 64 64" xmlns="http://www.w3.org/2000/svg" style="background:#fff"><path d="M56.784 56.787c-1.617 1.603-4.275 1.632-5.92 0l-9.647-9.666.06 6.705c.071 2.622-1.775 4.135-4.076 4.135-2.362 0-4.201-1.844-4.201-4.135v-8.35c0-1.832 1.125-3.309 2.617-3.886 2.781-1.075 4.925-3.217 5.977-5.968.56-1.473 2.05-2.622 3.888-2.622h8.343c2.302 0 4.137 1.845 4.137 4.206 0 2.303-1.518 4.135-4.137 4.067l-6.7-.07 9.659 9.663c1.64 1.636 1.603 4.296 0 5.92m0-48.566a4.202 4.202 0 010 5.913l-9.66 9.661 6.701-.071c2.619-.059 4.137 1.776 4.137 4.079 0 2.363-1.835 4.198-4.137 4.198h-8.343c-1.838 0-3.306-1.116-3.888-2.623-1.087-2.773-3.234-4.924-5.964-5.962A4.153 4.153 0 0133 19.526v-8.355c0-2.295 1.839-4.138 4.205-4.138 2.297 0 4.133 1.504 4.072 4.138l-.06 6.71 9.647-9.662c1.645-1.644 4.309-1.606 5.92 0M8.221 8.22c1.607-1.607 4.271-1.645 5.91 0l9.653 9.662-.06-6.711c-.074-2.634 1.768-4.138 4.065-4.138C30.156 7.033 32 8.876 32 11.17v8.355a4.153 4.153 0 01-2.623 3.889 10.416 10.416 0 00-5.976 5.962C22.842 30.863 21.36 32 19.518 32h-8.342c-2.303 0-4.14-1.835-4.14-4.198 0-2.303 1.512-4.138 4.14-4.079l6.7.071-9.655-9.66c-1.65-1.65-1.607-4.31 0-5.915m0 48.568c-1.607-1.614-1.65-4.285 0-5.921l9.654-9.662-6.699.069c-2.628.068-4.14-1.764-4.14-4.067 0-2.361 1.837-4.206 4.14-4.206h8.342c1.844 0 3.306 1.127 3.883 2.622 1.089 2.771 3.234 4.924 5.976 5.98C30.86 42.16 32 43.644 32 45.476v8.35c0 2.29-1.844 4.135-4.21 4.135-2.298 0-4.14-1.513-4.066-4.135l.06-6.705-9.653 9.666c-1.639 1.632-4.303 1.603-5.91 0" fill="#0B8A68" fill-rule="evenodd"/></svg>