<svg xmlns="http://www.w3.org/2000/svg" width="454.967" height="242.332" viewBox="0 0 454.967 242.332">
  <g id="Group_3635" data-name="Group 3635" transform="translate(-142.246 -170.692)">
    <path id="Path_2393" data-name="Path 2393" d="M570.057,392.053c-2.7-5.153-13.676-9.292-18.588-10.23-26.217-5-53.677-4.3-80.235-4.221-28.923.091-56.519,4.72-85.2,6.864-14.916,1.111-30.68-.89-45.631-1.409q-36.93-1.279-73.844-3c-21.218-.99-43.24,1.23-61.956,12.928-2.127,1.331-4.276,2.936-5.244,5.323-6.08,14.988,69.693,13.105,79.565,13.362,49.8,1.3,99.627,1.966,149.43.618,37.03-1,75.622-.942,112.346-6.167,8.121-1.156,19.173-1.57,26.189-6.349C570.768,397.124,571.328,394.477,570.057,392.053Z" fill="#e7f5fe"/>
    <g id="Group_3601" data-name="Group 3601">
      <path id="Path_2394" data-name="Path 2394" d="M537.824,187.489c13.306,0,34.987,5.261,32.843,18.254-2.939,17.805-82.078,11.239-100.98,11.424-38.012.371-76.426.514-113.7,8.826-9.062,2.021-22.043,6.482-21.056,18.044.345,4.038,2.725,7.694,5.753,10.428,10.884,9.83,26.05,10.772,40.128,12.5,21.293,2.61,122.579-.868,155.688,9.987,6.521,2.138,14.667,4.895,14.938,14.209.69,23.683-58.128,22.517-75.77,22.967-47.089,1.2-94.231.725-141.321-.2-38.055-.751-76.23-1.416-114.223-3.872-14.163-.915-37.327-1.19-48.128-11.822-6.04-5.945-6.832-16.753,2.717-22.275,6.731-3.892,26.475-2.19,34.074-2.843,24.56-2.113,14.933-17.89-6.6-17.89" fill="none" stroke="#53bbfd" stroke-miterlimit="10" stroke-width="1" stroke-dasharray="4"/>
      <g id="Group_3594" data-name="Group 3594">
        <path id="Path_2395" data-name="Path 2395" d="M539.171,204.807l-6.063-32.051a2.532,2.532,0,0,0-4.14-1.449l-24.726,21.277a2.532,2.532,0,0,0,.816,4.31l30.789,10.774A2.532,2.532,0,0,0,539.171,204.807Z" fill="#f0faff"/>
        <g id="Group_3593" data-name="Group 3593">
          <path id="Path_2396" data-name="Path 2396" d="M534.5,204.32a1.57,1.57,0,0,1-.518-.088l-25.324-8.862a1.574,1.574,0,0,1-.507-2.678l20.338-17.5a1.572,1.572,0,0,1,2.571.9l4.988,26.364a1.572,1.572,0,0,1-1.548,1.865Zm-24.483-10.594,23.928,8.374-4.712-24.91Z" fill="#53bbfd"/>
        </g>
        <path id="Path_2397" data-name="Path 2397" d="M523.505,193.557h0a.949.949,0,0,1-.6-1.169l2.511-8.81a1.489,1.489,0,0,1,1.919-.977h0a1.488,1.488,0,0,1,.891,1.96l-3.53,8.454A.949.949,0,0,1,523.505,193.557Z" fill="#53bbfd"/>
        <path id="Path_2398" data-name="Path 2398" d="M523.689,195.959a.967.967,0,1,1-.593-1.232A.966.966,0,0,1,523.689,195.959Z" fill="#53bbfd"/>
      </g>
      <g id="Group_3596" data-name="Group 3596">
        <path id="Path_2399" data-name="Path 2399" d="M200.27,244.439l-19.935-9.924a1.729,1.729,0,0,0-2.5,1.655l1.374,22.226a1.729,1.729,0,0,0,2.681,1.334l18.561-12.3A1.728,1.728,0,0,0,200.27,244.439Z" fill="#f0faff"/>
        <g id="Group_3595" data-name="Group 3595">
          <path id="Path_2400" data-name="Path 2400" d="M198.078,246.778a1.074,1.074,0,0,1-.261.246L182.55,257.143a1.074,1.074,0,0,1-1.665-.829l-1.13-18.281a1.073,1.073,0,0,1,1.55-1.028l16.4,8.162a1.072,1.072,0,0,1,.376,1.611Zm-15.862,8.948,14.426-9.562-15.493-7.712Z" fill="#53bbfd"/>
        </g>
        <path id="Path_2401" data-name="Path 2401" d="M187.689,248.32h0a.649.649,0,0,1-.882-.159l-3.757-5a1.019,1.019,0,0,1,.26-1.448h0a1.017,1.017,0,0,1,1.434.325l3.142,5.407A.648.648,0,0,1,187.689,248.32Z" fill="#53bbfd"/>
        <path id="Path_2402" data-name="Path 2402" d="M189.071,249.21a.661.661,0,1,1-.915-.185A.66.66,0,0,1,189.071,249.21Z" fill="#53bbfd"/>
      </g>
      <g id="Group_3600" data-name="Group 3600">
        <circle id="Ellipse_328" data-name="Ellipse 328" cx="1.661" cy="1.661" r="1.661" transform="translate(212.418 285.938)" fill="none" stroke="#d2e8f9" stroke-miterlimit="10" stroke-width="1"/>
        <circle id="Ellipse_329" data-name="Ellipse 329" cx="1.661" cy="1.661" r="1.661" transform="translate(458.842 255.219)" fill="none" stroke="#d2e8f9" stroke-miterlimit="10" stroke-width="1"/>
        <circle id="Ellipse_330" data-name="Ellipse 330" cx="1.661" cy="1.661" r="1.661" transform="translate(328.098 208.698)" fill="none" stroke="#d2e8f9" stroke-miterlimit="10" stroke-width="1"/>
        <circle id="Ellipse_331" data-name="Ellipse 331" cx="1.661" cy="1.661" r="1.661" transform="translate(326.106 334.951)" fill="none" stroke="#d2e8f9" stroke-miterlimit="10" stroke-width="1"/>
        <g id="Group_3597" data-name="Group 3597">
          <line id="Line_38" data-name="Line 38" y2="3.756" transform="translate(366.457 238.859)" fill="none" stroke="#d2e8f9" stroke-linecap="round" stroke-linejoin="round" stroke-width="1"/>
          <line id="Line_39" data-name="Line 39" x1="3.756" transform="translate(364.579 240.736)" fill="none" stroke="#d2e8f9" stroke-linecap="round" stroke-linejoin="round" stroke-width="1"/>
        </g>
        <g id="Group_3598" data-name="Group 3598">
          <line id="Line_40" data-name="Line 40" y2="3.756" transform="translate(433.866 190.872)" fill="none" stroke="#d2e8f9" stroke-linecap="round" stroke-linejoin="round" stroke-width="1"/>
          <line id="Line_41" data-name="Line 41" x1="3.756" transform="translate(431.988 192.75)" fill="none" stroke="#d2e8f9" stroke-linecap="round" stroke-linejoin="round" stroke-width="1"/>
        </g>
        <g id="Group_3599" data-name="Group 3599">
          <line id="Line_42" data-name="Line 42" y2="3.756" transform="translate(538.155 292.184)" fill="none" stroke="#d2e8f9" stroke-linecap="round" stroke-linejoin="round" stroke-width="1"/>
          <line id="Line_43" data-name="Line 43" x1="3.756" transform="translate(536.277 294.062)" fill="none" stroke="#d2e8f9" stroke-linecap="round" stroke-linejoin="round" stroke-width="1"/>
        </g>
      </g>
    </g>
    <g id="Group_3615" data-name="Group 3615">
      <g id="Group_3606" data-name="Group 3606">
        <g id="Group_3603" data-name="Group 3603">
          <path id="Path_2403" data-name="Path 2403" d="M400.173,399.552s-6.991,2.982-6.986,4.474c0,.856,9.613-.369,10.192-.948.927-.927-.375-3.4-.375-3.4Z" fill="#26387a"/>
          <path id="Path_2404" data-name="Path 2404" d="M399.725,395.383l.448,4.3a1.312,1.312,0,0,0,1.21.772,2.033,2.033,0,0,0,1.621-.772l-.345-5.379" fill="#ffb288"/>
          <path id="Path_2405" data-name="Path 2405" d="M411.933,296.808c2.543,10.245,1.6,15.449-2.126,23.178-2.257,25.987-3.834,51.872-6.871,77.21l-3.211.184c-7.3-24.67-14.009-61.55-13.153-95.261" fill="#26387a"/>
          <g id="Group_3602" data-name="Group 3602">
            <path id="Path_2406" data-name="Path 2406" d="M410.349,300.328a19.39,19.39,0,0,1,1.081,7.589c-.124,3.888-1.7,7.408-2.727,11.1-1.365,4.917-1.47,9.814-1.843,14.854q-.876,11.83-1.783,23.658-1.47,19.292-2.966,38.579-.043.573-.089,1.145" fill="none" stroke="#0061a6" stroke-miterlimit="10" stroke-width="0.5"/>
          </g>
        </g>
        <g id="Group_3605" data-name="Group 3605">
          <path id="Path_2407" data-name="Path 2407" d="M428.048,400.552s-6.991,2.982-6.986,4.474c0,.856,9.613-.369,10.192-.948.927-.927-.375-3.4-.375-3.4Z" fill="#26387a"/>
          <path id="Path_2408" data-name="Path 2408" d="M427.6,396.383l.448,4.3a1.312,1.312,0,0,0,1.21.772,2.033,2.033,0,0,0,1.621-.772l-.345-5.379" fill="#ffb288"/>
          <path id="Path_2409" data-name="Path 2409" d="M435.18,295.94c3.215,10.055,2.618,15.31-.587,23.269-.533,26.079-2.327,53.311-3.68,78.795h-3.3c-8.912-24.133-18.459-61.392-19.835-95.086" fill="#26387a"/>
          <g id="Group_3604" data-name="Group 3604">
            <path id="Path_2410" data-name="Path 2410" d="M433.587,300.105s3.727,8.722-2.573,20.972c-.727,11.561-1.1,76.927-1.1,76.927" fill="none" stroke="#0061a6" stroke-miterlimit="10" stroke-width="0.5"/>
            <path id="Path_2411" data-name="Path 2411" d="M424.367,302.868a5.76,5.76,0,0,0,2.734,2.125,13.584,13.584,0,0,0,3.408.772,24.191,24.191,0,0,0,4.156.214" fill="none" stroke="#0061a6" stroke-miterlimit="10" stroke-width="0.5"/>
            <path id="Path_2412" data-name="Path 2412" d="M424.823,304.5a9.487,9.487,0,0,0,4.272,2.1,22.3,22.3,0,0,0,4.771.451" fill="none" stroke="#0061a6" stroke-miterlimit="10" stroke-width="0.5"/>
          </g>
        </g>
      </g>
      <g id="Group_3607" data-name="Group 3607">
        <path id="Path_2413" data-name="Path 2413" d="M397.023,247.344c-11.118,19.346-23.086,36.867-30.182,58.023l-2.114-1.124c.54-19.642,6.906-48.2,15.266-65.986" fill="#ffb288"/>
        <path id="Path_2414" data-name="Path 2414" d="M391.59,227.141a29.381,29.381,0,0,0-7.485,3.655,25.48,25.48,0,0,0-8.644,10.43,47.231,47.231,0,0,0-3.722,13.148,34.914,34.914,0,0,0,9.988,2.993,52.726,52.726,0,0,0,11.008,0" fill="#2f80ed"/>
      </g>
      <g id="Group_3608" data-name="Group 3608">
        <path id="Path_2415" data-name="Path 2415" d="M383.3,238.576c-1.183,20.923-.281,42.447.25,62.8,0,0,7.3,1.941,25.023,1.941,17.66,0,29.225-5.383,29.225-5.383-3.422-20.918-6.143-46.583-14.523-63.8,0,0-9.455-10.2-18.784-10.618a12.172,12.172,0,0,0-5.536,1.433c-1.316.612-7.365,2.091-7.365,2.091Z" fill="#2f80ed"/>
        <path id="Path_2416" data-name="Path 2416" d="M383.2,240.441c-.463,4.022-.463,16.439-.463,16.439" fill="none" stroke="#1c81c1" stroke-miterlimit="10" stroke-width="0.5"/>
      </g>
      <g id="Group_3612" data-name="Group 3612">
        <path id="Path_2417" data-name="Path 2417" d="M400.832,307.962c29.615-3.284,42.037,34.252,48.78,48.814C465.553,391.2,525.7,387.357,553.1,387.357c35.9,0,51.651,12.1,34.9,18.443" fill="none" stroke="#136acd" stroke-linecap="round" stroke-linejoin="round" stroke-width="5"/>
        <path id="Path_2418" data-name="Path 2418" d="M411.038,309.657c0,15.235-11.531,24.429-21.386,24.429H373.487V285.227h16.165C399.507,285.227,411.038,294.422,411.038,309.657Z" fill="#fdae2b"/>
        <path id="Path_2419" data-name="Path 2419" d="M402.708,309.657c0,14.887-8.815,26.955-19.689,26.955H365.183V282.7h17.836C393.893,282.7,402.708,294.77,402.708,309.657Z" fill="#ef8417"/>
        <path id="Path_2420" data-name="Path 2420" d="M406.659,294.93q-5.785,7.884-11.267,15.985a2.735,2.735,0,0,0,1.379-.722c0,.4-.646,1.106-.075,1.366s1.175-.408,1.771-.225c.559-.131,1.081-.832,1.49-1.236a3.056,3.056,0,0,0-.25.943c3.935-1.53,7.454-5.2,10.515-8.151A24.662,24.662,0,0,0,406.659,294.93Z" fill="#fdae2b" opacity="0.5" style="mix-blend-mode: multiply;isolation: isolate"/>
        <ellipse id="Ellipse_332" data-name="Ellipse 332" cx="19.689" cy="26.955" rx="19.689" ry="26.955" transform="translate(346.768 282.702)" fill="#ffc840"/>
        <g id="Group_3611" data-name="Group 3611">
          <g id="Group_3609" data-name="Group 3609">
            <path id="Path_2421" data-name="Path 2421" d="M368.1,319.209c0,2.212-1.511,4.006-3.375,4.006s-3.376-1.794-3.376-4.006,1.512-4.006,3.376-4.006S368.1,317,368.1,319.209Z" fill="#ef8417"/>
          </g>
          <g id="Group_3610" data-name="Group 3610">
            <path id="Path_2422" data-name="Path 2422" d="M368.1,300.105c0,2.212-1.511,4.006-3.375,4.006s-3.376-1.794-3.376-4.006,1.512-4.006,3.376-4.006S368.1,297.893,368.1,300.105Z" fill="#ef8417"/>
          </g>
        </g>
      </g>
      <g id="Group_3613" data-name="Group 3613">
        <path id="Path_2423" data-name="Path 2423" d="M428.663,254.018s1.25,12.732-4.443,23.32c-4.869,9.054-14.54,20.773-22.354,27.23l-1.877-.457c2.719-10.436,11.3-28.966,11.837-35.913s.406-15,.534-18.868" fill="#ffb288"/>
        <path id="Path_2424" data-name="Path 2424" d="M404.491,223.514s10.479.717,16.558,5.853c8.679,7.334,9.965,21.687,9.965,25.02-2.623,2.835-8.358,2.98-12.537,2.98a14.41,14.41,0,0,1-7.232-2l-.853-15.833" fill="#2f80ed"/>
        <path id="Path_2425" data-name="Path 2425" d="M400.751,302.56a6.665,6.665,0,0,0-3.351,1.481c-.918.717-2.047,1.918-1.929,2.467.124.577,1.629-.533,1.812-.309s-2.576,4.39-2.056,4.7,2.866-3.462,2.866-3.462-2.279,4.032-1.4,4.12c.737.074,2.76-3.742,2.76-3.742s-1.711,3.412-1.125,3.541,2.171-3.27,2.171-3.27-1.29,2.9-.8,2.953c.25.025,1.524-1.419,2.056-3.169.524-1.721,1.136-3.215.664-4.558" fill="#ffb288"/>
        <line id="Line_44" data-name="Line 44" y2="14.425" transform="translate(411.683 241.198)" fill="none" stroke="#1c81c1" stroke-miterlimit="10" stroke-width="0.5"/>
      </g>
      <g id="Group_3614" data-name="Group 3614">
        <path id="Path_2426" data-name="Path 2426" d="M382.774,210.207c-.055.625-.08,1.253-.075,1.88a6.782,6.782,0,0,0,.968,3.9,4.1,4.1,0,0,0,2.249,1.578c.638.174,1.473.1,1.748-.5a1.631,1.631,0,0,0,.1-.688,18.483,18.483,0,0,0-1.328-6.807" fill="#26387a"/>
        <path id="Path_2427" data-name="Path 2427" d="M398.586,211.518c-.9-3.5-3.726-8.412-8.327-7.427a8.412,8.412,0,0,0-6.4,5.343c-1.015,3.291.631,7.118,2.6,9.8a8.125,8.125,0,0,0,2.713,2.516c2.664,1.377,6.259.248,8.067-2.046A9.443,9.443,0,0,0,398.586,211.518Z" fill="#ffb288"/>
        <path id="Path_2428" data-name="Path 2428" d="M392.133,220.681l1.5,5.494-2.047.966a5,5,0,0,0,4.649,1.63c6.278-.906,8.252-5.257,8.252-5.257l-3.544-.37-3.924-6.688" fill="#ffb288"/>
        <path id="Path_2429" data-name="Path 2429" d="M401.649,207.7a8.819,8.819,0,0,0-4.248-5.723c-3.716-2.257-9.005-2.438-12.313.671-1.884,1.77-5.274,8.046-1.223,9.291,1.265.389,2.567-.381,3.668-1.117l3.359-2.246a2.664,2.664,0,0,1,1.313-.565,1.965,1.965,0,0,1,1.733,1.394,18.224,18.224,0,0,1,.488,2.322,2.221,2.221,0,0,0,.841,1.406,1.034,1.034,0,0,0,1.456-.293,2.593,2.593,0,0,0,.041-1.153c-.007-.389.212-.865.6-.848a.682.682,0,0,1,.376.163c.978.761.66,2.287.985,3.483.043.157-.285,2.577-.176,2.7C401.671,216.456,401.965,209.421,401.649,207.7Z" fill="#26387a"/>
        <path id="Path_2430" data-name="Path 2430" d="M397.031,211.141a.864.864,0,0,1,.8-.9,1.7,1.7,0,0,1,1.223.465,2.708,2.708,0,0,1,1.023,1.971,3.042,3.042,0,0,1-.557,1.679,1.8,1.8,0,0,1-.9.791,1.421,1.421,0,0,1-1.409-.449" fill="#ffb288"/>
      </g>
    </g>
    <g id="Group_3627" data-name="Group 3627">
      <g id="Group_3618" data-name="Group 3618">
        <g id="Group_3616" data-name="Group 3616">
          <path id="Path_2431" data-name="Path 2431" d="M285.675,399.4s6.744,1.124,6.93,2.605c.106.849-9.452,1.861-10.1,1.361-1.038-.8.235-3.793.235-3.793Z" fill="#26387a"/>
          <path id="Path_2432" data-name="Path 2432" d="M285.139,395.265l.553,4.262a1.314,1.314,0,0,1-1.1.922,2.034,2.034,0,0,1-1.707-.558l-.793-5.321" fill="#ffb288"/>
          <path id="Path_2433" data-name="Path 2433" d="M259.931,298.124c-1.2,10.487-1.271,15.527,3.416,22.713,2.221,10.148,5.631,20.535,8.209,30.924-1.11,12.406,6.668,32.168,10.852,46.282l3.024-.517c4.066-25.4,5.568-64.359,1.919-98.46" fill="#26387a"/>
          <path id="Path_2434" data-name="Path 2434" d="M261.9,312.333s11.6,36.834,11.6,38.834.317,8.875.831,13.333c.942,8.167,8.342,32.239,8.342,32.239" fill="none" stroke="#0061a6" stroke-miterlimit="10" stroke-width="0.5"/>
          <path id="Path_2435" data-name="Path 2435" d="M282.313,398.61l-.468-1.841,3.9-.145.052,1.7Z" fill="#0061a6"/>
        </g>
        <g id="Group_3617" data-name="Group 3617">
          <path id="Path_2436" data-name="Path 2436" d="M233.233,399.609s5.276,3.812,4.808,5.154c-.268.769-8.85-2.411-9.192-3.112-.547-1.121,1.806-3.137,1.806-3.137Z" fill="#26387a"/>
          <path id="Path_2437" data-name="Path 2437" d="M234.525,395.855l-1.332,3.87a1.249,1.249,0,0,1-1.329.32,1.935,1.935,0,0,1-1.22-1.2l1.574-4.875" fill="#ffb288"/>
          <path id="Path_2438" data-name="Path 2438" d="M237.267,295.94c-3.215,10.055-2.618,15.31.588,23.269.194,9.525.29,19.164.4,28.8-6.786,16.987-7.861,32.23-7,48.406l3.273,1.213s19.487-33.965,23.071-47.392a221.956,221.956,0,0,0,7.076-47.322" fill="#26387a"/>
          <path id="Path_2439" data-name="Path 2439" d="M238.071,298.124s-3.546,10.376,1.1,20.376c0,2.791,1.6,26,.966,29.584-.3,1.72-3.489,9.923-5.616,17.909-2.354,8.833-2.851,29.664-2.851,29.664" fill="none" stroke="#0061a6" stroke-miterlimit="10" stroke-width="0.5"/>
          <path id="Path_2440" data-name="Path 2440" d="M230.644,396.416l.518-2.186,4.189,1.948-.826,1.872Z" fill="#0061a6"/>
        </g>
      </g>
      <g id="Group_3619" data-name="Group 3619">
        <path id="Path_2441" data-name="Path 2441" d="M291.772,218.284l-2.625-2.241V211.4c0-.72-.977-5.042-1.857-5.042s-1.081-1.081-1.521-.641.36,5.323,0,5.683-.827-2.319-1.16-1.986-.361,2.3-.361,3.3a6.678,6.678,0,0,0,1.6,3.654c.8.8,4.323,4.607,4.323,4.607Z" fill="#ef9467"/>
        <path id="Path_2442" data-name="Path 2442" d="M290.458,216.8l-2.2,2.5s8.669,11.475,11.416,15.317a45.9,45.9,0,0,1-8.179-4.438c-4.078-2.674-8.167-4.092-10.995-4.092-6.005,0-2.862,19.794,4.1,22.691,13.215,1.987,28.027.73,30.295-3.915C318.266,237.974,298.9,221.757,290.458,216.8Z" fill="#2f80ed"/>
        <path id="Path_2443" data-name="Path 2443" d="M299.679,234.612s1.653,4.617,4.592,6.124" fill="none" stroke="#1767d2" stroke-miterlimit="10" stroke-width="0.5"/>
      </g>
      <g id="Group_3620" data-name="Group 3620">
        <path id="Path_2444" data-name="Path 2444" d="M250.163,231.321c-15.753,17.692-15.514,48.111-15.514,68.787,0,0,11.565,7.895,29.225,7.895,17.727,0,25.023-4.353,25.023-4.353.531-20.948-3.205-29.983.25-64.634,0,0-5.637-12.934-8.642-12.934s-14.76-1.159-14.76-1.159Z" fill="#2f80ed"/>
        <path id="Path_2445" data-name="Path 2445" d="M288.276,249.238s.358-6.052,1.827-7.522" fill="none" stroke="#1767d2" stroke-miterlimit="10" stroke-width="0.5"/>
      </g>
      <path id="Path_2446" data-name="Path 2446" d="M270.953,211.658c.586-3.57,3.129-8.669,7.8-8.092,2.933.362,5.2,2.387,6.845,4.759,1.408,2.034.876,3.98-1.127,9.13a13.261,13.261,0,0,1-3.084,3.61c-2.532,1.607-6.213.8-8.216-1.327A9.613,9.613,0,0,1,270.953,211.658Z" fill="#ffb288"/>
      <path id="Path_2447" data-name="Path 2447" d="M271.577,211.223c.672-.1.005-.538.3.074.19.391.246.505.627.632s.381.467.693.7c.486.362.9-.13,1.1-.547a4.7,4.7,0,0,0,.279-2.543c-.07-.658-.29-1.7.355-2.156.527-.374,1.692.168,2.235.325.838.243,1.667.514,2.5.768a14.88,14.88,0,0,0,6.253.865,6.062,6.062,0,0,0,4.646-2.926c1.062-2.055-1.061-4.74-3.225-4.743a8.4,8.4,0,0,0-1.658.343,1.281,1.281,0,0,1-.621.009c-.472-.139-.68-.669-.946-1.083a3.563,3.563,0,0,0-3.585-1.475,29.223,29.223,0,0,0-4.5,1.361,9.2,9.2,0,0,1-2.315.038,2.456,2.456,0,0,0-2.055,1.342c-.654-.685-2.113.993-2.476,1.435-1.6,1.943-2.1,4.742-2.145,7.2-.038,2.148.32,5.272,2.675,6.137,1,.365,1.623.56,1.665-.353a14.326,14.326,0,0,1-.629-3.614,1.911,1.911,0,0,1,.875-2.039" fill="#26387a"/>
      <path id="Path_2448" data-name="Path 2448" d="M279.245,220.185l-.513,5.4,1.773.5a4.994,4.994,0,0,1-4.029,2.834c-6.288.838-10.731-3.993-10.731-3.993l2.1-.406,3.177-10.017" fill="#ffb288"/>
      <path id="Path_2449" data-name="Path 2449" d="M272.627,211.185a.864.864,0,0,0-.874-.826,1.705,1.705,0,0,0-1.178.571c-1.758,1.751.452,6.018,2.187,3.814" fill="#ffb288"/>
      <path id="Path_2450" data-name="Path 2450" d="M284.48,217.361c-.282.661-1.4.925-2.008.992-2.958.327-5.412-1.585-8.244-1.935a1.506,1.506,0,0,0-2.062,1.76,18.493,18.493,0,0,0,.035,1.984,3.817,3.817,0,0,0,.456,1.64c1.278,2.129,5.545,2.488,7.708,2.356a4.52,4.52,0,0,0,2.467-.739c.974-.734,1.185-2.018,1.549-3.147A6.234,6.234,0,0,0,284.48,217.361Z" fill="#26387a"/>
      <path id="Path_2451" data-name="Path 2451" d="M282.381,219.685a.587.587,0,0,0-.314-.114,28.786,28.786,0,0,1-3.225-.415,1.509,1.509,0,0,0-.549.027,1.124,1.124,0,0,0-.681.9.758.758,0,0,0,.469.863,4.958,4.958,0,0,0,2.071.452,2.97,2.97,0,0,0,1.94-.347C282.385,220.81,282.815,220,282.381,219.685Z" fill="#ffb288"/>
      <g id="Group_3625" data-name="Group 3625">
        <path id="Path_2452" data-name="Path 2452" d="M269.374,297.773c-34.413-1.8-54.448,15.96-68.677,48.309-18.466,41.98-44.276,45.333-55.9,45.1" fill="none" stroke="#136acd" stroke-linecap="round" stroke-linejoin="round" stroke-width="5"/>
        <path id="Path_2453" data-name="Path 2453" d="M256.171,300.575c1.266,15.182,13.521,23.386,23.342,22.567l16.109-1.344-4.062-48.689-16.108,1.343C265.631,275.272,254.9,285.392,256.171,300.575Z" fill="#fdae2b"/>
        <path id="Path_2454" data-name="Path 2454" d="M264.472,299.882c1.237,14.836,11.025,26.129,21.861,25.225l17.774-1.482L299.626,269.9l-17.774,1.482C271.015,272.288,263.234,285.047,264.472,299.882Z" fill="#ef8417"/>
        <ellipse id="Ellipse_333" data-name="Ellipse 333" cx="19.689" cy="26.955" rx="19.689" ry="26.955" transform="translate(278.736 271.644) rotate(-4.768)" fill="#ffc840"/>
        <g id="Group_3623" data-name="Group 3623">
          <g id="Group_3621" data-name="Group 3621">
            <path id="Path_2455" data-name="Path 2455" d="M299.751,306.525c.184,2.2,1.839,3.866,3.7,3.711s3.215-2.068,3.031-4.272-1.839-3.867-3.7-3.711S299.568,304.32,299.751,306.525Z" fill="#fdae2b"/>
          </g>
          <g id="Group_3622" data-name="Group 3622">
            <path id="Path_2456" data-name="Path 2456" d="M298.163,287.487c.184,2.2,1.839,3.866,3.7,3.711s3.215-2.068,3.031-4.272-1.839-3.866-3.7-3.711S297.98,285.282,298.163,287.487Z" fill="#fdae2b"/>
          </g>
        </g>
        <g id="Group_3624" data-name="Group 3624">
          <path id="Path_2457" data-name="Path 2457" d="M302.085,289.982l25.123-2.1a2.8,2.8,0,0,0,2.541-3.035h0a2.8,2.8,0,0,0-3.008-2.571l-25.124,2.1C299.7,284.537,300.062,290.151,302.085,289.982Z" fill="#e2e8ed"/>
          <path id="Path_2458" data-name="Path 2458" d="M303.673,309.02l25.123-2.1a2.8,2.8,0,0,0,2.541-3.035h0a2.8,2.8,0,0,0-3.008-2.571l-25.124,2.1C301.283,303.575,301.65,309.189,303.673,309.02Z" fill="#e2e8ed"/>
        </g>
      </g>
      <g id="Group_3626" data-name="Group 3626">
        <path id="Path_2459" data-name="Path 2459" d="M241.772,254.018s-1.25,12.732,4.443,23.32c4.868,9.054,14.54,20.773,22.354,27.23l1.877-.457c-2.719-10.436-11.3-28.966-11.838-35.913s-.4-15-.534-18.868" fill="#ffb288"/>
        <path id="Path_2460" data-name="Path 2460" d="M265.745,224.923s-11.042.637-17.392,5.434c-10.978,8.294-8.824,30.565-5.628,41.455S261.3,299.04,266.262,302.56c.814,0,3.205-.2,3.119-2.075-2.746-8.49-10.576-30.823-10.576-30.823l1.237-30.128" fill="#2f80ed"/>
        <path id="Path_2461" data-name="Path 2461" d="M269.684,302.56a6.668,6.668,0,0,1,3.351,1.481c.918.717,2.047,1.918,1.929,2.467-.125.577-1.629-.533-1.812-.309s2.575,4.39,2.056,4.7-2.866-3.462-2.866-3.462,2.279,4.032,1.4,4.12c-.738.074-2.76-3.742-2.76-3.742s1.71,3.412,1.125,3.541-2.172-3.27-2.172-3.27,1.291,2.9.795,2.953c-.249.025-1.523-1.419-2.056-3.169-.524-1.721-1.136-3.215-.663-4.558" fill="#ffb288"/>
        <path id="Path_2462" data-name="Path 2462" d="M261.9,278.535c-1.76-5.067-3.1-8.873-3.1-8.873l2.32-25.287" fill="none" stroke="#1767d2" stroke-miterlimit="10" stroke-width="0.5"/>
        <path id="Path_2463" data-name="Path 2463" d="M240.2,250.517c-.063,6.858.763,15.306,2.521,21.3,1.538,5.242,5.9,11.746,10.561,17.475" fill="none" stroke="#1767d2" stroke-miterlimit="10" stroke-width="0.5"/>
      </g>
    </g>
    <g id="Group_3633" data-name="Group 3633">
      <path id="Path_2464" data-name="Path 2464" d="M476.358,213.274l1.774-1.214a29.409,29.409,0,0,1,1.277-4.555,10.871,10.871,0,0,1,2.43-2.952c.433-.292,2.409-1.41,2.908-.911.245.245-.588,2.482-.971,2.864s-1.507,2.1-1.332,2.632,1.111-.637,1.332-.859.52-.5.624-.21c.173.477-.825,3.168-1.607,3.949a5.024,5.024,0,0,1-2.928,1.519l-2.756,2.435" fill="#ffb288"/>
      <path id="Path_2465" data-name="Path 2465" d="M497.742,200.556a12.556,12.556,0,0,1,5.457,8.25,3.432,3.432,0,0,0,.638,1.659,3.662,3.662,0,0,0,1.217.731,10.022,10.022,0,0,1,5.152,5.86c.366,1.079.08,2.6.505,3.523.521,1.129,2.438,1.385,3.469,1.727a7.859,7.859,0,0,1,.153,14.869,4.843,4.843,0,0,1,.559,4.077,9.471,9.471,0,0,1-2.152,3.629A20.071,20.071,0,0,1,497,251.372a14.734,14.734,0,0,1-4.947-.99,20.018,20.018,0,0,1-4.822-3.083,15.107,15.107,0,0,1-4.57-5.116c-.971-2.094-.907-4.834.738-6.453a5.01,5.01,0,0,1-5-2.257,7.32,7.32,0,0,1-.834-5.606,13.942,13.942,0,0,1,2.59-5.168,8.01,8.01,0,0,0,1.928-3.551c.289-2.257-.971-4.273-1.3-6.518-.509-3.493-.351-6.5,2.64-8.352.959-2.488,2.121-4.407,4.875-5.14A12.109,12.109,0,0,1,497.742,200.556Z" fill="#26387a"/>
      <path id="Path_2466" data-name="Path 2466" d="M490.549,227.1c-9.975-2.612-21.394,1.513-23.938,1.5,3.485-3.485,9.882-11.243,12.092-13.924a2.442,2.442,0,0,0-1.118-2.356s-27.361,14.148-24.612,23.387c2.871,9.645,29.677,4.912,31.818,7.681" fill="#28c195"/>
      <g id="Group_3628" data-name="Group 3628">
        <path id="Path_2467" data-name="Path 2467" d="M492.5,316.891c-.03.816-3.6,18.382-3.865,20.267-.765,5.489,2.135,11,1.853,19.506-.343,10.346-4.744,38.153-5.3,39.386s-3.242.1-3.242.1-7.734-37.3-8.17-52.568c-.36-12.573,1.467-39.784,1.467-39.784" fill="#ffb288"/>
        <path id="Path_2468" data-name="Path 2468" d="M485.463,396.527a4.5,4.5,0,0,1,.428,1.371c-.057,1.159-.094,1.95-.094,1.95l-.5.033-.175-.945a7.975,7.975,0,0,0-2.7,1.129c-.66.434-3.975.395-4.486.125a.67.67,0,0,1-.217-1.068c.191-.222,3.778-1.789,3.778-1.789" fill="#26387a"/>
        <path id="Path_2469" data-name="Path 2469" d="M481.947,396.153c-.29.7-3.124,2.245-2.862,2.452a6.623,6.623,0,0,0,3.736-.391c1.665-.554,2.607-1.175,2.661-1.611l-.319-1.172" fill="#ffb288"/>
      </g>
      <g id="Group_3629" data-name="Group 3629">
        <path id="Path_2470" data-name="Path 2470" d="M517.328,317.621c-.005.817-3.041,18.483-3.246,20.376-.6,5.509,2.469,10.925,2.447,19.44-.028,10.351-3.579,38.28-4.1,39.53s-3.237.2-3.237.2-8.867-37.05-9.769-52.294c-.743-12.557.254-39.81.254-39.81" fill="#ffb288"/>
        <path id="Path_2471" data-name="Path 2471" d="M512.718,397.435a4.5,4.5,0,0,1,.469,1.357c-.022,1.161-.035,1.952-.035,1.952l-.5.049-.2-.94a7.989,7.989,0,0,0-2.664,1.211c-.646.454-3.961.516-4.48.262a.67.67,0,0,1-.249-1.061c.185-.228,3.722-1.9,3.722-1.9" fill="#26387a"/>
        <path id="Path_2472" data-name="Path 2472" d="M509.192,397.168c-.269.71-3.054,2.339-2.787,2.538a6.617,6.617,0,0,0,3.722-.505c1.648-.6,2.571-1.253,2.611-1.691l-.354-1.162" fill="#ffb288"/>
      </g>
      <path id="Path_2473" data-name="Path 2473" d="M508.307,272.443s7.927,5.192,10.948,17.648c4.074,16.8-1.927,49.686-1.927,49.686a101.422,101.422,0,0,1-25.92,3.515c-13.5-.115-21.5-4.678-21.531-5.495s-2.014-25.716.73-42.61c3.08-18.96,10.926-24.071,10.926-24.071" fill="#2858ad"/>
      <g id="Group_3631" data-name="Group 3631">
        <g id="Group_3630" data-name="Group 3630">
          <path id="Path_2474" data-name="Path 2474" d="M497.56,226.779c1.229-.457,4.417.66,10.386,2.947,2.622,2.837,3.771,9.054,4.337,14.557-1.548,13.394-3.277,20.707-2.444,25.227.2,1.071,1.179,1.882,1.023,3.375-.324,3.089-5.382,3.558-14.983,4.648s-18.245-3.271-17.726-4.633,2.156-2.556,2.415-3.458,1.044-12.377.006-13.74-3.715-5.28-3.715-9.1c0-5.372,2.957-7.782,4.893-10.734,3.225-4.919,5.674-8,8.8-8.775C495.547,225.863,497.56,226.779,497.56,226.779Z" fill="#28c195"/>
        </g>
        <path id="Path_2475" data-name="Path 2475" d="M481.4,233.568a7,7,0,0,1-.828,4.228c-.361.592-2.542,2.813-2.97,4.228" fill="none" stroke="#119b73" stroke-miterlimit="10" stroke-width="0.5"/>
      </g>
      <path id="Path_2476" data-name="Path 2476" d="M495.263,220.242c2.621-2.6,3.035-7.543,1.844-10.881-1.342-3.758-6.7-6.574-10.383-4.22C479.486,209.762,486.83,228.617,495.263,220.242Z" fill="#ffb288"/>
      <path id="Path_2477" data-name="Path 2477" d="M490.274,219.782l.136,8.038s-.3,1.787,2.842,1.9c4.308.154,4.308-2.94,4.308-2.94l-2.492-8.282" fill="#ffb288"/>
      <path id="Path_2478" data-name="Path 2478" d="M493.533,201.592a2.445,2.445,0,0,0-2.749-.067,16.43,16.43,0,0,1-1.549,1.148,9.345,9.345,0,0,1-1.371.341,7.8,7.8,0,0,0-4.95,4.152c-.886,2-.6,5.258,1.055,6.688a9.994,9.994,0,0,1,1.219-5.086,2.233,2.233,0,0,1,1.924-1.274c.907.1,1.4,1.072,2.054,1.709a6.449,6.449,0,0,0,3.723,1.355c1.481.221,2.624.482,3.354,1.936a9.562,9.562,0,0,1,.66,2.012,13.572,13.572,0,0,1,.452,2.475,6.016,6.016,0,0,0,.165,1.554,3.439,3.439,0,0,0,2.324,1.924c.759.256,2.039.494,2.516-.367a8.753,8.753,0,0,0,.878-2.54,11.412,11.412,0,0,0-1.857-7.816c-1.6-2.544-3.874-4.248-5.927-6.365A12.8,12.8,0,0,0,493.533,201.592Z" fill="#26387a"/>
      <path id="Path_2479" data-name="Path 2479" d="M495.551,213.964a1.718,1.718,0,0,1,1.244-1.335c2.046-.31,1.736,2.746.945,3.82-.46.626-1.651,1.445-2.189-.294" fill="#ffb288"/>
      <g id="Group_3632" data-name="Group 3632">
        <path id="Path_2480" data-name="Path 2480" d="M517.264,276.548l-.963,2.058s-3.633.864-4.018,1.5c-.609,1.012-1.522,2.41-1.522,3.205s.076,4.284,1.072,4.284c.625,0,2.088-2.846,2.39-3.244.712-.94,3.586-1.622,3.586-4.1l1.759-3.709" fill="#ffb288"/>
        <path id="Path_2481" data-name="Path 2481" d="M497.56,226.673s8.479-2.158,15.1,2.023c5.149,3.249,18.4,19.414,18.4,28.672,0,6.242-12.391,21.7-12.391,21.7l-2.058-1.471s1.2-12.15,4.8-18.847c-2.656-2.657-13.014-10.907-15.616-13.508" fill="#28c195"/>
        <path id="Path_2482" data-name="Path 2482" d="M504.452,244.39c1.852,1.645,6.731,5.572,6.731,5.572" fill="none" stroke="#119b73" stroke-miterlimit="10" stroke-width="0.5"/>
      </g>
    </g>
    <g id="Group_3634" data-name="Group 3634">
      <path id="Path_2483" data-name="Path 2483" d="M254.461,212.356,244.217,204.1s4.606-17.013-1.492-22.955a33.319,33.319,0,0,0-11.582-6.926c-9.426-3.577-20.686-4.389-29.087,1.186-6.2,4.112-9.964,11.16-11.651,18.4-1.484,6.378-1.36,13.626,2.627,18.82a20.434,20.434,0,0,0,6.849,5.453c8.1,4.247,29.544,5.85,38.846-.383,2.576-1.726,2.35-4.06,3.429-7.706Z" fill="#e7f5fe"/>
      <text id="Oops_" data-name="Oops!" transform="translate(217.467 202.697)" fill="#136acd" font-size="16.814" font-family="OpenSans-SemiBold, Open Sans" font-weight="600" letter-spacing="-0.03em"><tspan x="-22.394" y="0">Oops!</tspan></text>
    </g>
  </g>
</svg>
