<svg xmlns="http://www.w3.org/2000/svg" viewBox="0 0 80 80" id="decor--envelope" width="100%" height="100%">
<g fill="none" fill-rule="evenodd"><circle cx="40" cy="40" r="38" fill="#136acd" fill-rule="nonzero"/>
<path fill="#FFF" d="M61.265 57.61L42.06 43.643a3.5 3.5 0 0 0-4.118 0L18.735 57.611A4.977 4.977 0 0 1 18 55V36c0-1.123.37-2.16.996-2.995l42.013.006C61.63 33.845 62 34.88 62 36v19c0 .957-.269 1.85-.735 2.61zm-2.342 2.007A4.985 4.985 0 0 1 57 60H23a4.985 4.985 0 0 1-1.923-.383l18.629-13.548a.5.5 0 0 1 .588 0l18.629 13.548z"/><path fill="#8a33fb" d="M42.059 43.642a3.5 3.5 0 0 0-4.118 0l-2.174 1.582L19 33c.038-.054 6.668-4.609 19.89-13.664a2 2 0 0 1 2.22 0C54.331 28.39 60.961 32.946 61 33L44.233 45.224l-2.174-1.582z"/></g>
</svg>