<svg width="191" height="23" xmlns="http://www.w3.org/2000/svg"><g fill-rule="nonzero" fill="none"><path d="M183.945 10.877c.439-.379.973-.47 1.774-.502.631-.024 1.469.255 1.865.673.365.398.592 1.037.649 1.8l-5.119-.007c.134-1.136.417-1.607.831-1.964zm1.685 9.762s2.561.122 4.292-1.346c.126-.111.513-.45.733-.75a.672.672 0 0 0 .047-.652c-.152-.332-.546-.674-.705-.793 0 0-.39-.328-.872-.423-.24-.047-.356.004-.677.324-.617.555-1.306.847-2.056.847-.744 0-2.014-.286-2.473-.77-.435-.421-.753-.979-.792-1.772h6.971s.898-.028.902-1.095c.001-.474-.011-1.088-.016-1.164-.016-1.665-.508-2.996-1.461-3.954-.936-.938-2.58-1.539-4.367-1.438-.562.032-1.14.111-1.716.33a4.29 4.29 0 0 0-1.604 1.088c-.467.493-.853 1.17-1.147 2.012-.293.823-.442 1.863-.442 3.093 0 1.281.188 2.34.508 3.142.312.846.726 1.517 1.237 1.999.262.231.545.427.827.573a5.707 5.707 0 0 0 2.811.75zm-6.14-12.863a1.635 1.635 0 0 0-.176-.034c-.374-.05-.747-.077-1.121-.009-.486.09-.809.417-.958.916l-.176.466-2.566 6.835-.577-1.603-1.119-3.105c-.202-.562-.414-1.12-.612-1.682-.194-.55-.365-1.15-.794-1.547-.498-.461-1.206-.36-1.803-.238a.994.994 0 0 0-.522.277c-.28.292-.252.727-.136 1.094.143.45.333.89.497 1.333l1.538 4.15.809 2.18a517.57 517.57 0 0 1 .975 2.65c.099.27.179.528.381.73.364.365.944.402 1.416.406.476.004 1.067-.08 1.387-.503.194-.256.291-.579.393-.884.112-.34.24-.673.367-1.006.212-.562.423-1.123.636-1.684l.732-1.938.738-1.953.652-1.724.474-1.256c.17-.448.439-.998.16-1.464-.136-.229-.359-.348-.595-.407zm-16.277 7.43c-.86-.004-2.147.062-2.169 1.268-.021 1.223 1.5 1.423 2.331 1.413h.11c.943-.011 1.46-.228 1.726-.407.298-.222.462-.765.454-1.525l-.004-.739-2.448-.01zm-.12-4.853a2.69 2.69 0 0 0-1.18.393 3.337 3.337 0 0 0-.516.39c-.16.147-.3.302-.513.353-.4.097-.79-.16-1.102-.4-.155-.122-.54-.469-.683-.8a.662.662 0 0 1 .06-.644c.876-1.136 2.309-1.77 3.639-1.88 1.35-.112 2.96-.038 4.126.776.9.63 1.328 1.9 1.359 3.427l.079 7.968c0 .07-.02.126-.036.168-.155.378-.79.518-1.287.524-.497.006-1.134-.12-1.296-.492a.431.431 0 0 1-.04-.169l.001-.262c-.193.208-.43.376-.708.502-.446.214-1.17.33-1.95.339-1.294 0-2.759-.36-3.473-1.08-.751-.7-1.141-1.623-1.153-2.735-.01-1.061.41-1.96 1.054-2.668.642-.721 1.595-1.104 2.83-1.134l3.314-.04c.009-.42.075-.89-.015-1.302-.252-1.154-1.587-1.308-2.51-1.234zm-5.462-2.565c-1.275-.245-1.868.131-1.868.131-.414.24-.496.728-.496.728l-1.878 7.194-.05-.147-.139-.409-.208-.616-.262-.772-.296-.876-.314-.926-.313-.926-.295-.872-.26-.766-.205-.609-.135-.398c-.07-.206-.174-.412-.336-.555-.19-.167-.45-.232-.687-.27a1.567 1.567 0 0 0-.274-.02c-.563.012-.88.183-1.057.32a.761.761 0 0 0-.25.391l-2.163 7.301-2.005-7.044c-.108-.38-.321-.682-.68-.81a2.619 2.619 0 0 0-.92-.131 4.386 4.386 0 0 0-.764.082s-1.058.157-.703 1.287l.046.155.11.366.165.546.21.697.248.819.275.909.293.97.303 1.001.304 1.003.294.973.277.915.25.826.214.707.169.559c.074.245.123.506.317.679.272.243.671.324 1.012.365.156.018.312.027.468.029.514.007 1.171-.017 1.593-.384.218-.19.278-.502.355-.776l.133-.478.368-1.318.43-1.54.404-1.446.29-1.038.091-.326.146.438.367 1.107.993 2.987c.118.355.23.712.347 1.066.068.207.142.412.212.617.067.195.116.383.231.554.358.533 1.065.535 1.617.53.496-.006 1.275-.068 1.55-.6.091-.178.13-.397.188-.591l.334-1.13c.197-.672.392-1.345.587-2.018.222-.762.442-1.525.663-2.288.388-1.343.775-2.686 1.16-4.03.083-.285.158-.573.247-.855.355-1.13-.703-1.287-.703-1.287z" fill="#111"/><path d="M131.744 18.886c-.119.353-1.939 5.337-7.744 3.245 0 0 1.197-.396 1.59-1.842.19-.696 1.862-6.49 1.862-6.49h.003l3.208-11.329a2.597 2.597 0 0 1 3.332-1.687l.117.04c1.404.473 2.201 2.008 1.772 3.41l-3.45 12.18s-.57 2.12-.69 2.473" fill="#76C3FC"/><path d="M123.62 19.046c.346-.815.599-1.753.863-2.585.583-1.837 1.095-3.706 1.656-5.55.236-.773.47-1.547.703-2.32.515-1.607-.27-3.31-1.746-3.785l-.123-.04c-1.471-.473-3.094.446-3.613 2.044l-3.15 10.516c-.433 1.352-1.455 2.336-2.645 2.718a3.48 3.48 0 0 1-2.157.01l-.123-.04a3.437 3.437 0 0 1-.285-.11c.652.94 1.962 1.941 3.497 2.446 1.706.56 3.667.311 5.137-.722.956-.672 1.546-1.549 1.986-2.582" fill="#328FF8"/><path d="M112.877 18.46l.116.04a2.573 2.573 0 0 0 3.313-1.708l1.578-5.517c.427-1.419-.365-2.971-1.76-3.45l-.117-.04a2.572 2.572 0 0 0-3.313 1.707l-1.578 5.517c-.427 1.418.365 2.97 1.76 3.45" fill="#1F65A6"/><path d="M13.572 19V7.64h4.112c2.72 0 3.888 1.568 3.888 3.68 0 2.464-1.664 3.632-4.112 3.632h-1.952V19h-1.936zm1.936-5.792h1.76c1.584 0 2.304-.8 2.304-1.92 0-1.2-.768-1.92-2.16-1.92h-1.904v3.84zm11.536 5.92c-2.464 0-4.096-1.728-4.096-4.016 0-2.304 1.632-4.032 4.096-4.032 2.4 0 4.096 1.632 4.096 4.032 0 2.368-1.696 4.016-4.096 4.016zm0-1.632c1.264 0 2.272-.976 2.272-2.384 0-1.44-.992-2.416-2.272-2.416-1.36 0-2.272 1.056-2.272 2.416 0 1.328.928 2.384 2.272 2.384zm14.944-6.304h1.824L41.124 19h-1.648l-1.472-4.912h-.016L36.516 19H34.9l-2.688-7.808h1.824l1.68 5.136h.032l1.504-5.136h1.504l1.52 5.152h.032l1.68-5.152zM52.484 15c0 .288-.032.576-.048.72H46.74c.24 1.104 1.072 1.776 2.224 1.776.912 0 1.552-.416 1.952-.912l1.248 1.072c-.656.848-1.76 1.472-3.296 1.472-2.272 0-3.984-1.6-3.984-4.032 0-2.4 1.632-4.016 3.808-4.016 2.304 0 3.792 1.648 3.792 3.92zm-3.696-2.304c-.992 0-1.76.56-2.016 1.584h3.904c-.224-.944-.864-1.584-1.888-1.584zm9.792-1.616h.224v2c-.208-.016-.416-.032-.544-.032-1.36 0-2.128.976-2.128 2.256V19H54.34v-7.808h1.792v1.184h.016c.608-.832 1.488-1.296 2.432-1.296zM67.428 15c0 .288-.032.576-.048.72h-5.696c.24 1.104 1.072 1.776 2.224 1.776.912 0 1.552-.416 1.952-.912l1.248 1.072c-.656.848-1.76 1.472-3.296 1.472-2.272 0-3.984-1.6-3.984-4.032 0-2.4 1.632-4.016 3.808-4.016 2.304 0 3.792 1.648 3.792 3.92zm-3.696-2.304c-.992 0-1.76.56-2.016 1.584h3.904c-.224-.944-.864-1.584-1.888-1.584zm11.36-5.472h1.776V19h-1.712v-1.04h-.032c-.576.752-1.424 1.168-2.528 1.168-2.16 0-3.792-1.584-3.792-4 0-2.352 1.632-4.048 3.776-4.048 1.024 0 1.888.368 2.48 1.056h.032V7.224zm-2.224 10.272c1.28 0 2.288-.944 2.288-2.352 0-1.392-.928-2.448-2.272-2.448-1.248 0-2.256.944-2.256 2.448 0 1.376.928 2.352 2.24 2.352zM87.78 11.08c2.16 0 3.776 1.696 3.776 4.048 0 2.416-1.616 4-3.792 4-1.104 0-1.952-.416-2.528-1.168h-.032V19h-1.712V7.224h1.792v4.912h.016c.592-.688 1.456-1.056 2.48-1.056zm-.288 6.416c1.312 0 2.24-.976 2.24-2.352 0-1.504-1.008-2.448-2.256-2.448-1.344 0-2.272 1.056-2.272 2.448 0 1.408 1.008 2.352 2.288 2.352zm11.136-6.304h1.872l-4.288 10.976h-1.888l1.408-3.616-3.168-7.36h1.888l2.16 5.28 2.016-5.28z" fill="#146CD2"/><path d="M3.902 12.031v1.211L.91 16.516l-.883-.852 2.438-3.031-2.438-3.11.883-.765 2.992 3.273zm3.703 0v1.211l-3 3.274-.882-.852 2.437-3.031-2.437-3.11.882-.765 3 3.273z" fill="#EF9B25"/></g></svg>
