<svg viewBox="0 0 70 70" xmlns="http://www.w3.org/2000/svg"><g fill="none"><path d="M0 0h69.755v69.755H0V0z" fill="#fff"/><path d="M12.17 47.418v8.81c0 4.923 2.987 5.735 5.489 5.735 3.696 0 5.408-2.458 5.408-5.785v-8.76H20.62v9.057c0 1.145-.372 3.281-2.961 3.239-2.356-.042-2.792-2.226-2.792-3.625v-8.671h-2.696m21.115.579s-1.562-.784-3.336-.784c-2.21 0-4.989 1.146-4.989 4.264 0 2.165 1.582 3.192 2.663 3.719.571.282 1.269.596 1.841.905.296.161 1.469.56 1.469 1.843 0 1.367-1.489 1.836-2.158 1.836-2.385 0-4.008-1.093-4.008-1.093l.249 2.747s.974.499 3.892.501c2.783-.007 4.79-1.805 4.79-4.284 0-1.907-1.292-3.038-2.396-3.577-.87-.433-1.375-.661-2.13-1.021-.756-.357-1.535-.976-1.535-1.937 0-1.027.933-1.765 2.311-1.765 2.025 0 2.841.92 3.336 1.213v-2.568m16.746 9.232l1.946-5.58 1.741 5.58h-3.687zm-11.729 0l1.95-5.58 1.737 5.58h-3.688zm14.89-9.833h-2.937l.469 1.192-4.558 12.247-4.7-13.439h-2.937l.468 1.192-4.859 13.057h2.653l.849-2.486h5.024l.843 2.486h5.011l.85-2.486h5.023l.846 2.486h2.939l-4.984-14.249zM12.021 31.393l.124 4.452s1.086-.808 2.299-.808c1.218 0 2.589.88 2.589.88l10.878 6.402.92-4.024-11.797-6.942s-1.366-.875-2.589-.875c-1.22 0-2.423.914-2.423.914" fill="#00324F"/><path d="M12.021 25.572l.124 4.452s1.086-.807 2.299-.807c1.218 0 2.589.88 2.589.88l12.051 7.09.918-4.023-12.969-7.63s-1.366-.876-2.589-.876c-1.22 0-2.423.914-2.423.914" fill="#00324F"/><path d="M12.021 19.752l.124 4.452s1.086-.807 2.299-.807c1.218 0 2.589.877 2.589.877l13.226 7.787.917-4.026-14.143-8.325s-1.366-.873-2.589-.873c-1.22 0-2.423.914-2.423.914" fill="#00324F"/><path d="M34.693 12.665l1.212 5.255 16.565 9.744s1.304.875 2.581.875c1.28 0 2.428-.915 2.428-.915l-.124-4.452s-1.04.808-2.304.808c-1.261 0-2.581-.878-2.581-.878L39.654 15.56l-.885-3.38c0-.142.126-.21.174-.222l2.17-.684c.291 0 .46.253.46.468l.115.241c.078.042.405-.12.43-.132v-1.334a1.65 1.65 0 0 0-1.651-1.666h-2.168s-.317-.749-1.238-.749h-4.118c-1.088 0-1.351 1.032-1.351 1.032l-2.859 11.649-11.7-6.888s-1.268-.877-2.59-.877c-1.319 0-2.423.914-2.423.914l.124 4.451s.978-.805 2.299-.805c1.324 0 2.59.88 2.59.88l14.394 8.468 3.264-14.26" fill="#00324F"/><path d="M36.229 19.362l1.209 5.277 15.032 8.843s1.346.879 2.581.879c1.235 0 2.427-.918 2.427-.918l-.125-4.451s-.962.806-2.302.806c-1.342 0-2.581-.875-2.581-.875l-16.241-9.561" fill="#00324F"/><path d="M37.769 26.089l1.21 5.279 13.49 7.935s1.348.878 2.583.878c1.236 0 2.426-.916 2.426-.916l-.123-4.452s-.964.805-2.303.805c-1.342 0-2.583-.875-2.583-.875l-14.7-8.653" fill="#00324F"/><path d="M39.313 32.821l1.21 5.271 11.945 7.032s1.349.88 2.584.88 2.426-.922 2.426-.922l-.123-4.45s-.964.809-2.303.809c-1.342 0-2.584-.882-2.584-.882l-13.156-7.738m21.583 13.768c1.613 0 2.897 1.318 2.897 2.964 0 1.673-1.284 2.977-2.909 2.977-1.611 0-2.92-1.305-2.92-2.977 0-1.646 1.308-2.964 2.92-2.964h.012zm-.012.461c-1.295 0-2.358 1.12-2.358 2.503 0 1.408 1.062 2.516 2.37 2.516 1.312.013 2.36-1.108 2.36-2.504 0-1.395-1.047-2.515-2.36-2.515h-.012zm-.55 4.229h-.525v-3.306c.277-.04.538-.08.932-.08.496 0 .824.104 1.021.252.196.145.302.368.302.684 0 .437-.288.7-.642.805v.025c.289.053.483.317.55.804.079.514.157.712.209.817h-.55c-.079-.105-.159-.408-.224-.842-.079-.422-.287-.582-.708-.582h-.366v1.423zm0-1.832h.379c.434 0 .8-.157.8-.565 0-.29-.209-.579-.8-.579l-.379.025v1.12z" fill="#00324F"/></g></svg>