<svg viewBox="0 0 70 70" xmlns="http://www.w3.org/2000/svg"><g fill="none"><path d="M0 0h69.755v69.755H0V0z" fill="#CD1309"/><path d="M15.944 41.156c0-.798-.1-1.495-.398-2.093-.398-.499-1.096-.596-2.193-.596h-2.491v2.988h.798c1.196 0 1.395-.299 1.395-1.792h.997v4.982h-.997c0-1.695-.199-2.093-1.395-2.093h-.798v2.592c0 .897.1.897.997.897h1.096v1.194H6.876v-1.194h.597c.798 0 1.096-.101 1.096-.897v-5.881c0-.796-.3-.895-1.096-.895h-.597v-1.095h10.165v3.885h-1.096v-.001zm22.92 3.289h-.897c0 1.095 0 1.594-.597 1.594-.299 0-.597-.301-.597-.897v-.499c-.1-1.394-.398-1.993-2.093-2.491 1.893-.198 2.989-1.095 2.989-2.489 0-1.695-1.196-2.392-3.687-2.392h-6.876v1.095h.798c.897 0 .997.101.997.895v5.881c0 .697-.398.897-.997.897h-.698c-.597 0-.897-.2-1.196-.897l-3.188-7.872H20.43l-3.389 7.872c-.299.697-.498.897-1.295.897h-.398v1.194h5.182v-1.194h-1.096c-.498 0-.798 0-.798-.301 0-.101.1-.299.199-.499l.498-1.196h3.787l.498 1.097c.1.198.1.398.1.497 0 .4-.299.4-.798.4h-1.096v1.194h11.26v-1.194h-.897c-.897 0-.997 0-.997-.897v-2.592h.997c1.694 0 2.193.301 2.292 1.993v1.095c.1 1.396.997 1.794 2.392 1.794 1.195 0 1.993-.697 1.993-2.592l.003-.394zM19.731 42.85l1.594-3.788 1.495 3.788h-3.089zm13.552-1.496l-2.093.101v-3.089h2.093c1.395 0 2.093.398 2.093 1.495v.101c-.001.995-.698 1.393-2.093 1.393zm14.45-.897c-.499-1.495-1.495-2.192-3.089-2.192-1.594 0-2.891 1.295-2.891 3.885 0 2.592.997 3.887 2.891 3.986 1.295 0 2.491-.697 2.491-1.792v-.598c0-.697-.101-.697-1.096-.697h-.498v-1.095h4.683v1.095h-.398c-.697 0-.798 0-.798.798v3.289h-.897l-.499-.798c-.897.697-2.193 1.095-3.389 1.095-1.395 0-2.491-.499-3.388-1.495-.997-.998-1.594-2.293-1.594-3.788 0-1.594.498-2.79 1.495-3.786.897-.897 2.193-1.295 3.588-1.295 1.095 0 2.392.299 3.089 1.095l.498-1.095h.798v3.388h-.996zm9.067 6.876c-3.288 0-5.879-1.993-5.879-5.182 0-3.089 2.591-5.081 5.879-5.081 3.288 0 5.779 1.993 5.779 5.182 0 3.089-2.491 5.081-5.779 5.081zm3.388-5.081c0-3.588-2.392-3.986-3.389-3.986-1.893 0-3.389 1.396-3.389 3.986 0 2.59 1.496 3.986 3.389 3.986.998 0 3.389-.499 3.389-3.986zM41.156 30.393c-.299.597-.997.698-2.193.698h-2.491v-6.677c0-.797.2-.897 1.196-.897h.698v-1.196h-5.979v1.196h.498c.897 0 1.395 0 1.395.897v5.88c0 .797-.398.896-1.295.896h-.499v1.096H42.75V28.3h-1.196c0 .896-.1 1.495-.398 2.092zm-13.055.698h-3.188v-3.389h.698c1.196 0 1.395.199 1.495 1.893h1.096v-4.983h-1.096c-.1 1.495-.299 1.893-1.495 1.893h-.698v-2.989h2.691c1.993 0 2.591.398 2.691 2.691h1.096v-3.885H16.643v1.196h.698c.597 0 .798.101.798.398 0 .2 0 .399-.1.798l-1.893 4.983h-.1c-.897-2.491-2.093-5.381-2.093-5.381-.1-.199-.1-.3-.1-.399 0-.299.199-.398.698-.398h.798v-1.196h-5.282v1.196h.698c.798 0 1.096.398 1.196 1.196l-1.993 4.983h-.1c-.897-2.691-2.093-5.481-2.093-5.481-.1-.1 0-.199 0-.299-.1-.299.199-.398.798-.398h.398v-1.197H3.985v1.196h.199c.698 0 1.295.398 1.594 1.295l2.989 7.473h1.793l2.193-5.481 2.292 5.481h1.793l2.79-7.574c.398-.897.597-1.196 1.495-1.196h.1c.897 0 1.395 0 1.395.897v5.88c0 .797-.498.896-1.395.896h-.597v1.096h10.961V28.3h-1.196c-.099 1.995-.498 2.791-2.291 2.791zm24.115-2.79c0 .897-.1 1.495-.399 2.093-.299.597-.996.698-2.192.698h-2.392v-6.677c0-.797.199-.897 1.096-.897h.798v-1.197h-6.079v1.196h.698c.798 0 1.195 0 1.195.897v5.88c0 .797-.299.896-1.195.896h-.2v1.096h9.865V28.3h-1.195zm11.36 1.095c0 2.292-1.793 3.089-4.384 3.089-1.594 0-3.188-.897-3.488-1.196l-.398.997h-.997V28.3h1.196c.299 1.893 1.594 2.691 3.389 2.79 1.594.1 2.691-.299 2.79-1.395.199-1.295-1.196-1.196-2.391-1.395l-1.695-.299c-2.49-.499-3.388-1.196-3.388-2.891-.101-1.793 1.594-2.989 3.786-2.989 1.096 0 2.491.199 3.488.997l.498-.798h.897v3.488h-1.096c-.199-1.893-2.193-2.491-3.787-2.491-1.196.101-1.893.698-1.893 1.496 0 .797.697.897 1.594 1.096l2.092.299c2.193.398 3.787.798 3.787 3.188z" fill="#ff0"/></g></svg>